<?xml version="1.0" encoding="UTF-8"?>
<svg version="1.1" xmlns="http://www.w3.org/2000/svg" width="2560" height="1399">
<path d="M0 0 C1.26446488 -0.00177501 2.52892975 -0.00355002 3.83171174 -0.00537882 C7.35143556 -0.01017496 10.87113371 -0.00874497 14.39085894 -0.00632112 C18.23061282 -0.0047793 22.07036103 -0.00903555 25.91011301 -0.01254788 C32.66910839 -0.01792414 39.42809682 -0.0195646 46.18709417 -0.01879714 C56.30589159 -0.01766247 66.4246809 -0.02224041 76.5434765 -0.02792798 C93.78800054 -0.03744414 111.03252296 -0.04214782 128.27704936 -0.04423732 C145.75909291 -0.0463649 163.24113395 -0.05062258 180.7231763 -0.05748004 C181.82638644 -0.05791065 182.92959657 -0.05834127 184.06623732 -0.05878493 C188.55930693 -0.06054326 193.05237654 -0.0623129 197.54544614 -0.06409795 C252.03797269 -0.08570504 306.53049973 -0.09657826 361.02302958 -0.10557419 C378.69473787 -0.10850783 396.36644604 -0.11187767 414.03815418 -0.1155414 C415.28471494 -0.11579969 416.53127569 -0.11605798 417.81561101 -0.1163241 C422.85871584 -0.11737032 427.90182067 -0.11841874 432.9449255 -0.11946992 C519.21593401 -0.13743625 605.48694276 -0.15281636 691.75795286 -0.16022895 C697.85683424 -0.16075341 703.95571562 -0.16129072 710.054597 -0.16182742 C712.09134561 -0.16200662 714.12809422 -0.16218559 716.16484283 -0.16236451 C729.10361372 -0.16350157 742.0423846 -0.16464764 754.98115548 -0.1658127 C758.39481317 -0.16612002 761.80847085 -0.16642595 765.22212854 -0.16672861 C829.67652331 -0.1724468 894.13091415 -0.18168251 958.58530551 -0.20414561 C959.60267391 -0.20449995 959.60267391 -0.20449995 960.6405952 -0.20486145 C982.51329545 -0.21248914 1004.38599555 -0.22053802 1026.25869563 -0.22864672 C1047.32022609 -0.23645456 1068.38175657 -0.2441781 1089.44328719 -0.25153655 C1090.11281422 -0.25177064 1090.78234124 -0.25200473 1091.47215697 -0.25224591 C1133.4201399 -0.26688859 1175.36812168 -0.27667935 1217.31610709 -0.28141135 C1219.26013543 -0.28163188 1219.26013543 -0.28163188 1221.24343707 -0.28185687 C1249.69615232 -0.28504188 1278.14886755 -0.28709264 1306.60158295 -0.28808442 C1318.05033818 -0.28849915 1329.4990934 -0.28905405 1340.94784862 -0.28964633 C1342.2008377 -0.289707 1343.45382679 -0.28976766 1344.74478524 -0.28983017 C1385.09048804 -0.29184538 1425.43617502 -0.30607819 1465.78187231 -0.32659133 C1506.4305514 -0.34718517 1547.07921223 -0.35505972 1587.72789601 -0.34551357 C1593.34961122 -0.34419517 1598.97132646 -0.34301711 1604.59304172 -0.34192294 C1605.69501819 -0.34170309 1606.79699466 -0.34148324 1607.93236435 -0.34125673 C1625.35575844 -0.33814682 1642.77911751 -0.34845177 1660.20250349 -0.36439849 C1677.35056566 -0.37981334 1694.49857956 -0.38087406 1711.64664344 -0.36685025 C1721.68950074 -0.35906318 1731.73221024 -0.36208777 1741.77505265 -0.38148742 C1748.46105385 -0.39329682 1755.14694803 -0.39035624 1761.8329436 -0.37587277 C1765.61274424 -0.36808481 1769.39225761 -0.36611334 1773.17203739 -0.38249181 C1796.82643012 -0.47840322 1819.99158144 1.58427752 1843.03782016 7.12880117 C1844.84887241 7.55938833 1844.84887241 7.55938833 1846.69651157 7.99867421 C1871.27141703 14.09174192 1895.50743477 22.64212411 1918.53782016 33.12880117 C1919.61821567 33.61961171 1920.69861118 34.11042226 1921.81174594 34.61610585 C1937.62685278 41.86949819 1952.80492557 49.87082457 1967.53782016 59.12880117 C1968.23794223 59.56788808 1968.9380643 60.006975 1969.65940219 60.45936757 C1983.43643849 69.18448347 1996.6183873 78.98942434 2008.45147574 90.22321987 C2011.28583561 92.90385437 2014.17096728 95.52477745 2017.06337386 98.1427601 C2023.84326091 104.32813428 2030.33454958 110.78578831 2036.81646091 117.28045827 C2038.11268093 118.57552339 2039.40911841 119.87037087 2040.7057519 121.16502202 C2044.23605578 124.69118354 2047.76327341 128.22041765 2051.28995007 131.75020641 C2055.10610444 135.56863547 2058.92515022 139.38417085 2062.74381381 143.20009023 C2070.21032357 150.66216589 2077.67414265 158.12692718 2085.13698319 165.59267225 C2091.20268557 171.66063727 2097.26936847 177.72762035 2103.33674556 183.7939108 C2104.20178669 184.6587987 2105.06682782 185.52368659 2105.95808231 186.41478321 C2107.71560256 188.17198372 2109.47312504 189.92918199 2111.23064973 191.68637804 C2127.68849907 208.14137968 2144.1432886 224.59943835 2160.5970244 241.05855308 C2174.7092608 255.17526004 2188.82412098 269.2893383 2202.94089633 283.40150625 C2219.34918627 299.80444336 2235.75585118 316.20900307 2252.15992975 332.61615193 C2253.9092756 334.36581632 2255.65862354 336.11547863 2257.40797359 337.86513883 C2258.26861526 338.72593478 2259.12925694 339.58673073 2260.01597867 340.47361141 C2266.07578652 346.53428206 2272.13675266 352.59379287 2278.19816905 358.65285474 C2285.58360128 366.03548106 2292.96724637 373.4198892 2300.34861354 380.80657997 C2304.11328172 384.57387396 2307.87874079 388.3403682 2311.64637691 392.10469419 C2315.0969948 395.5523263 2318.54528445 399.00226959 2321.99175384 402.45404867 C2323.23694033 403.70034956 2324.48296457 404.94581413 2325.72992305 406.19034209 C2331.877677 412.32703396 2337.94084519 418.47641076 2343.53782016 425.12880117 C2344.33446079 426.04403554 2345.13110141 426.95926992 2345.95188266 427.90223867 C2358.43659329 442.59272856 2369.00831284 458.38892789 2378.53782016 475.12880117 C2379.05844028 476.03839589 2379.57906039 476.94799062 2380.11545688 477.88514882 C2411.09205678 532.38851874 2431.28396512 594.08418103 2431.04575473 657.07618886 C2431.05037657 659.78358842 2431.05657668 662.49094386 2431.06466371 665.19833118 C2431.07895295 671.03065544 2431.07877103 676.86283099 2431.06847507 682.69516164 C2431.05320647 691.36828152 2431.06115089 700.0412783 2431.0733083 708.71439762 C2431.09426615 724.21146308 2431.09258842 739.70846219 2431.08099265 755.20553381 C2431.0708989 768.76292537 2431.06831828 782.32029272 2431.07308322 795.87768728 C2431.07354153 797.23077346 2431.07354153 797.23077346 2431.0740091 798.61119471 C2431.0752546 802.27357918 2431.07652822 805.93596363 2431.07784816 809.59834807 C2431.09005947 843.8898293 2431.07902808 878.18126845 2431.05746057 912.47274318 C2431.03846791 942.90173814 2431.04019036 973.33066615 2431.05930454 1003.75966054 C2431.08074362 1038.00367284 2431.08920607 1072.24764806 2431.07685548 1106.49166614 C2431.07557273 1110.14459114 2431.07432136 1113.79751616 2431.07308322 1117.45044118 C2431.07276691 1118.34978505 2431.0724506 1119.24912892 2431.07212471 1120.17572563 C2431.06758459 1133.72618017 2431.07287738 1147.2766078 2431.08300143 1160.82705861 C2431.09445723 1176.23612591 2431.09153858 1191.64511694 2431.06987846 1207.05417478 C2431.05817013 1215.66645663 2431.05731317 1224.2785731 2431.07246316 1232.89085052 C2431.08148063 1238.65486242 2431.07576473 1244.41874267 2431.05844408 1250.18273517 C2431.04899714 1253.45891691 2431.04777181 1256.73471062 2431.06006801 1260.01089227 C2431.19174391 1298.02669385 2420.09106108 1329.66334732 2394.53782016 1358.12880117 C2393.81981235 1358.9318871 2393.10180454 1359.73497304 2392.36203891 1360.56239492 C2370.20729045 1383.96882408 2336.69437965 1398.20693593 2304.63257043 1399.22065867 C2301.35187184 1399.25734373 2298.07256237 1399.2625573 2294.79166257 1399.25645167 C2292.9036105 1399.25892783 2292.9036105 1399.25892783 2290.97741596 1399.26145403 C2287.48789036 1399.26588724 2283.99839144 1399.26413212 2280.50886516 1399.26135224 C2276.69672938 1399.25942484 2272.88459868 1399.26331519 2269.07246432 1399.26644903 C2262.366836 1399.27115858 2255.66121507 1399.27214835 2248.95558537 1399.27072069 C2238.91674295 1399.26859911 2228.87790816 1399.27221355 2218.83906691 1399.27693546 C2201.72963515 1399.28480907 2184.62020548 1399.28789752 2167.51077205 1399.2883814 C2150.1686696 1399.28888367 2132.82656949 1399.29152941 2115.4844678 1399.29678899 C2113.84218152 1399.29728419 2113.84218152 1399.29728419 2112.16671774 1399.2977894 C2107.70758757 1399.29913938 2103.24845741 1399.30050205 2098.78932725 1399.3018815 C2045.9844042 1399.31818787 1993.1794816 1399.32457072 1940.37455646 1399.32932937 C1914.0801021 1399.33171235 1887.78564799 1399.33541579 1861.49119382 1399.33936647 C1776.47709759 1399.35213248 1691.46300139 1399.36287564 1606.44890422 1399.36628777 C1603.08876503 1399.36642335 1599.72862583 1399.36656238 1596.36848664 1399.36670131 C1590.98142816 1399.36692378 1585.59436967 1399.36714515 1580.20731119 1399.36736519 C1579.53976774 1399.36739246 1578.87222429 1399.36741973 1578.18445225 1399.36744783 C1576.83529683 1399.36750294 1575.4861414 1399.36755805 1574.13698597 1399.36761316 C1564.67315955 1399.36799977 1555.20933313 1399.36838772 1545.74550671 1399.36878229 C1542.35917091 1399.3689234 1538.97283511 1399.36906347 1535.58649932 1399.36920119 C1471.64331027 1399.37180484 1407.70012365 1399.37713098 1343.75693637 1399.39308339 C1343.08398911 1399.39325119 1342.41104185 1399.39341898 1341.71770225 1399.39359186 C1320.69216532 1399.39884248 1299.66662848 1399.40441686 1278.64109164 1399.41005117 C1257.06694954 1399.41583233 1235.49280742 1399.42156297 1213.91866523 1399.4270075 C1213.25435114 1399.4271753 1212.59003704 1399.42734311 1211.90559221 1399.427516 C1170.28540477 1399.43801292 1128.6652177 1399.44486624 1087.04502898 1399.44787389 C1085.75918099 1399.44796738 1084.47333299 1399.44806086 1083.1485199 1399.44815718 C1054.91946218 1399.45017633 1026.6904045 1399.45133229 998.46134671 1399.45168577 C988.36002387 1399.45182194 978.25870103 1399.45203093 968.15737819 1399.45227902 C965.64442903 1399.45234058 963.13147988 1399.4523989 960.61853072 1399.45245397 C920.59003362 1399.45337346 880.56154513 1399.4633378 840.53305086 1399.47791146 C800.20697783 1399.49253467 759.88091538 1399.49756482 719.55484016 1399.48949191 C713.97822365 1399.48837659 708.40160712 1399.48736591 702.82499057 1399.48641759 C701.73185339 1399.48622762 700.63871622 1399.48603766 699.51245367 1399.48584193 C682.22669872 1399.4831118 664.94096337 1399.49043896 647.65521267 1399.50199096 C630.64402148 1399.51314913 613.63285791 1399.51354563 596.62166627 1399.50262077 C586.65819354 1399.49654129 576.69480435 1399.4985737 566.73133956 1399.51287275 C560.0992088 1399.52156204 553.46713899 1399.51920177 546.83501192 1399.50817404 C543.08507528 1399.50223883 539.33530139 1399.50067986 535.5853761 1399.5128589 C512.52780191 1399.58286588 489.62696294 1398.38694523 467.03782016 1393.44130117 C465.25130038 1393.058933 465.25130038 1393.058933 463.4286893 1392.66884023 C450.59049937 1389.83228906 438.03406565 1386.20110065 425.53782016 1382.12880117 C424.42648715 1381.76834707 423.31515414 1381.40789296 422.17014438 1381.03651601 C381.5115265 1367.65171073 340.81942556 1348.29178274 307.53782016 1321.12880117 C306.61227329 1320.39403554 305.68672641 1319.65926992 304.73313266 1318.90223867 C292.71483087 1309.26716952 281.78467211 1298.52340914 270.91750461 1287.63546926 C269.58416145 1286.30328088 268.25060081 1284.97131015 266.91684401 1283.6395359 C263.28392519 1280.01076113 259.6540945 1276.37891149 256.02480334 1272.74650902 C252.09821816 1268.81764984 248.1687424 1264.89168344 244.23964816 1260.96533376 C236.55656684 1253.28668729 228.87617704 1245.60535419 221.19676515 1237.9230381 C214.95514728 1231.67915787 208.7125492 1225.43625921 202.4692567 1219.19405347 C201.57923732 1218.30418732 200.68921794 1217.41432118 199.77222827 1216.49748939 C197.96397503 1214.68955588 196.15571955 1212.88162462 194.34746186 1211.07369556 C177.89546095 1194.62446147 161.44627691 1178.17241337 144.99828239 1161.7191735 C129.99462483 1146.71076759 114.98837987 1131.70495332 99.97995883 1116.70131093 C83.09702714 1099.82373683 66.21572514 1082.94453539 49.33700716 1066.062747 C47.53710847 1064.26252976 45.73720769 1062.46231461 43.93730479 1060.66210157 C43.05178613 1059.77642862 42.16626746 1058.89075568 41.25391489 1057.97824416 C35.0182771 1051.74174351 28.78148085 1045.50640283 22.54423457 1039.2715109 C14.94470537 1031.67478733 7.34696266 1024.07628243 -0.24850134 1016.47549424 C-4.12253368 1012.59883572 -7.99735774 1008.72297751 -11.87435788 1004.84928685 C-15.42489813 1001.30173161 -18.9731118 997.75186635 -22.51950332 994.20016386 C-23.80102857 992.91752388 -25.08339226 991.63572094 -26.3666893 990.35485367 C-32.60813156 984.12432099 -38.80283601 977.90325386 -44.46217984 971.12880117 C-44.96909731 970.5277444 -45.47601479 969.92668764 -45.9982934 969.30741704 C-89.38187192 917.64616474 -117.41343882 849.43259612 -127.46217984 783.12880117 C-127.63593062 781.99863208 -127.8096814 780.868463 -127.98869735 779.70404637 C-129.8048065 766.33836574 -129.74752535 753.04959284 -129.72960538 739.5805071 C-129.73334674 736.90308841 -129.73787132 734.22568122 -129.74333602 731.54826653 C-129.75358238 725.75044621 -129.75648922 719.95265924 -129.7544238 714.15483075 C-129.75135984 705.53277252 -129.75972838 696.9107509 -129.77017305 688.28869981 C-129.7894663 671.99055079 -129.79513948 655.6924144 -129.79628716 639.3942553 C-129.79720783 626.80568004 -129.80133269 614.2171097 -129.80768842 601.62853605 C-129.80948361 597.99912922 -129.81126324 594.36972239 -129.81303817 590.74031556 C-129.81348027 589.83793059 -129.81392236 588.93554563 -129.81437786 588.00581567 C-129.8266775 562.64105563 -129.83457985 537.27629729 -129.8336913 511.91153413 C-129.83366014 510.95618446 -129.83362898 510.00083479 -129.83359688 509.01653514 C-129.83343068 504.17489796 -129.8332326 499.33326078 -129.83302747 494.4916236 C-129.83298758 493.53012948 -129.83294769 492.56863536 -129.83290659 491.57800506 C-129.83282571 489.63363299 -129.83274212 487.68926093 -129.8326558 485.74488886 C-129.83143024 455.49206241 -129.84644821 425.2392808 -129.87380093 394.98646718 C-129.90454883 360.96482765 -129.92173188 326.94321757 -129.91987449 292.92156327 C-129.91972524 289.29121337 -129.91962782 285.66086348 -129.91956586 282.03051358 C-129.91954255 281.13668789 -129.91951924 280.24286219 -129.91949522 279.32195087 C-129.91943379 264.96554545 -129.93218114 250.60917911 -129.94943039 236.2527853 C-129.96641694 221.81614268 -129.968337 207.37955697 -129.95521174 192.94290986 C-129.94784341 184.37753962 -129.95141699 175.81234275 -129.97109642 167.24699102 C-129.98315324 161.51263006 -129.98044255 155.77839379 -129.96615543 150.04403839 C-129.95844022 146.785425 -129.95895548 143.52720831 -129.97307013 140.26860692 C-130.13476428 100.26905795 -118.20554882 66.12328581 -89.96217984 37.19130117 C-71.00270983 18.24068349 -45.87333132 5.63327976 -19.46217984 1.12880117 C-18.49855068 0.95525896 -17.53492152 0.78171675 -16.54209147 0.60291569 C-11.05551083 -0.16556685 -5.52858393 -0.00958658 0 0 Z " fill="#F47D31" transform="translate(129.46217983961105,-0.128801167011261)"/>
<path d="M0 0 C1.26446488 -0.00177501 2.52892975 -0.00355002 3.83171174 -0.00537882 C7.35143556 -0.01017496 10.87113371 -0.00874497 14.39085894 -0.00632112 C18.23061282 -0.0047793 22.07036103 -0.00903555 25.91011301 -0.01254788 C32.66910839 -0.01792414 39.42809682 -0.0195646 46.18709417 -0.01879714 C56.30589159 -0.01766247 66.4246809 -0.02224041 76.5434765 -0.02792798 C93.78800054 -0.03744414 111.03252296 -0.04214782 128.27704936 -0.04423732 C145.75909291 -0.0463649 163.24113395 -0.05062258 180.7231763 -0.05748004 C181.82638644 -0.05791065 182.92959657 -0.05834127 184.06623732 -0.05878493 C188.55930693 -0.06054326 193.05237654 -0.0623129 197.54544614 -0.06409795 C252.03797269 -0.08570504 306.53049973 -0.09657826 361.02302958 -0.10557419 C378.69473787 -0.10850783 396.36644604 -0.11187767 414.03815418 -0.1155414 C415.28471494 -0.11579969 416.53127569 -0.11605798 417.81561101 -0.1163241 C422.85871584 -0.11737032 427.90182067 -0.11841874 432.9449255 -0.11946992 C519.21593401 -0.13743625 605.48694276 -0.15281636 691.75795286 -0.16022895 C697.85683424 -0.16075341 703.95571562 -0.16129072 710.054597 -0.16182742 C712.09134561 -0.16200662 714.12809422 -0.16218559 716.16484283 -0.16236451 C729.10361372 -0.16350157 742.0423846 -0.16464764 754.98115548 -0.1658127 C758.39481317 -0.16612002 761.80847085 -0.16642595 765.22212854 -0.16672861 C829.67652331 -0.1724468 894.13091415 -0.18168251 958.58530551 -0.20414561 C959.60267391 -0.20449995 959.60267391 -0.20449995 960.6405952 -0.20486145 C982.51329545 -0.21248914 1004.38599555 -0.22053802 1026.25869563 -0.22864672 C1047.32022609 -0.23645456 1068.38175657 -0.2441781 1089.44328719 -0.25153655 C1090.11281422 -0.25177064 1090.78234124 -0.25200473 1091.47215697 -0.25224591 C1133.4201399 -0.26688859 1175.36812168 -0.27667935 1217.31610709 -0.28141135 C1219.26013543 -0.28163188 1219.26013543 -0.28163188 1221.24343707 -0.28185687 C1249.69615232 -0.28504188 1278.14886755 -0.28709264 1306.60158295 -0.28808442 C1318.05033818 -0.28849915 1329.4990934 -0.28905405 1340.94784862 -0.28964633 C1342.2008377 -0.289707 1343.45382679 -0.28976766 1344.74478524 -0.28983017 C1385.09048804 -0.29184538 1425.43617502 -0.30607819 1465.78187231 -0.32659133 C1506.4305514 -0.34718517 1547.07921223 -0.35505972 1587.72789601 -0.34551357 C1593.34961122 -0.34419517 1598.97132646 -0.34301711 1604.59304172 -0.34192294 C1605.69501819 -0.34170309 1606.79699466 -0.34148324 1607.93236435 -0.34125673 C1625.35575844 -0.33814682 1642.77911751 -0.34845177 1660.20250349 -0.36439849 C1677.35056566 -0.37981334 1694.49857956 -0.38087406 1711.64664344 -0.36685025 C1721.68950074 -0.35906318 1731.73221024 -0.36208777 1741.77505265 -0.38148742 C1748.46105385 -0.39329682 1755.14694803 -0.39035624 1761.8329436 -0.37587277 C1765.61274424 -0.36808481 1769.39225761 -0.36611334 1773.17203739 -0.38249181 C1796.82643012 -0.47840322 1819.99158144 1.58427752 1843.03782016 7.12880117 C1844.84887241 7.55938833 1844.84887241 7.55938833 1846.69651157 7.99867421 C1871.27141703 14.09174192 1895.50743477 22.64212411 1918.53782016 33.12880117 C1919.61821567 33.61961171 1920.69861118 34.11042226 1921.81174594 34.61610585 C1937.62685278 41.86949819 1952.80492557 49.87082457 1967.53782016 59.12880117 C1968.23794223 59.56788808 1968.9380643 60.006975 1969.65940219 60.45936757 C1983.43643849 69.18448347 1996.6183873 78.98942434 2008.45147574 90.22321987 C2011.28583561 92.90385437 2014.17096728 95.52477745 2017.06337386 98.1427601 C2023.84326091 104.32813428 2030.33454958 110.78578831 2036.81646091 117.28045827 C2038.11268093 118.57552339 2039.40911841 119.87037087 2040.7057519 121.16502202 C2044.23605578 124.69118354 2047.76327341 128.22041765 2051.28995007 131.75020641 C2055.10610444 135.56863547 2058.92515022 139.38417085 2062.74381381 143.20009023 C2070.21032357 150.66216589 2077.67414265 158.12692718 2085.13698319 165.59267225 C2091.20268557 171.66063727 2097.26936847 177.72762035 2103.33674556 183.7939108 C2104.20178669 184.6587987 2105.06682782 185.52368659 2105.95808231 186.41478321 C2107.71560256 188.17198372 2109.47312504 189.92918199 2111.23064973 191.68637804 C2127.68849907 208.14137968 2144.1432886 224.59943835 2160.5970244 241.05855308 C2174.7092608 255.17526004 2188.82412098 269.2893383 2202.94089633 283.40150625 C2219.34918627 299.80444336 2235.75585118 316.20900307 2252.15992975 332.61615193 C2253.9092756 334.36581632 2255.65862354 336.11547863 2257.40797359 337.86513883 C2258.26861526 338.72593478 2259.12925694 339.58673073 2260.01597867 340.47361141 C2266.07578652 346.53428206 2272.13675266 352.59379287 2278.19816905 358.65285474 C2285.58360128 366.03548106 2292.96724637 373.4198892 2300.34861354 380.80657997 C2304.11328172 384.57387396 2307.87874079 388.3403682 2311.64637691 392.10469419 C2315.0969948 395.5523263 2318.54528445 399.00226959 2321.99175384 402.45404867 C2323.23694033 403.70034956 2324.48296457 404.94581413 2325.72992305 406.19034209 C2331.877677 412.32703396 2337.94084519 418.47641076 2343.53782016 425.12880117 C2344.33446079 426.04403554 2345.13110141 426.95926992 2345.95188266 427.90223867 C2358.43659329 442.59272856 2369.00831284 458.38892789 2378.53782016 475.12880117 C2379.05844028 476.03839589 2379.57906039 476.94799062 2380.11545688 477.88514882 C2411.09205678 532.38851874 2431.28396512 594.08418103 2431.04575473 657.07618886 C2431.05037657 659.78358842 2431.05657668 662.49094386 2431.06466371 665.19833118 C2431.07895295 671.03065544 2431.07877103 676.86283099 2431.06847507 682.69516164 C2431.05320647 691.36828152 2431.06115089 700.0412783 2431.0733083 708.71439762 C2431.09426615 724.21146308 2431.09258842 739.70846219 2431.08099265 755.20553381 C2431.0708989 768.76292537 2431.06831828 782.32029272 2431.07308322 795.87768728 C2431.07354153 797.23077346 2431.07354153 797.23077346 2431.0740091 798.61119471 C2431.0752546 802.27357918 2431.07652822 805.93596363 2431.07784816 809.59834807 C2431.09005947 843.8898293 2431.07902808 878.18126845 2431.05746057 912.47274318 C2431.03846791 942.90173814 2431.04019036 973.33066615 2431.05930454 1003.75966054 C2431.08074362 1038.00367284 2431.08920607 1072.24764806 2431.07685548 1106.49166614 C2431.07557273 1110.14459114 2431.07432136 1113.79751616 2431.07308322 1117.45044118 C2431.07276691 1118.34978505 2431.0724506 1119.24912892 2431.07212471 1120.17572563 C2431.06758459 1133.72618017 2431.07287738 1147.2766078 2431.08300143 1160.82705861 C2431.09445723 1176.23612591 2431.09153858 1191.64511694 2431.06987846 1207.05417478 C2431.05817013 1215.66645663 2431.05731317 1224.2785731 2431.07246316 1232.89085052 C2431.08148063 1238.65486242 2431.07576473 1244.41874267 2431.05844408 1250.18273517 C2431.04899714 1253.45891691 2431.04777181 1256.73471062 2431.06006801 1260.01089227 C2431.19174391 1298.02669385 2420.09106108 1329.66334732 2394.53782016 1358.12880117 C2393.81981235 1358.9318871 2393.10180454 1359.73497304 2392.36203891 1360.56239492 C2370.20729045 1383.96882408 2336.69437965 1398.20693593 2304.63257043 1399.22065867 C2301.35187184 1399.25734373 2298.07256237 1399.2625573 2294.79166257 1399.25645167 C2292.9036105 1399.25892783 2292.9036105 1399.25892783 2290.97741596 1399.26145403 C2287.48789036 1399.26588724 2283.99839144 1399.26413212 2280.50886516 1399.26135224 C2276.69672938 1399.25942484 2272.88459868 1399.26331519 2269.07246432 1399.26644903 C2262.366836 1399.27115858 2255.66121507 1399.27214835 2248.95558537 1399.27072069 C2238.91674295 1399.26859911 2228.87790816 1399.27221355 2218.83906691 1399.27693546 C2201.72963515 1399.28480907 2184.62020548 1399.28789752 2167.51077205 1399.2883814 C2150.1686696 1399.28888367 2132.82656949 1399.29152941 2115.4844678 1399.29678899 C2113.84218152 1399.29728419 2113.84218152 1399.29728419 2112.16671774 1399.2977894 C2107.70758757 1399.29913938 2103.24845741 1399.30050205 2098.78932725 1399.3018815 C2045.9844042 1399.31818787 1993.1794816 1399.32457072 1940.37455646 1399.32932937 C1914.0801021 1399.33171235 1887.78564799 1399.33541579 1861.49119382 1399.33936647 C1776.47709759 1399.35213248 1691.46300139 1399.36287564 1606.44890422 1399.36628777 C1603.08876503 1399.36642335 1599.72862583 1399.36656238 1596.36848664 1399.36670131 C1590.98142816 1399.36692378 1585.59436967 1399.36714515 1580.20731119 1399.36736519 C1579.53976774 1399.36739246 1578.87222429 1399.36741973 1578.18445225 1399.36744783 C1576.83529683 1399.36750294 1575.4861414 1399.36755805 1574.13698597 1399.36761316 C1564.67315955 1399.36799977 1555.20933313 1399.36838772 1545.74550671 1399.36878229 C1542.35917091 1399.3689234 1538.97283511 1399.36906347 1535.58649932 1399.36920119 C1471.64331027 1399.37180484 1407.70012365 1399.37713098 1343.75693637 1399.39308339 C1343.08398911 1399.39325119 1342.41104185 1399.39341898 1341.71770225 1399.39359186 C1320.69216532 1399.39884248 1299.66662848 1399.40441686 1278.64109164 1399.41005117 C1257.06694954 1399.41583233 1235.49280742 1399.42156297 1213.91866523 1399.4270075 C1213.25435114 1399.4271753 1212.59003704 1399.42734311 1211.90559221 1399.427516 C1170.28540477 1399.43801292 1128.6652177 1399.44486624 1087.04502898 1399.44787389 C1085.75918099 1399.44796738 1084.47333299 1399.44806086 1083.1485199 1399.44815718 C1054.91946218 1399.45017633 1026.6904045 1399.45133229 998.46134671 1399.45168577 C988.36002387 1399.45182194 978.25870103 1399.45203093 968.15737819 1399.45227902 C965.64442903 1399.45234058 963.13147988 1399.4523989 960.61853072 1399.45245397 C920.59003362 1399.45337346 880.56154513 1399.4633378 840.53305086 1399.47791146 C800.20697783 1399.49253467 759.88091538 1399.49756482 719.55484016 1399.48949191 C713.97822365 1399.48837659 708.40160712 1399.48736591 702.82499057 1399.48641759 C701.73185339 1399.48622762 700.63871622 1399.48603766 699.51245367 1399.48584193 C682.22669872 1399.4831118 664.94096337 1399.49043896 647.65521267 1399.50199096 C630.64402148 1399.51314913 613.63285791 1399.51354563 596.62166627 1399.50262077 C586.65819354 1399.49654129 576.69480435 1399.4985737 566.73133956 1399.51287275 C560.0992088 1399.52156204 553.46713899 1399.51920177 546.83501192 1399.50817404 C543.08507528 1399.50223883 539.33530139 1399.50067986 535.5853761 1399.5128589 C512.52780191 1399.58286588 489.62696294 1398.38694523 467.03782016 1393.44130117 C465.25130038 1393.058933 465.25130038 1393.058933 463.4286893 1392.66884023 C450.59049937 1389.83228906 438.03406565 1386.20110065 425.53782016 1382.12880117 C424.42648715 1381.76834707 423.31515414 1381.40789296 422.17014438 1381.03651601 C381.5115265 1367.65171073 340.81942556 1348.29178274 307.53782016 1321.12880117 C306.61227329 1320.39403554 305.68672641 1319.65926992 304.73313266 1318.90223867 C292.71483087 1309.26716952 281.78467211 1298.52340914 270.91750461 1287.63546926 C269.58416145 1286.30328088 268.25060081 1284.97131015 266.91684401 1283.6395359 C263.28392519 1280.01076113 259.6540945 1276.37891149 256.02480334 1272.74650902 C252.09821816 1268.81764984 248.1687424 1264.89168344 244.23964816 1260.96533376 C236.55656684 1253.28668729 228.87617704 1245.60535419 221.19676515 1237.9230381 C214.95514728 1231.67915787 208.7125492 1225.43625921 202.4692567 1219.19405347 C201.57923732 1218.30418732 200.68921794 1217.41432118 199.77222827 1216.49748939 C197.96397503 1214.68955588 196.15571955 1212.88162462 194.34746186 1211.07369556 C177.89546095 1194.62446147 161.44627691 1178.17241337 144.99828239 1161.7191735 C129.99462483 1146.71076759 114.98837987 1131.70495332 99.97995883 1116.70131093 C83.09702714 1099.82373683 66.21572514 1082.94453539 49.33700716 1066.062747 C47.53710847 1064.26252976 45.73720769 1062.46231461 43.93730479 1060.66210157 C43.05178613 1059.77642862 42.16626746 1058.89075568 41.25391489 1057.97824416 C35.0182771 1051.74174351 28.78148085 1045.50640283 22.54423457 1039.2715109 C14.94470537 1031.67478733 7.34696266 1024.07628243 -0.24850134 1016.47549424 C-4.12253368 1012.59883572 -7.99735774 1008.72297751 -11.87435788 1004.84928685 C-15.42489813 1001.30173161 -18.9731118 997.75186635 -22.51950332 994.20016386 C-23.80102857 992.91752388 -25.08339226 991.63572094 -26.3666893 990.35485367 C-32.60813156 984.12432099 -38.80283601 977.90325386 -44.46217984 971.12880117 C-44.96909731 970.5277444 -45.47601479 969.92668764 -45.9982934 969.30741704 C-89.38187192 917.64616474 -117.41343882 849.43259612 -127.46217984 783.12880117 C-127.63593062 781.99863208 -127.8096814 780.868463 -127.98869735 779.70404637 C-129.8048065 766.33836574 -129.74752535 753.04959284 -129.72960538 739.5805071 C-129.73334674 736.90308841 -129.73787132 734.22568122 -129.74333602 731.54826653 C-129.75358238 725.75044621 -129.75648922 719.95265924 -129.7544238 714.15483075 C-129.75135984 705.53277252 -129.75972838 696.9107509 -129.77017305 688.28869981 C-129.7894663 671.99055079 -129.79513948 655.6924144 -129.79628716 639.3942553 C-129.79720783 626.80568004 -129.80133269 614.2171097 -129.80768842 601.62853605 C-129.80948361 597.99912922 -129.81126324 594.36972239 -129.81303817 590.74031556 C-129.81348027 589.83793059 -129.81392236 588.93554563 -129.81437786 588.00581567 C-129.8266775 562.64105563 -129.83457985 537.27629729 -129.8336913 511.91153413 C-129.83366014 510.95618446 -129.83362898 510.00083479 -129.83359688 509.01653514 C-129.83343068 504.17489796 -129.8332326 499.33326078 -129.83302747 494.4916236 C-129.83298758 493.53012948 -129.83294769 492.56863536 -129.83290659 491.57800506 C-129.83282571 489.63363299 -129.83274212 487.68926093 -129.8326558 485.74488886 C-129.83143024 455.49206241 -129.84644821 425.2392808 -129.87380093 394.98646718 C-129.90454883 360.96482765 -129.92173188 326.94321757 -129.91987449 292.92156327 C-129.91972524 289.29121337 -129.91962782 285.66086348 -129.91956586 282.03051358 C-129.91954255 281.13668789 -129.91951924 280.24286219 -129.91949522 279.32195087 C-129.91943379 264.96554545 -129.93218114 250.60917911 -129.94943039 236.2527853 C-129.96641694 221.81614268 -129.968337 207.37955697 -129.95521174 192.94290986 C-129.94784341 184.37753962 -129.95141699 175.81234275 -129.97109642 167.24699102 C-129.98315324 161.51263006 -129.98044255 155.77839379 -129.96615543 150.04403839 C-129.95844022 146.785425 -129.95895548 143.52720831 -129.97307013 140.26860692 C-130.13476428 100.26905795 -118.20554882 66.12328581 -89.96217984 37.19130117 C-71.00270983 18.24068349 -45.87333132 5.63327976 -19.46217984 1.12880117 C-18.49855068 0.95525896 -17.53492152 0.78171675 -16.54209147 0.60291569 C-11.05551083 -0.16556685 -5.52858393 -0.00958658 0 0 Z M-90.95436734 55.06630117 C-113.68675592 82.82672585 -118.77370054 113.09128694 -118.7363345 148.03193837 C-118.7407917 150.66394245 -118.74602957 153.29593467 -118.75220323 155.92793423 C-118.76399282 161.63312409 -118.76841826 167.33828207 -118.76788205 173.04348356 C-118.76708548 181.52864115 -118.77767318 190.01375876 -118.79029762 198.49890563 C-118.81498291 215.42583165 -118.82381498 232.35274782 -118.82883411 249.27968938 C-118.82909528 250.15549759 -118.82935646 251.0313058 -118.82962555 251.93365365 C-118.82988582 252.81133359 -118.8301461 253.68901353 -118.83041426 254.59328983 C-118.83350275 264.34145405 -118.84000989 274.08961557 -118.84662694 283.83777791 C-118.86627259 313.31698773 -118.88267699 342.79619464 -118.88550347 372.27541143 C-118.88559753 373.21755197 -118.88569159 374.15969251 -118.8857885 375.13038276 C-118.88616696 378.94804241 -118.88653096 382.76570206 -118.88689148 386.58336172 C-118.8871632 389.45641836 -118.88743988 392.329475 -118.88771695 395.20253164 C-118.88780497 396.15190594 -118.88789299 397.10128025 -118.88798368 398.07942347 C-118.89088523 427.86886118 -118.91294802 457.65823383 -118.94924039 487.44764882 C-118.99007237 520.96365012 -119.01366284 554.4796071 -119.01396298 587.99563462 C-119.01405979 591.57825945 -119.0142265 595.16088428 -119.0144431 598.74350911 C-119.01448721 599.62555126 -119.01453133 600.50759341 -119.01457678 601.41636411 C-119.01569135 615.54119014 -119.03302316 629.66595042 -119.05626242 643.79075537 C-119.07923974 658.02179124 -119.08324416 672.25273942 -119.06871312 686.48378709 C-119.06133721 694.1762173 -119.06168681 701.86844062 -119.08512372 709.56084424 C-119.25655574 754.07569948 -119.25655574 754.07569948 -113.46217984 798.12880117 C-113.27309863 799.1149933 -113.08401742 800.10118544 -112.88920647 801.11726218 C-111.01807279 810.84435811 -108.39025281 820.28282549 -105.26637906 829.68397695 C-104.33272572 832.52235114 -103.43164771 835.37039293 -102.52858609 838.21864492 C-92.45541382 869.63258173 -79.085684 900.17302896 -61.46217984 928.12880117 C-60.87388394 929.06393544 -60.87388394 929.06393544 -60.27370328 930.01796132 C-51.47748583 943.86678937 -41.67142901 957.13576846 -30.36776114 969.04245675 C-27.68712663 971.87681662 -25.06620356 974.76194829 -22.44822091 977.65435487 C-16.26284672 984.43424191 -9.80519269 990.92553059 -3.31052274 997.40744191 C-2.01545762 998.70366193 -0.72061013 1000.00009941 0.57404101 1001.2967329 C4.10020253 1004.82703678 7.62943664 1008.35425442 11.1592254 1011.88093108 C14.97765446 1015.69708544 18.79318985 1019.51613123 22.60910922 1023.33479482 C30.07118489 1030.80130457 37.53594617 1038.26512366 45.00169124 1045.7279642 C51.06965626 1051.79366657 57.13663934 1057.86034947 63.20292979 1063.92772657 C64.06781769 1064.7927677 64.93270559 1065.65780882 65.82380221 1066.54906332 C67.58100271 1068.30658356 69.33820098 1070.06410604 71.09539703 1071.82163074 C87.55039868 1088.27948008 104.00845735 1104.73426961 120.46757207 1121.18800541 C134.58427904 1135.30024181 148.6983573 1149.41510199 162.81052524 1163.53187734 C179.21346235 1179.94016728 195.61802207 1196.34683218 212.02517092 1212.75091076 C213.77483531 1214.50025661 215.52449762 1216.24960455 217.27415782 1217.99895459 C218.56535175 1219.28991711 218.56535175 1219.28991711 219.8826304 1220.60695967 C225.94330105 1226.66676753 232.00281186 1232.72773367 238.06187373 1238.78915006 C245.44450005 1246.17458229 252.82890819 1253.55822738 260.21559896 1260.93959454 C263.98289295 1264.70426273 267.74938719 1268.4697218 271.51371318 1272.23735791 C274.96134529 1275.68797581 278.41128859 1279.13626546 281.86306766 1282.58273485 C283.10936855 1283.82792133 284.35483313 1285.07394557 285.59936108 1286.32090405 C291.73492055 1292.46752355 297.87416599 1298.54701034 304.53782016 1304.12880117 C305.18943974 1304.68075762 305.84105932 1305.23271408 306.51242495 1305.80139649 C315.75911244 1313.61316465 325.2743841 1320.71536968 335.53782016 1327.12880117 C336.64286899 1327.82223623 336.64286899 1327.82223623 337.77024204 1328.52968007 C377.50253368 1353.30033234 420.23221653 1371.10254718 465.85032016 1381.50770742 C467.99158926 1382.00256467 470.12553854 1382.5290663 472.25657016 1383.06630117 C494.26640885 1388.40201964 517.28929651 1388.58030768 539.80462259 1388.51616956 C543.62564295 1388.50873548 547.44662863 1388.51908951 551.26764259 1388.52694005 C557.9609021 1388.53833328 564.65409041 1388.53881791 571.34735497 1388.53184462 C581.36735988 1388.52145904 591.38730302 1388.52855245 601.40730538 1388.53882467 C618.49157876 1388.5558306 635.57582796 1388.55870193 652.66010791 1388.55370885 C669.95917744 1388.54869872 687.25822818 1388.55021626 704.5572961 1388.55959111 C705.6522611 1388.56017959 706.7472261 1388.56076807 707.87537186 1388.56137438 C712.33540817 1388.56379108 716.79544446 1388.56625118 721.25548072 1388.56876704 C766.46925073 1388.59423858 811.6830088 1388.60025601 856.89678501 1388.59835589 C863.13854648 1388.59809626 869.38030795 1388.59785759 875.62206942 1388.59764081 C876.86190313 1388.59759677 878.10173684 1388.59755273 879.37914126 1388.59750736 C906.88031708 1388.5966432 934.38149103 1388.60143877 961.88266612 1388.60732272 C968.16588168 1388.60866369 974.44909724 1388.6099636 980.7323128 1388.61126837 C983.25408795 1388.6117929 985.77586311 1388.61231749 988.29763826 1388.61284214 C990.17265883 1388.61323181 990.17265883 1388.61323181 992.0855586 1388.61362935 C994.61403089 1388.61415554 997.14250317 1388.61468321 999.67097545 1388.61521237 C1070.72135804 1388.63006382 1141.77173962 1388.63907318 1212.82212374 1388.63438849 C1214.83303838 1388.63425615 1216.84395303 1388.6341258 1218.85486767 1388.63399599 C1232.98143785 1388.63308199 1247.10800802 1388.63209534 1261.23457819 1388.6310822 C1263.25903489 1388.63093707 1265.28349159 1388.63079232 1267.30794829 1388.6306477 C1267.97629832 1388.63059993 1268.64464836 1388.63055217 1269.33325143 1388.63050296 C1270.68384786 1388.63040645 1272.03444429 1388.63030998 1273.38504072 1388.63021355 C1276.76338828 1388.62997206 1280.14173583 1388.62972883 1283.52008338 1388.6294822 C1347.33632256 1388.62483164 1411.15255309 1388.62517801 1474.9687894 1388.64698964 C1475.64082303 1388.64721928 1476.31285666 1388.64744893 1477.00525495 1388.64768553 C1497.32811795 1388.65464898 1517.65098071 1388.66225557 1537.97384341 1388.67001883 C1560.197565 1388.67850804 1582.42128661 1388.68692757 1604.64500839 1388.69489461 C1605.30852595 1388.69513291 1605.97204351 1388.69537121 1606.65566766 1388.69561672 C1648.22214763 1388.71052472 1689.78862585 1388.71933498 1731.35510856 1388.72146016 C1732.63913955 1388.72152648 1733.92317053 1388.7215928 1735.24611155 1388.72166112 C1763.43384535 1388.72305519 1791.62157898 1388.7229439 1819.80931277 1388.72145103 C1829.89519208 1388.72092894 1839.9810714 1388.72051176 1850.06695073 1388.72014286 C1852.57598761 1388.72004965 1855.08502449 1388.71995051 1857.59406138 1388.71984542 C1897.55705552 1388.71822098 1937.52002856 1388.73103767 1977.48301723 1388.7510032 C2017.7288507 1388.77099202 2057.97465272 1388.77470472 2098.22048791 1388.75637745 C2103.78450768 1388.75384374 2109.34852752 1388.75148127 2114.91254741 1388.74921972 C2116.00321121 1388.74876933 2117.093875 1388.74831895 2118.21758922 1388.74785492 C2135.46939105 1388.74118319 2152.72114053 1388.75125192 2169.97293348 1388.7683311 C2186.94686757 1388.78478221 2203.92072247 1388.78331092 2220.89465312 1388.76293273 C2230.83811425 1388.75152529 2240.78134515 1388.75364673 2250.72478865 1388.7761479 C2257.34095835 1388.78974079 2263.95695594 1388.78497246 2270.57311103 1388.76571548 C2274.31563668 1388.75532297 2278.05771056 1388.75228108 2281.80020889 1388.77203338 C2306.89760727 1388.89534255 2329.81528048 1386.30325529 2352.53782016 1375.12880117 C2354.11756625 1374.37083242 2354.11756625 1374.37083242 2355.72922641 1373.59755117 C2382.61737695 1359.82837024 2403.71647424 1334.53157958 2413.24094516 1306.02430898 C2417.08696287 1293.98947856 2419.84777166 1282.54619481 2419.79229575 1269.84251291 C2419.79710547 1268.1944421 2419.79710547 1268.1944421 2419.80201235 1266.51307693 C2419.81030637 1262.83547778 2419.80438999 1259.15804174 2419.79851657 1255.48043996 C2419.80153756 1252.81532563 2419.80534605 1250.1502229 2419.81010914 1247.48511219 C2419.81885888 1241.69240441 2419.82018761 1235.89973199 2419.81660587 1230.10701925 C2419.81129335 1221.49229519 2419.81739989 1212.87760529 2419.8256888 1204.26288494 C2419.84092711 1187.97785187 2419.84263384 1171.69283435 2419.84016577 1155.40779565 C2419.8383322 1142.82575329 2419.84009407 1130.24371603 2419.84439021 1117.66167432 C2419.84499262 1115.85315053 2419.84559382 1114.04462673 2419.84619382 1112.23610293 C2419.84710109 1109.51065546 2419.84800976 1106.78520799 2419.84892617 1104.05976053 C2419.8573562 1078.71752071 2419.86169127 1053.3752828 2419.85751945 1028.03304178 C2419.85736307 1027.07768851 2419.8572067 1026.12233525 2419.85704558 1025.13803189 C2419.85623982 1020.29611935 2419.85539405 1015.45420682 2419.85453228 1010.61229429 C2419.85436119 1009.65071033 2419.8541901 1008.68912636 2419.85401383 1007.69840349 C2419.85366717 1005.75384365 2419.85331864 1003.80928381 2419.85296824 1001.86472397 C2419.84761559 971.63315808 2419.85552827 941.40162138 2419.8740018 911.17006093 C2419.89474382 877.18653287 2419.90543994 843.20302289 2419.90142632 809.21948814 C2419.90103099 805.59150309 2419.90066944 801.96351803 2419.90032893 798.33553296 C2419.9002382 797.44226718 2419.90014747 796.54900141 2419.90005399 795.62866697 C2419.89889044 782.17306963 2419.9055181 768.71749062 2419.91614085 755.26189786 C2419.92822223 739.94331077 2419.92971847 724.62476388 2419.91735069 709.30617616 C2419.91074774 700.74594542 2419.9122934 692.18581095 2419.9259392 683.62558802 C2419.93423848 677.89057382 2419.93141579 672.15563105 2419.91996393 666.42062255 C2419.91376091 663.1640242 2419.9136655 659.90764675 2419.92382727 656.65105311 C2419.98867931 634.29996891 2417.72198494 612.87104402 2412.53782016 591.12880117 C2412.19025668 589.64500966 2412.19025668 589.64500966 2411.83567172 588.13124257 C2395.82769712 520.58665475 2362.73500327 460.14781577 2313.78115207 411.23169118 C2312.42024628 409.86819536 2311.05955311 408.50448728 2309.69905198 407.14058769 C2305.99064568 403.42418379 2302.27917437 399.71085461 2298.56713837 395.99807662 C2294.5523159 391.981391 2290.54034093 387.96186277 2286.52794772 383.94275075 C2277.77037117 375.1716448 2269.00906577 366.40427 2260.24692827 357.63772064 C2254.77050209 352.15852447 2249.29481062 346.67859444 2243.81924754 341.19853574 C2228.64120202 326.0083076 2213.46223503 310.81900206 2198.27977401 295.63318712 C2197.30007341 294.65326489 2196.32037289 293.67334259 2195.34067245 292.69342021 C2194.35872576 291.71125287 2193.37677898 290.72908562 2192.39483213 289.74691844 C2190.42515881 287.77680259 2188.45548778 285.80668444 2186.48581821 283.83656484 C2185.75328464 283.10386718 2185.75328464 283.10386718 2185.00595241 282.35636756 C2169.16639319 266.51317663 2153.3329945 250.66384803 2137.50327244 234.8108287 C2120.73743044 218.02035712 2103.96612202 201.23536767 2087.18856061 184.45660579 C2078.05418092 175.32131085 2068.9222162 166.18363095 2059.79647762 157.03970319 C2052.02870476 149.25650143 2044.255775 141.47849584 2036.47616317 133.70712685 C2032.51115053 129.74600996 2028.54855858 125.78255143 2024.59254199 121.81244832 C2020.96387741 118.17098158 2017.32822276 114.53664285 2013.68711863 110.90761567 C2012.37840147 109.60084452 2011.07216036 108.29158734 2009.76881035 106.97946303 C2001.49606315 98.65460539 1992.91819742 91.18239525 1983.53782016 84.12880117 C1982.05059713 82.9871917 1980.56354854 81.84535484 1979.07688266 80.70301992 C1917.89287539 35.10274964 1840.7262001 10.73152292 1764.92097181 10.86884143 C1761.08875974 10.87351149 1757.2565644 10.86640192 1753.42435586 10.86090779 C1746.70204847 10.85285319 1739.97977205 10.85212465 1733.25746159 10.85631968 C1723.19394402 10.86256516 1713.13045458 10.85722021 1703.06693903 10.84972227 C1685.91103111 10.83728144 1668.75513329 10.83430609 1651.59922153 10.83655721 C1634.22184931 10.83880865 1616.84448566 10.83672913 1599.46711475 10.82941228 C1597.81868241 10.82872332 1597.81868241 10.82872332 1596.1369484 10.82802044 C1591.66083206 10.8261371 1587.18471573 10.82422572 1582.70859941 10.82227806 C1536.05333897 10.8020071 1489.39808334 10.7958668 1442.742819 10.79469384 C1437.72378005 10.79456435 1432.7047411 10.79442847 1427.68570215 10.79428703 C1426.44019309 10.79425302 1425.19468404 10.79421901 1423.91143228 10.79418397 C1396.29720361 10.79336666 1368.68297584 10.7889856 1341.06874765 10.78397534 C1329.69444139 10.78191862 1318.32013512 10.77993854 1306.94582886 10.77794284 C1305.68903995 10.77772166 1304.43225105 10.77750048 1303.13737763 10.7772726 C1231.80783404 10.76474575 1160.47829076 10.75635115 1089.14874604 10.7572642 C1087.12941623 10.75728971 1085.11008643 10.75731364 1083.09075662 10.75733703 C1068.90473474 10.7575017 1054.71871285 10.75770712 1040.53269097 10.75792279 C1036.46540456 10.75798433 1032.39811815 10.75804445 1028.33083174 10.75810442 C1024.93819069 10.7581546 1021.54554964 10.75820618 1018.15290859 10.75826064 C954.06681381 10.7592836 889.98072407 10.75644346 825.89463168 10.73756582 C824.88235265 10.73726774 824.88235265 10.73726774 823.84962354 10.73696364 C802.76310433 10.73074069 781.67658528 10.72400778 760.59006625 10.71718007 C738.95262975 10.71017706 717.31519324 10.70323604 695.67775661 10.69665128 C694.6783699 10.6963467 694.6783699 10.6963467 693.65879357 10.69603597 C651.92636194 10.68333572 610.19393122 10.67550223 568.4614976 10.67293531 C566.52800214 10.67281545 566.52800214 10.67281545 564.55544615 10.67269318 C536.25979656 10.67098668 507.96414706 10.67046422 479.66849742 10.67103393 C469.54415397 10.6712269 459.41981051 10.67133099 449.29546705 10.67139139 C446.77681177 10.67140722 444.25815649 10.67142763 441.73950122 10.67145264 C401.60682761 10.67180529 361.47416813 10.66040934 321.34149858 10.64314501 C280.9277117 10.62584804 240.51394438 10.6214603 200.10015537 10.63466765 C194.51534476 10.63649223 188.93053412 10.63817879 183.34572345 10.63978368 C181.70357922 10.64026394 181.70357922 10.64026394 180.02826035 10.64075391 C162.6972379 10.64545901 145.36624929 10.63674689 128.0352332 10.62244131 C110.99175706 10.60865404 93.94833087 10.60915435 76.90485583 10.62482558 C66.91491453 10.63358509 56.92512037 10.63145305 46.93519128 10.61309201 C40.29455572 10.60198442 33.65402963 10.60547331 27.01340245 10.62065758 C23.25289825 10.62885306 19.49268291 10.63103455 15.73219673 10.6151562 C-27.24826352 10.44591001 -61.76749769 22.12814106 -90.95436734 55.06630117 Z " fill="#FEFDFC" transform="translate(129.46217983961105,-0.128801167011261)"/>
<path d="M0 0 C48.57859058 -0.08060607 48.57859058 -0.08060607 68.92578125 -0.09765625 C82.9783677 -0.1095263 97.03093018 -0.1234853 111.08349609 -0.15087891 C121.31761951 -0.17081945 131.55172348 -0.18371803 141.78586578 -0.18817699 C147.2042532 -0.19078323 152.622585 -0.19690456 158.04095459 -0.21146011 C163.14294276 -0.22505447 168.24485251 -0.22921887 173.34685707 -0.22621536 C175.21729267 -0.22676469 177.08773095 -0.23073106 178.95815086 -0.23841095 C181.51719937 -0.2484012 184.07595407 -0.24595404 186.63500977 -0.24050903 C187.37044195 -0.24633472 188.10587414 -0.2521604 188.86359215 -0.25816262 C200.46228367 -0.19172455 211.45785259 4.23028957 219.875 12.25 C226.66922473 19.59810174 230.63939313 27.31981357 233 37 C233.185625 37.62777344 233.37125 38.25554688 233.5625 38.90234375 C236.24736205 51.7752984 232.72821252 64.07020328 226 75 C223.19116376 78.5374081 220.18632682 81.80153479 217 85 C216.41605469 85.58652344 215.83210937 86.17304687 215.23046875 86.77734375 C214.82441406 87.18082031 214.41835938 87.58429688 214 88 C214.64066406 88.42410156 215.28132812 88.84820313 215.94140625 89.28515625 C227.34754921 97.0195751 236.30273379 105.87965402 239.515625 119.76953125 C241.78210676 134.88550236 239.92755934 147.47460591 230.8125 160.0078125 C228.6579987 162.51391644 226.4417281 164.77521987 224 167 C223.36320313 167.58136719 222.72640625 168.16273438 222.0703125 168.76171875 C212.32729975 176.78656535 201.02055554 179.16843401 188.67933655 179.12025452 C187.46367536 179.12153615 187.46367536 179.12153615 186.22345537 179.12284368 C183.52272666 179.12448359 180.82206082 179.1190016 178.12133789 179.11352539 C176.17944337 179.11324317 174.23754875 179.11340193 172.2956543 179.1139679 C167.03383056 179.11425451 161.77202967 179.10837964 156.51021123 179.10139394 C151.00757669 179.09513788 145.50494162 179.09455482 140.00230408 179.09336853 C129.58669617 179.09026186 119.17109877 179.08205741 108.75549549 179.07201904 C94.67776229 179.05874602 80.60002621 179.05335263 66.52228832 179.04751682 C44.34818434 179.03811709 22.17410254 179.01819372 0 179 C0 119.93 0 60.86 0 0 Z " fill="#FEFEFE" transform="translate(275,610)"/>
<path d="M0 0 C0.96095581 -0.00241196 1.92191162 -0.00482391 2.9119873 -0.00730896 C4.92883461 -0.00633637 6.94571059 0.00691528 8.96240234 0.03198242 C12.02404804 0.06632546 15.08280519 0.05259979 18.14453125 0.03320312 C20.11719961 0.04010246 22.08986062 0.04977563 24.0625 0.0625 C25.414505 0.0550602 25.414505 0.0550602 26.79382324 0.04747009 C34.7407787 0.19247575 41.8882254 2.31792711 48.21875 7.25390625 C51.38275971 10.76957382 52.95121623 14.73296917 54.5859375 19.10546875 C54.8805336 19.87828186 55.1751297 20.65109497 55.47865295 21.44732666 C59.87847237 33.071764 64.067421 44.77603871 68.28039551 56.46911621 C69.4205084 59.63227744 70.56282958 62.79464073 71.70507812 65.95703125 C73.0438039 69.66371579 74.38237897 73.37045375 75.72006226 77.07751465 C79.63840865 87.93479757 83.57939458 98.78377993 87.53125 109.62890625 C89.93907525 107.221081 90.53865268 105.28113668 91.69506836 102.07885742 C92.11988998 100.91130417 92.54471161 99.74375092 92.98240662 98.54081726 C93.44534425 97.25118489 93.90823868 95.96153701 94.37109375 94.671875 C94.85699893 93.33153161 95.34346489 91.99139139 95.83045959 90.65144348 C97.12155971 87.09520215 98.40628713 83.53669373 99.68933105 79.97753906 C105.6662001 63.40518361 111.64581867 46.83145408 117.82409859 30.33291054 C118.5150291 28.48356001 119.19865846 26.63148684 119.88206482 24.77934265 C122.5335578 17.74232612 124.98986606 11.42908302 130.84375 6.44140625 C131.64232422 5.73951172 131.64232422 5.73951172 132.45703125 5.0234375 C138.79174124 0.76450818 144.24532873 0.16179551 151.70703125 0.16015625 C152.6722319 0.15254272 153.63743256 0.1449292 154.63188171 0.13708496 C156.66658961 0.12631958 158.70135261 0.1234163 160.73608398 0.12792969 C163.82435878 0.12890016 166.91013126 0.08727523 169.99804688 0.04296875 C171.98436988 0.03775938 173.97070142 0.0350736 175.95703125 0.03515625 C176.86777908 0.01876099 177.77852692 0.00236572 178.71687317 -0.01452637 C186.69452705 0.07006424 192.97914852 2.72793515 199.15234375 7.76953125 C200.05146484 8.81367187 200.05146484 8.81367187 200.96875 9.87890625 C201.58621094 10.5646875 202.20367188 11.25046875 202.83984375 11.95703125 C206.79110514 18.1987467 208.147147 25.76481491 209.84375 32.87890625 C211.56284628 39.92924362 213.43372975 46.91340957 215.46875 53.87890625 C217.96119606 62.428548 220.15821583 71.02915094 222.27880859 79.67773438 C224.12907862 87.1657156 226.19167095 94.57281054 228.3515625 101.9765625 C230.28559585 108.64948386 231.98965476 115.36176639 233.63696289 122.11035156 C235.1280504 128.16021199 236.7905385 134.14645464 238.53125 140.12890625 C241.23800193 149.43662348 243.65355807 158.79899376 245.94042969 168.21801758 C246.79162316 171.69137938 247.66390881 175.1595415 248.53125 178.62890625 C228.73125 178.62890625 208.93125 178.62890625 188.53125 178.62890625 C185.96347273 170.28363011 183.60368924 162.17396907 181.71875 153.69140625 C181.19843475 151.39311181 180.67758049 149.09493936 180.15625 146.796875 C179.88941406 145.61528809 179.62257813 144.43370117 179.34765625 143.21630859 C178.00236403 137.3049079 176.60668376 131.40541016 175.21875 125.50390625 C173.15115104 116.6937026 171.12959132 107.87474937 169.15625 99.04296875 C168.95393265 98.13843964 168.7516153 97.23391052 168.54316711 96.30197144 C167.54142995 91.82063001 166.54363694 87.33846001 165.55151367 82.85498047 C165.18417721 81.20668451 164.81674985 79.55840882 164.44921875 77.91015625 C164.28490356 77.16142242 164.12058838 76.4126886 163.95129395 75.64126587 C163.0331989 71.53897566 161.88807296 67.60471409 160.53125 63.62890625 C160.28529587 64.30270325 160.03934174 64.97650024 159.78593445 65.67071533 C156.59699609 74.40682392 153.4079241 83.14288372 150.21875 91.87890625 C149.96183758 92.5826601 149.70492516 93.28641396 149.44022751 94.01149368 C139.14263037 122.21927109 128.83822335 150.42455283 118.53125 178.62890625 C98.73125 178.62890625 78.93125 178.62890625 58.53125 178.62890625 C52.90668203 165.12994311 52.90668203 165.12994311 51.07446289 160.08642578 C50.65910278 158.94744843 50.24374268 157.80847107 49.8157959 156.63497925 C49.38287231 155.43930328 48.94994873 154.24362732 48.50390625 153.01171875 C48.03326301 151.71850155 47.56234944 150.4253827 47.09118652 149.13235474 C45.84508103 145.71070872 44.60218037 142.28790767 43.36003494 138.86482239 C41.30216284 133.19591884 39.23887487 127.52898175 37.17622185 121.86181641 C36.6630565 120.45174464 36.15001143 119.0416291 35.63708687 117.63146973 C32.4208092 108.78963434 29.1840669 99.95597771 25.90625 91.13671875 C25.57072617 90.23281403 25.23520233 89.3289093 24.88951111 88.39761353 C23.37970398 84.33196587 21.86485232 80.26831362 20.34204102 76.20751953 C19.82288891 74.81159428 19.30391424 73.41560302 18.78515625 72.01953125 C18.34502197 70.84422852 17.9048877 69.66892578 17.45141602 68.45800781 C16.53125 65.62890625 16.53125 65.62890625 16.53125 62.62890625 C15.87125 62.62890625 15.21125 62.62890625 14.53125 62.62890625 C14.4849646 63.45285889 14.4849646 63.45285889 14.43774414 64.29345703 C13.88373521 71.543396 12.27846507 78.3902742 10.49459839 85.42687988 C9.5733714 89.06559552 8.67701484 92.71041468 7.78125 96.35546875 C7.50111305 97.4939325 7.50111305 97.4939325 7.21531677 98.65539551 C5.16653809 107.03381998 3.31350725 115.45366469 1.46875 123.87890625 C-2.55147777 142.20312564 -6.9186398 160.42846544 -11.46875 178.62890625 C-31.26875 178.62890625 -51.06875 178.62890625 -71.46875 178.62890625 C-70.34386967 168.50498332 -70.34386967 168.50498332 -69.05078125 163.8359375 C-68.62829102 162.2900293 -68.62829102 162.2900293 -68.19726562 160.71289062 C-67.89498047 159.63330078 -67.59269531 158.55371094 -67.28125 157.44140625 C-66.81041992 155.72727539 -66.81041992 155.72727539 -66.33007812 153.97851562 C-65.68717169 151.63937525 -65.04151421 149.30098919 -64.39306641 146.96337891 C-63.0697073 142.18935918 -61.76985094 137.40902837 -60.46875 132.62890625 C-60.10777222 131.30789917 -60.10777222 131.30789917 -59.73950195 129.96020508 C-57.79788016 122.85460007 -55.88074618 115.74253396 -53.96875 108.62890625 C-51.57770937 99.73298215 -49.16752109 90.842593 -46.73828125 81.95703125 C-44.79782084 74.85227674 -42.88082554 67.74134677 -40.96875 60.62890625 C-40.37897672 58.4387831 -39.7891335 56.24867879 -39.19921875 54.05859375 C-38.34372247 50.88240241 -37.48935944 47.70593388 -36.63916016 44.52832031 C-35.15426926 38.97861918 -33.65236469 33.43457082 -32.10351562 27.90234375 C-31.5436657 25.89721973 -30.9973437 23.88832913 -30.453125 21.87890625 C-28.20614128 14.26201227 -25.07153468 8.60170312 -18.27087402 4.20936584 C-12.015532 0.90162092 -7.03121847 -0.10342569 0 0 Z " fill="#FEFEFD" transform="translate(1821.46875,609.37109375)"/>
<path d="M0 0 C45.82902802 -0.16121214 45.82902802 -0.16121214 65.078125 -0.1953125 C78.3532532 -0.21901908 91.62827962 -0.24684269 104.90332031 -0.30175781 C114.57276915 -0.3417384 124.24213517 -0.36745952 133.91166437 -0.37635398 C139.02739175 -0.38154976 144.1428823 -0.39368454 149.25853348 -0.42292023 C154.08318481 -0.45026693 158.90750393 -0.45840644 163.73222542 -0.45243073 C165.49372608 -0.45352241 167.25523899 -0.46136077 169.01667213 -0.4768219 C187.22045167 -0.62863818 203.17389521 2.81727765 216.75390625 15.76171875 C217.86572266 16.86966797 217.86572266 16.86966797 219 18 C219.56589844 18.54269531 220.13179687 19.08539062 220.71484375 19.64453125 C230.77076993 30.18058123 234.49376292 44.06906599 234.2421875 58.19921875 C233.18457133 74.7969693 225.15972281 88.68349305 213.0703125 99.76953125 C205.13852869 106.26964453 196.07284882 109.18615976 186 110 C186.37584229 110.65145996 186.75168457 111.30291992 187.13891602 111.97412109 C188.28322426 113.95758872 189.42750901 115.9410699 190.57177734 117.92456055 C191.9143823 120.25164368 193.25713074 122.57864337 194.60009766 124.90551758 C198.07731577 130.93077098 201.55180265 136.95756033 205.01953125 142.98828125 C213.65679531 158.02524564 213.65679531 158.02524564 222.56396484 172.90307617 C225 176.90035035 225 176.90035035 225 178 C203.88 178 182.76 178 161 178 C153.575 164.635 153.575 164.635 146 151 C141.84949583 143.8499718 137.69716449 136.70361802 133.51123047 129.57470703 C131.37232295 125.93061678 129.24006631 122.28298069 127.125 118.625 C126.50882813 117.56539062 125.89265625 116.50578125 125.2578125 115.4140625 C124 113 124 113 124 111 C102.55 111 81.1 111 59 111 C59 133.11 59 155.22 59 178 C39.53 178 20.06 178 0 178 C0 119.26 0 60.52 0 0 Z " fill="#FEFEFE" transform="translate(540,610)"/>
<path d="M0 0 C1.08702928 -0.00128164 1.08702928 -0.00128164 2.19601876 -0.00258917 C4.60654007 -0.00422667 7.01699066 0.00124888 9.42750549 0.00672913 C11.16250609 0.0070114 12.8975068 0.00685248 14.63250732 0.00628662 C19.33030061 0.00600021 24.02806825 0.01187177 28.72585559 0.01886058 C33.63991843 0.02512004 38.55398188 0.02569997 43.4680481 0.02688599 C52.76805364 0.02999166 62.06804741 0.03819475 71.36804777 0.04823548 C81.95809166 0.05942034 92.54813611 0.06491305 103.13818443 0.06993091 C124.9176569 0.080378 146.69711323 0.09871399 168.47657776 0.12025452 C168.47657776 13.98025452 168.47657776 27.84025452 168.47657776 42.12025452 C163.78229553 42.12960022 159.08801331 42.13894592 154.2514801 42.14857483 C138.75684917 42.18231327 123.26235125 42.2376432 107.76782799 42.30415726 C98.37175079 42.34396332 88.97575753 42.37634785 79.5796051 42.39125061 C71.3897238 42.40425901 63.20002708 42.43120287 55.01024973 42.47486758 C50.67395268 42.49750073 46.33788343 42.51316409 42.00152206 42.51213837 C37.91875294 42.51139284 33.83648777 42.52929995 29.75384903 42.56142235 C28.25671436 42.56993078 26.75952322 42.57166484 25.26237488 42.56605721 C23.21448568 42.55940933 21.16819629 42.57735252 19.12046814 42.60127258 C17.97560125 42.60495975 16.83073437 42.60864693 15.65117455 42.61244583 C11.21314663 43.32235303 7.89133571 45.31965349 5.10157776 48.87025452 C3.80605905 53.53412188 3.78313729 57.56001346 5.72657776 61.93275452 C8.05689185 64.84564713 10.00338023 66.8812935 13.77974987 67.49384212 C15.05741962 67.49296266 15.05741962 67.49296266 16.36090088 67.49206543 C17.83422379 67.50220169 17.83422379 67.50220169 19.33731079 67.51254272 C20.40895981 67.50482346 21.48060883 67.49710419 22.58473206 67.489151 C24.2856601 67.49480072 24.2856601 67.49480072 26.02095032 67.50056458 C28.48669292 67.50700488 30.95246034 67.50665971 33.41820335 67.50037956 C37.33413585 67.49127072 41.24958923 67.50149548 45.16549683 67.51699829 C54.9031647 67.55314307 64.64082639 67.559442 74.3785553 67.55690002 C82.58910123 67.55502788 90.79928764 67.56917048 99.0097599 67.6053791 C102.84324901 67.61611704 106.67623231 67.60411895 110.50970459 67.59155273 C130.10435791 67.62011709 150.63155566 68.82981266 165.73048401 83.08119202 C171.39611413 89.69743121 174.48733804 97.73396334 176.47657776 106.12025452 C176.66220276 106.83310608 176.84782776 107.54595764 177.03907776 108.28041077 C179.70156938 125.56283404 177.92294159 143.55599585 168.06642151 158.21791077 C158.09241491 170.8590612 141.64841018 175.63517362 126.34196472 177.53129578 C111.78377454 178.98925229 97.02527324 178.49222846 82.41357207 178.42443633 C77.62105471 178.40545758 72.82852938 178.40390263 68.03598022 178.40036011 C58.99492992 178.39110104 49.95399073 178.36657202 40.91298896 178.33631164 C30.60557961 178.30257441 20.29816445 178.28623345 9.99071348 178.27122533 C-11.18074056 178.24001567 -32.35204262 178.18508216 -53.52342224 178.12025452 C-53.52342224 164.59025452 -53.52342224 151.06025452 -53.52342224 137.12025452 C-48.76331726 137.10043518 -44.00321228 137.08061584 -39.09886169 137.06019592 C-23.3927121 136.99336715 -7.68662899 136.91582673 8.01944256 136.83272743 C17.54444458 136.7825943 27.06943796 136.73615143 36.59449768 136.69837952 C44.89602147 136.66545022 53.19747838 136.62561378 61.49892837 136.57746446 C65.89493988 136.55220882 70.29090707 136.53042475 74.68697166 136.51691055 C78.82459681 136.50408175 82.9620699 136.48201845 87.09961128 136.45287132 C88.6181359 136.44380197 90.136685 136.43810681 91.65523529 136.43604088 C93.72933414 136.43271377 95.80300307 136.41722472 97.87701416 136.39872742 C99.03755153 136.39319666 100.19808889 136.3876659 101.39379406 136.38196754 C104.51942327 136.11661715 106.7062658 135.57707064 109.47657776 134.12025452 C110.78726109 131.67736824 110.78726109 131.67736824 111.47657776 129.12025452 C111.80657776 128.46025452 112.13657776 127.80025452 112.47657776 127.12025452 C112.75112594 123.48249109 112.73552956 120.7904827 111.41407776 117.37025452 C108.35691019 113.8199954 104.69590467 112.38237159 100.12107658 111.84205437 C97.34555173 111.72633732 94.58433754 111.70666396 91.80641174 111.71961975 C90.75498489 111.71264069 89.70355804 111.70566162 88.62026978 111.69847107 C85.15432157 111.67852569 81.68867197 111.67899455 78.22267151 111.67884827 C75.7999797 111.66706755 73.37729513 111.65370163 70.95462036 111.63882446 C64.57646747 111.60264852 58.19837863 111.5824473 51.82014465 111.567276 C41.63744232 111.5424545 31.4548818 111.50242748 21.27231026 111.44537544 C17.7329786 111.42918139 14.1937829 111.4252802 10.65441895 111.42236328 C-10.62472677 111.35297761 -31.03639189 110.49945313 -47.51560974 95.28041077 C-58.68139576 83.56352373 -61.04510027 67.49146501 -60.94285583 51.93373108 C-60.53869916 37.47274454 -55.94674353 24.97645825 -45.33592224 14.80775452 C-32.7493731 4.41109484 -16.10107726 -0.01149256 0 0 Z " fill="#FEFDFD" transform="translate(1100.523422241211,609.8797454833984)"/>
<path d="M0 0 C1.77514634 0.00084781 3.55029372 0.00036813 5.32543945 -0.00132751 C10.10979412 -0.0021829 14.8939199 0.01536827 19.6782217 0.03639436 C24.69100703 0.05523792 29.70379849 0.05691762 34.71661377 0.06047058 C44.1935772 0.06976859 53.67043593 0.0943518 63.14735341 0.12451905 C73.94305842 0.15813318 84.73876862 0.17456666 95.534513 0.18960536 C117.72783256 0.2209035 139.92100873 0.27588733 162.11425781 0.34057617 C162.11425781 14.20057617 162.11425781 28.06057617 162.11425781 42.34057617 C155.467771 42.3467395 155.467771 42.3467395 148.68701172 42.35302734 C134.0385699 42.37023323 119.39030186 42.414498 104.74196815 42.47266674 C95.86164243 42.50727137 86.9814712 42.53266631 78.10107422 42.53613281 C70.35792892 42.53917902 62.61505909 42.55975747 54.87202013 42.60110074 C50.77475326 42.62237313 46.67787746 42.63506123 42.58055496 42.62672997 C38.71764123 42.61915298 34.85551747 42.63515869 30.99274826 42.66863632 C29.58114702 42.67682602 28.16946657 42.67667128 26.75787354 42.66717339 C17.3570341 42.61022269 9.42257863 43.48493748 2.24476051 50.05064678 C-2.41948049 55.01517914 -5.63871377 60.70819519 -6.43334961 67.48339844 C-6.58263916 68.75626709 -6.73192871 70.02913574 -6.88574219 71.34057617 C-6.16497372 71.32582748 -5.44420525 71.3110788 -4.70159531 71.29588318 C12.87698326 70.94176102 30.45465061 70.67740304 48.03601456 70.51158142 C56.53866303 70.429247 65.03892392 70.31711834 73.54003906 70.13354492 C80.95421484 69.97351993 88.36666146 69.87072191 95.78251624 69.83516026 C99.70641556 69.81438316 103.62537097 69.76598318 107.54767609 69.64889526 C133.31527871 68.90883727 133.31527871 68.90883727 139.64901733 74.8372345 C142.40817979 78.11660098 144.43634396 81.58575456 146.22450638 85.47017097 C147.4035589 87.94873507 148.95490281 90.05558692 150.62207031 92.22729492 C151.49784749 93.49188697 152.37049401 94.75865576 153.23925781 96.02807617 C153.69300781 96.67711914 154.14675781 97.32616211 154.61425781 97.99487305 C155.04996094 98.62844727 155.48566406 99.26202148 155.93457031 99.91479492 C156.30855957 100.4570874 156.68254883 100.99937988 157.06787109 101.55810547 C158.34409802 103.73209818 159.19681574 105.99583389 160.11425781 108.34057617 C141.22581787 108.90309832 122.33909229 109.32531515 103.44399261 109.5840683 C94.66862338 109.70745381 85.89847778 109.87536657 77.12646484 110.15112305 C69.47344628 110.39158661 61.82420927 110.54544335 54.16751814 110.59870005 C50.11682313 110.62981404 46.07693564 110.70190137 42.02973938 110.87809753 C17.4723821 111.90698051 17.4723821 111.90698051 10.17446899 105.93484497 C5.14406956 100.20859164 1.52926028 93.8818855 -1.6115036 86.96060944 C-2.81633454 84.48328913 -4.15791396 82.47622814 -5.88574219 80.34057617 C-5.9855309 85.14194862 -6.05763835 89.94270138 -6.10546875 94.74487305 C-6.12543298 96.37421195 -6.15261448 98.00348063 -6.1875 99.63256836 C-6.5426231 114.75038031 -6.5426231 114.75038031 0.22753906 127.96166992 C0.95328125 128.56108398 1.67902344 129.16049805 2.42675781 129.77807617 C3.14476562 130.39553711 3.86277344 131.01299805 4.60253906 131.64916992 C12.38623301 136.89075542 19.31376972 136.78442788 28.49487305 136.77294922 C29.9540235 136.7819746 31.41316638 136.79230373 32.87229919 136.80383301 C36.81806005 136.83133818 40.76367678 136.84067866 44.70952106 136.84668708 C48.8388809 136.85608769 52.96813382 136.88229242 57.09742737 136.9066925 C64.90993536 136.95031487 72.72242255 136.97888798 80.53501517 137.00201589 C89.43228875 137.02909045 98.32945454 137.07300055 107.22665107 137.11830461 C125.52247715 137.21108988 143.81829281 137.28057636 162.11425781 137.34057617 C162.11425781 150.87057617 162.11425781 164.40057617 162.11425781 178.34057617 C138.88696002 178.40841087 115.65974298 178.4636264 92.43237114 178.49601269 C81.64644691 178.51145281 70.86058881 178.53248752 60.07470703 178.56689453 C50.6689471 178.59688453 41.26323509 178.61617191 31.85742867 178.62284166 C26.88147365 178.62673769 21.90565564 178.63583391 16.92974472 178.65776634 C12.23645436 178.67828346 7.54335613 178.68437951 2.85002518 178.67989922 C1.136909 178.68071766 -0.57621429 178.68659192 -2.28929138 178.6981926 C-20.04813408 178.81244996 -35.70651351 176.61531924 -49.30371094 164.04370117 C-58.98927573 153.61677216 -64.00563622 140.77740335 -64.07861328 126.66333008 C-64.08679077 125.78790558 -64.09496826 124.91248108 -64.10339355 124.01052856 C-64.12820405 121.11273875 -64.14475909 118.21499806 -64.15917969 115.31713867 C-64.16450336 114.32328533 -64.16982704 113.32943199 -64.17531204 112.30546188 C-64.20203418 107.03738935 -64.22140572 101.76934034 -64.23583984 96.5012207 C-64.2491355 92.16181149 -64.27690864 87.82287737 -64.31787109 83.48364258 C-64.36748568 78.22697638 -64.39199691 72.97073841 -64.39906693 67.71384811 C-64.40573515 65.72137145 -64.42083991 63.72890267 -64.44495773 61.73656082 C-64.64947868 43.807808 -61.73543185 30.41679987 -49.88574219 16.34057617 C-35.68400909 2.36498532 -19.10395768 -0.12878742 0 0 Z " fill="#FEFEFD" transform="translate(1574.8857421875,609.659423828125)"/>
<path d="M0 0 C44.90653635 -0.1209091 44.90653635 -0.1209091 63.75390625 -0.14648438 C76.75703489 -0.16427111 89.76010512 -0.18515809 102.76318359 -0.22631836 C112.23411392 -0.25628351 121.70499676 -0.27558989 131.17597318 -0.28226548 C136.18763436 -0.2861657 141.19915975 -0.29528888 146.21077728 -0.31719017 C150.93525057 -0.33766784 155.6595331 -0.34381114 160.38404655 -0.33932304 C162.11090319 -0.34014322 163.8377667 -0.34604129 165.56458473 -0.35761642 C184.3084812 -0.47701608 200.9513833 3.18414759 214.8203125 16.62109375 C225.49464979 28.27104251 231.52813767 41.82927002 231.25390625 57.625 C230.13260722 72.52965171 223.18875421 87.42778007 212.375 97.75 C199.48933233 108.64122442 186.9063375 111.33353154 170.46020508 111.22705078 C169.25890961 111.22734283 168.05761414 111.22763489 166.81991577 111.22793579 C163.56233586 111.22679056 160.30493332 111.21683933 157.04738832 111.20278788 C153.62947518 111.19018828 150.21155766 111.18910281 146.79362488 111.18673706 C140.33762746 111.18054917 133.8816987 111.16417525 127.42573136 111.14403808 C119.3456831 111.11938837 111.26562342 111.1085199 103.18554688 111.09765625 C88.79031126 111.07824166 74.39522521 111.03816675 60 111 C60 133.11 60 155.22 60 178 C40.2 178 20.4 178 0 178 C0 119.26 0 60.52 0 0 Z " fill="#FEFEFE" transform="translate(2084,610)"/>
<path d="M0 0 C1.26997078 -0.01285538 1.26997078 -0.01285538 2.56559753 -0.02597046 C4.34455821 -0.03737635 6.12361208 -0.03851752 7.90258789 -0.02978516 C10.58971406 -0.0234745 13.27240257 -0.07042673 15.95898438 -0.12109375 C27.14692227 -0.20794153 36.00608058 0.74600066 44.83007812 8.35913086 C49.86982101 13.6364026 53.17149116 20.16042851 56.60546875 26.5390625 C57.84105272 28.78982897 59.07803472 31.03982854 60.31640625 33.2890625 C60.91291992 34.37703125 61.50943359 35.465 62.12402344 36.5859375 C64.25952684 40.44458847 66.47439683 44.25000641 68.73046875 48.0390625 C72.86715781 55.00865255 76.93418869 62.0165887 80.98046875 69.0390625 C81.61847412 70.14628662 82.25647949 71.25351074 82.91381836 72.39428711 C84.22186352 74.66493318 85.52972323 76.93568608 86.83740234 79.20654297 C89.98628926 84.67326225 93.13975365 90.13733896 96.29296875 95.6015625 C100.0566224 102.12388689 103.81941498 108.64670013 107.578125 115.171875 C113.70733998 125.80940132 119.85234231 136.43713606 126.04296875 147.0390625 C126.61426514 148.01770264 127.18556152 148.99634277 127.77416992 150.00463867 C131.12162649 155.73883533 131.12162649 155.73883533 134.46972656 161.47265625 C136.03805607 164.16015613 137.60343707 166.84935041 139.16796875 169.5390625 C139.63879883 170.344646 140.10962891 171.15022949 140.59472656 171.98022461 C143.79296875 177.48715987 143.79296875 177.48715987 143.79296875 178.6015625 C136.10943342 178.9037862 128.42651818 179.13424663 120.73838043 179.27512074 C117.1671913 179.34277203 113.60008678 179.43434274 110.03125 179.58227539 C87.07255651 180.50899964 87.07255651 180.50899964 81.78149414 177.43167114 C78.39819719 174.11164779 77.15056499 170.02849314 75.79296875 165.6015625 C74.85490491 163.932224 73.86964979 162.28787824 72.82421875 160.68359375 C71.97921059 159.26116334 71.13541637 157.83801091 70.29296875 156.4140625 C69.85210938 155.67865234 69.41125 154.94324219 68.95703125 154.18554688 C65.79296875 148.83513684 65.79296875 148.83513684 65.79296875 146.6015625 C29.49296875 146.6015625 -6.80703125 146.6015625 -44.20703125 146.6015625 C-44.86703125 148.2515625 -45.52703125 149.9015625 -46.20703125 151.6015625 C-47.3226613 153.66577822 -48.47309031 155.71138079 -49.6484375 157.7421875 C-49.97617661 158.30983826 -50.30391571 158.87748901 -50.6415863 159.46234131 C-51.33004096 160.65321394 -52.02009495 161.84316328 -52.71166992 163.03222656 C-53.77318391 164.85784443 -54.82935416 166.68647373 -55.88476562 168.515625 C-61.05789587 177.45242712 -61.05789587 177.45242712 -62.20703125 178.6015625 C-64.07884065 178.69542631 -65.95421185 178.71900054 -67.82836914 178.71508789 C-69.02953873 178.71501236 -70.23070831 178.71493683 -71.46827698 178.71485901 C-72.77554245 178.70969772 -74.08280792 178.70453644 -75.4296875 178.69921875 C-76.77347257 178.69735448 -78.11725832 178.69593062 -79.46104431 178.69493103 C-83.00385402 178.69110652 -86.54662295 178.68127682 -90.0894165 178.67022705 C-93.70218352 178.66001149 -97.31495709 178.6554331 -100.92773438 178.65039062 C-108.02085005 178.63965448 -115.11393799 178.62257886 -122.20703125 178.6015625 C-113.7174404 163.01262978 -105.15691731 147.45595122 -96.09765625 132.18920898 C-92.33044868 125.83658867 -88.64168525 119.43985693 -84.95703125 113.0390625 C-80.06557838 104.54500015 -75.15324641 96.06385488 -70.20703125 87.6015625 C-65.34595482 79.28407133 -60.51570597 70.94945655 -55.70703125 62.6015625 C-49.0898474 51.11809512 -42.44250825 39.65305442 -35.73486328 28.22216797 C-34.33277155 25.81723785 -32.95175154 23.40173148 -31.578125 20.98046875 C-24.124242 7.95688725 -15.74944633 -0.03630037 0 0 Z " fill="#FEFEFE" transform="translate(896.20703125,609.3984375)"/>
<path d="M0 0 C67.65 0 135.3 0 205 0 C205 13.86 205 27.72 205 42 C180.91 42 156.82 42 132 42 C132 86.88 132 131.76 132 178 C112.2 178 92.4 178 72 178 C72 133.45 72 88.9 72 43 C48.24 43 24.48 43 0 43 C0 28.81 0 14.62 0 0 Z " fill="#FEFDFD" transform="translate(1289,610)"/>
<path d="M0 0 C13.71704859 -0.09036722 27.43389947 -0.16375453 41.15117836 -0.20724869 C47.52065719 -0.22812364 53.8899218 -0.2564403 60.25927734 -0.30175781 C66.40602092 -0.34521779 72.55255845 -0.3691378 78.69944382 -0.37950897 C81.04461282 -0.38689998 83.38977055 -0.4013328 85.73485184 -0.42292023 C89.01960881 -0.45195529 92.30351426 -0.45595583 95.58837891 -0.45410156 C97.04278885 -0.47567322 97.04278885 -0.47567322 98.52658081 -0.49768066 C104.20109385 -0.46301726 107.52785469 0.15508611 112 4 C114.72898842 7.23169681 115.88980039 9.24237769 116.5 13.4375 C115.77765074 18.58423847 114.08992427 22.23828119 110.00483704 25.68183899 C105.55508811 27.63385352 101.41761371 27.39334987 96.61010742 27.34057617 C95.56574524 27.34101425 94.52138306 27.34145233 93.44537354 27.34190369 C89.99854746 27.33981617 86.55220971 27.31648619 83.10546875 27.29296875 C80.71365118 27.28737268 78.32183017 27.28310264 75.93000793 27.28010559 C69.63842251 27.26865775 63.34704524 27.23919078 57.05554199 27.20599365 C50.63406185 27.17529165 44.21254803 27.16159996 37.79101562 27.14648438 C25.1939043 27.11432124 12.59700204 27.0615535 0 27 C0 18.09 0 9.18 0 0 Z " fill="#F47F34" transform="translate(335,720)"/>
<path d="M0 0 C12.91747442 -0.0904171 25.83473819 -0.16378327 38.75245762 -0.20724869 C44.75086296 -0.2281113 50.74904032 -0.25640533 56.74731445 -0.30175781 C62.53745193 -0.34526195 68.32737029 -0.36914708 74.11765862 -0.37950897 C76.32523993 -0.38689206 78.53280944 -0.40130953 80.74029732 -0.42292023 C83.83567214 -0.45201424 86.93014491 -0.4559534 90.02563477 -0.45410156 C90.93554169 -0.46848267 91.84544861 -0.48286377 92.78292847 -0.49768066 C98.70260329 -0.45943295 102.14006365 0.56924715 107 4 C109.45825789 6.93404974 109.95857906 8.62030804 110.375 12.4375 C109.86943796 17.24033933 108.61392138 20.53738375 105 23.8125 C101.81270165 25.7049584 99.16939856 26.13419043 95.54003906 26.20532227 C94.17384178 26.23523254 94.17384178 26.23523254 92.78004456 26.26574707 C91.7852861 26.2824646 90.79052765 26.29918213 89.765625 26.31640625 C88.71958603 26.33723267 87.67354706 26.35805908 86.59580994 26.3795166 C83.1472838 26.44597347 79.69868075 26.5046618 76.25 26.5625 C75.07837311 26.58367889 73.90674622 26.60485779 72.69961548 26.62667847 C48.46547862 27.06256576 24.23711526 27.10122229 0 27 C0 18.09 0 9.18 0 0 Z " fill="#F47E33" transform="translate(335,652)"/>
<path d="M0 0 C12.6221703 -0.06787423 25.24421865 -0.12287305 37.86653042 -0.15543652 C43.72806537 -0.17106817 49.58946859 -0.19226092 55.45092773 -0.22631836 C61.11138765 -0.25900074 66.77172113 -0.27687182 72.43226814 -0.28463173 C74.58794201 -0.29015929 76.74360925 -0.3009532 78.89922905 -0.31719017 C81.92702875 -0.33908224 84.95431117 -0.34196198 87.98217773 -0.34057617 C89.30820007 -0.35675491 89.30820007 -0.35675491 90.66101074 -0.3732605 C96.40302966 -0.34496754 101.83140225 0.32638925 107 3 C109.37310654 6.55965981 109.26915041 8.21962224 109.25 12.4375 C109.25773438 14.13712891 109.25773438 14.13712891 109.265625 15.87109375 C109.00269794 18.9682199 108.65673402 20.43094959 107 23 C101.1706797 26.3295775 94.51432914 26.42027467 87.98217773 26.34057617 C87.02501358 26.34101425 86.06784943 26.34145233 85.0816803 26.34190369 C81.94877013 26.33983001 78.8164093 26.31656634 75.68359375 26.29296875 C73.49927564 26.28736774 71.31495373 26.28310003 69.13063049 26.28010559 C63.40462691 26.26869663 57.67885462 26.23926351 51.95294189 26.20599365 C46.10082121 26.17520746 40.24866285 26.16158202 34.39648438 26.14648438 C22.93087205 26.11438992 11.46549152 26.06165433 0 26 C0 17.42 0 8.84 0 0 Z " fill="#F47F34" transform="translate(599,652)"/>
<path d="M0 0 C11.97025091 -0.06788817 23.94037309 -0.12288103 35.91077328 -0.15543652 C41.46964126 -0.17106475 47.02837022 -0.19225114 52.5871582 -0.22631836 C57.95584535 -0.25901309 63.32439912 -0.27687438 68.69317818 -0.28463173 C70.73720968 -0.29015709 72.78123423 -0.30094668 74.82520866 -0.31719017 C77.69735124 -0.33909882 80.56894887 -0.34196131 83.44116211 -0.34057617 C84.69705391 -0.35675491 84.69705391 -0.35675491 85.97831726 -0.3732605 C92.33253209 -0.34029393 99.13278921 0.45624129 104.04296875 4.8125 C105.28991368 7.66265983 105.3629643 9.89450468 105.3125 13 C105.30863281 14.03125 105.30476563 15.0625 105.30078125 16.125 C105.00104936 18.98996979 104.62846819 20.64244638 103 23 C96.4840187 26.19875446 91.28909712 27.14352722 84.12231445 27.11352539 C83.21479431 27.11367142 82.30727417 27.11381744 81.37225342 27.1139679 C78.36923848 27.11327061 75.36628537 27.10548676 72.36328125 27.09765625 C70.28248631 27.09579142 68.20169092 27.09436782 66.12089539 27.09336853 C60.6414977 27.08954849 55.16212648 27.07972255 49.68273926 27.06866455 C44.09253294 27.05843943 38.50232235 27.05386855 32.91210938 27.04882812 C21.94139275 27.03809985 10.97070271 27.02050717 0 27 C0 18.09 0 9.18 0 0 Z " fill="#F48036" transform="translate(2144,652)"/>
<path d="M0 0 C0.66 0 1.32 0 2 0 C2.35602295 0.64211426 2.7120459 1.28422852 3.07885742 1.94580078 C12.01845982 18.04652078 21.06343432 34.0849193 30.70703125 49.77783203 C31.25746094 50.67743652 31.80789063 51.57704102 32.375 52.50390625 C32.87773438 53.31802979 33.38046875 54.13215332 33.8984375 54.97094727 C35 57 35 57 35 59 C12.56 59 -9.88 59 -33 59 C-28.62832649 50.25665297 -24.2876512 41.80317748 -19.3125 33.4375 C-18.09682946 31.37418482 -16.88200371 29.31037171 -15.66796875 27.24609375 C-15.06130371 26.21597168 -14.45463867 25.18584961 -13.82958984 24.12451172 C-10.89015486 19.10464396 -8.00513081 14.05406103 -5.125 9 C-4.60719971 8.0917749 -4.08939941 7.1835498 -3.5559082 6.24780273 C-2.36967088 4.16573136 -1.18428414 2.08318277 0 0 Z " fill="#F47E32" transform="translate(906,663)"/>
</svg>
