<?xml version="1.0" encoding="UTF-8"?>
<svg version="1.1" xmlns="http://www.w3.org/2000/svg" width="3500" height="896">
<path d="M0 0 C0.5465625 0.44214844 1.093125 0.88429688 1.65625 1.33984375 C16.46290387 13.3877107 30.27873693 26.9264557 42 42 C43.60101074 43.87769548 45.20536873 45.75254045 46.8125 47.625 C98.04216039 109.22728096 119.71758797 190.20457302 122 269 C122.02336426 269.70415039 122.04672852 270.40830078 122.07080078 271.13378906 C124.11255863 339.18094548 106.55181984 410.38216767 70 468 C69.60103516 468.63019043 69.20207031 469.26038086 68.79101562 469.90966797 C54.12125461 492.87693874 36.65448495 513.36771569 17.5 532.6875 C16.2011084 534.00596924 16.2011084 534.00596924 14.87597656 535.35107422 C8.8981423 541.33678293 2.62918317 546.7504977 -4 552 C-4.73653809 552.59578857 -5.47307617 553.19157715 -6.23193359 553.80541992 C-63.09172803 599.77588858 -138.07126713 629.88390606 -211.68359375 630.203125 C-212.76903976 630.21013931 -213.85448578 630.21715363 -214.9728241 630.22438049 C-218.461092 630.24180463 -221.94919016 630.24823378 -225.4375 630.25 C-227.22435211 630.25101212 -227.22435211 630.25101212 -229.04730225 630.25204468 C-246.55127688 630.23627321 -263.69180457 629.84888158 -281 627 C-282.10762695 626.82307617 -283.21525391 626.64615234 -284.35644531 626.46386719 C-357.54838838 614.5162678 -423.22454792 582.69764846 -475.875 530.375 C-476.40965881 529.84578949 -476.94431763 529.31657898 -477.49517822 528.77133179 C-484.46473553 521.85470206 -490.94974422 514.75312226 -497 507 C-497.5475293 506.30116699 -498.09505859 505.60233398 -498.65917969 504.88232422 C-521.85464894 474.91329249 -539.61762924 441.83296063 -552 406 C-552.28568848 405.17870605 -552.57137695 404.35741211 -552.86572266 403.51123047 C-584.30993614 311.94583242 -578.33117882 205.38050924 -535.1237793 112.10058594 C-519.59146329 80.84327944 -498.94934291 53.06511795 -475.25 27.5625 C-474.64816895 26.9120874 -474.04633789 26.2616748 -473.42626953 25.59155273 C-469.75176891 21.68142992 -465.9151231 18.08181599 -461.84375 14.58764648 C-459.46223827 12.53693531 -457.17333529 10.39314224 -454.875 8.25 C-377.60233528 -62.01717588 -268.29924104 -88.94405555 0 0 Z M-263 107 C-264.267229 107.29801514 -264.267229 107.29801514 -265.56005859 107.60205078 C-302.21115369 116.54869769 -331.99785117 137.34963004 -352.11328125 169.36328125 C-381.14429611 218.23685383 -385.46010657 281.17267173 -372.28930664 335.68530273 C-366.01039404 359.83555442 -355.93567707 381.70773941 -340 401 C-339.34233643 401.79639893 -339.34233643 401.79639893 -338.67138672 402.60888672 C-314.9482692 430.87764199 -278.82218153 445.51706995 -242.72851562 448.8190918 C-201.07974123 451.58052181 -158.32333204 444.02443771 -126 416 C-124.78957031 414.98873047 -124.78957031 414.98873047 -123.5546875 413.95703125 C-92.58225732 387.30520654 -77.87020133 346.58714107 -73 307 C-72.9057373 306.30422852 -72.81147461 305.60845703 -72.71435547 304.89160156 C-68.21281858 267.44590115 -72.65756616 226.90619788 -87 192 C-87.28037109 191.31566895 -87.56074219 190.63133789 -87.84960938 189.92626953 C-94.97975694 172.92330726 -105.06204079 158.09175368 -118 145 C-118.77472656 144.15308594 -119.54945313 143.30617188 -120.34765625 142.43359375 C-142.68475509 118.60486894 -178.950276 105.07010961 -211.17529297 103.79345703 C-215.65875333 103.67276709 -220.14024102 103.66549772 -224.625 103.6875 C-225.41713898 103.68965515 -226.20927795 103.6918103 -227.02542114 103.69403076 C-239.22204471 103.74720188 -251.08167372 104.18183617 -263 107 Z " fill="#9CCB3C" transform="translate(1175,260)"/>
<path d="M0 0 C1.43210888 -0.00701964 2.86421744 -0.01410648 4.29632568 -0.02125549 C8.84989873 -0.04066836 13.403421 -0.04568924 17.95703125 -0.046875 C18.73156269 -0.04731686 19.50609413 -0.04775871 20.30409622 -0.04821396 C43.23672138 -0.05508083 66.01082601 0.0528571 88.76953125 3.203125 C90.07116211 3.38004883 91.37279297 3.55697266 92.71386719 3.73925781 C131.85134289 9.18320918 176.13642532 20.26099396 201.58203125 53.140625 C219.42413886 78.04324579 225.29371231 107.9177313 220.58203125 138.015625 C220.04600323 141.09460306 219.43542096 144.1497278 218.76953125 147.203125 C218.61919434 147.89647949 218.46885742 148.58983398 218.31396484 149.30419922 C213.00519387 172.46323023 200.17158736 198.79998834 180.76953125 213.203125 C170.17711436 217.65194009 159.46261257 213.40427999 149.26660156 209.76882935 C109.67931892 195.71778064 69.58572296 191.09956291 27.76953125 190.203125 C26.72651855 190.17976074 25.68350586 190.15639648 24.60888672 190.13232422 C-31.23391383 189.05055745 -88.97998475 199.03121578 -135.23046875 232.203125 C-135.81715332 232.62303711 -136.40383789 233.04294922 -137.00830078 233.47558594 C-145.28390636 239.47335157 -152.84435307 246.16079185 -160.23046875 253.203125 C-161.01035156 253.93015625 -161.79023438 254.6571875 -162.59375 255.40625 C-204.31945535 295.42735282 -222.19728326 356.33522745 -227.23046875 412.203125 C-227.32545654 413.24452637 -227.42044434 414.28592773 -227.51831055 415.35888672 C-228.33746074 425.3911101 -228.43185088 435.39439564 -228.41796875 445.453125 C-228.41703217 446.33395752 -228.41609558 447.21479004 -228.41513062 448.12231445 C-228.33542785 482.85858465 -224.51860476 516.93384411 -214.23046875 550.203125 C-213.95477051 551.09918457 -213.67907227 551.99524414 -213.39501953 552.91845703 C-198.14089004 601.48913713 -165.86633749 642.70978985 -120.88989258 666.88378906 C-90.14689026 682.82126685 -56.59650399 691.19445732 -22.23046875 694.203125 C-21.01359375 694.31527344 -19.79671875 694.42742188 -18.54296875 694.54296875 C30.39707556 698.32752726 76.45112893 688.84300542 121.55078125 670 C127.49359587 667.86560883 133.16776099 667.45976207 139.26953125 669.203125 C148.80344802 673.89573331 152.76421686 684.65359334 156.98977661 693.73440552 C158.8393621 697.70317744 160.73664531 701.64910136 162.62890625 705.59765625 C162.99520645 706.36438156 163.36150665 707.13110687 163.73890686 707.92106628 C175.53508825 732.55194181 190.58365546 755.88331404 206.27734375 778.19921875 C206.89593262 779.07916504 207.51452148 779.95911133 208.15185547 780.86572266 C209.35501335 782.57279137 210.56207484 784.27711882 211.77392578 785.97802734 C226.03607557 806.1352537 226.03607557 806.1352537 224.296875 816.296875 C221.92697168 824.86363664 213.61602174 830.25524598 206.35913086 834.49462891 C202.86624413 836.46928991 199.3299654 838.35346394 195.76953125 840.203125 C195.1240332 840.53957031 194.47853516 840.87601563 193.81347656 841.22265625 C148.56165554 864.4382047 95.89707602 874.34997941 45.76953125 880.203125 C45.05569275 880.2866925 44.34185425 880.37026001 43.60638428 880.45635986 C2.29722391 885.20301732 -41.00862609 885.96983074 -82.23046875 880.203125 C-82.93163818 880.10602234 -83.63280762 880.00891968 -84.35522461 879.90887451 C-164.81127677 868.67949692 -242.31742516 837.7207146 -302.34375 781.8671875 C-304.85093355 779.55338617 -307.40401269 777.31364299 -309.98046875 775.078125 C-321.00478662 765.17582979 -331.20242778 753.94105103 -340.23046875 742.203125 C-340.77525879 741.49849121 -341.32004883 740.79385742 -341.88134766 740.06787109 C-355.11525779 722.8950879 -366.6059953 705.08733762 -377.23046875 686.203125 C-377.58705566 685.57792969 -377.94364258 684.95273437 -378.31103516 684.30859375 C-389.63444763 664.38910461 -397.94787955 642.87475555 -405.23046875 621.203125 C-405.7423877 619.69540527 -405.7423877 619.69540527 -406.26464844 618.15722656 C-416.05018836 589.00661817 -422.17024138 558.66773245 -425.98046875 528.18499756 C-426.22069457 526.28060974 -426.47336667 524.37780449 -426.7265625 522.47509766 C-429.43130624 501.35965501 -429.54265244 480.15983323 -429.59838486 458.90480042 C-429.60531643 456.68931012 -429.61696517 454.47388744 -429.62954712 452.25842285 C-429.70842608 436.14163834 -429.29295993 420.16357871 -427.8515625 404.10546875 C-427.79038113 403.42221464 -427.72919975 402.73896053 -427.6661644 402.03500175 C-419.14392053 308.99208153 -385.49911483 215.26247691 -322.23046875 145.203125 C-321.44784668 144.33437744 -320.66522461 143.46562988 -319.85888672 142.57055664 C-313.52137661 135.5745479 -306.9988321 128.78516088 -300.32373047 122.11108398 C-298.72592982 120.51107981 -297.13635324 118.90318885 -295.546875 117.29492188 C-289.09795509 110.81085359 -282.40763581 104.88693716 -275.23046875 99.203125 C-273.9245653 98.11916922 -272.62207881 97.0310736 -271.32421875 95.9375 C-261.40489962 87.66483404 -251.02432009 80.28823001 -240.23046875 73.203125 C-239.45832031 72.69394531 -238.68617188 72.18476562 -237.890625 71.66015625 C-179.84871473 33.58544614 -113.62781242 11.29274488 -44.91796875 2.953125 C-44.23367798 2.86995026 -43.54938721 2.78677551 -42.84436035 2.70108032 C-28.56388232 0.98700074 -14.38848248 0.04376466 0 0 Z " fill="#9CCB3C" transform="translate(429.23046875,11.796875)"/>
<path d="M0 0 C5.82906375 5.32787322 8.62164917 10.1646762 9.25250769 18.22704834 C9.25370186 19.34142825 9.25489604 20.45580817 9.2561264 21.60395718 C9.2623585 22.8989169 9.26859059 24.19387662 9.27501154 25.52807754 C9.27185328 26.95299915 9.26851453 28.37792037 9.26501465 29.80284119 C9.26858738 31.32620592 9.27303883 32.84956881 9.27829123 34.37292868 C9.29019917 38.55218577 9.28977485 42.7313644 9.28735614 46.9106344 C9.28693634 51.42159151 9.29803852 55.93252171 9.30781555 60.44346619 C9.32327047 68.26212129 9.33168047 76.08075837 9.33552551 83.89942741 C9.34128143 95.2300171 9.35988403 106.56055849 9.38196605 117.89112682 C9.41769455 136.30916452 9.44599838 154.72720497 9.46826172 173.14526367 C9.46959671 174.24751841 9.4709317 175.34977314 9.47230715 176.48542953 C9.48172767 184.30278613 9.49088739 192.12014303 9.5 199.9375 C9.51038545 208.83780948 9.52090807 217.73811878 9.53173828 226.63842773 C9.53306902 227.73418135 9.53439977 228.82993496 9.53577083 229.95889323 C9.55827141 248.28804563 9.58850489 266.61717768 9.62413073 284.94630915 C9.64569624 296.2332046 9.66038842 307.52006834 9.66596949 318.80698324 C9.67024622 326.56057833 9.68156067 334.31414331 9.69819343 342.06772166 C9.70751442 346.52837077 9.71374466 350.98896369 9.71113014 355.44962311 C9.56733958 389.92140392 9.56733958 389.92140392 14.25 424 C14.5742395 425.55340088 14.5742395 425.55340088 14.9050293 427.13818359 C19.0534736 446.13081166 26.87312271 463.52430596 40 478 C40.52722656 478.62003906 41.05445312 479.24007813 41.59765625 479.87890625 C53.39337726 492.88135063 70.96875448 500.32074475 87.5625 504.8125 C88.28083008 505.00755127 88.99916016 505.20260254 89.73925781 505.40356445 C102.95812162 508.72586648 116.20045481 509.37919909 129.75 509.3125 C130.54092041 509.31034485 131.33184082 509.3081897 132.14672852 509.30596924 C143.98189321 509.25428077 155.46633312 508.89381678 167 506 C167.81275391 505.80132324 168.62550781 505.60264648 169.46289062 505.39794922 C185.04905098 501.46606636 198.70024546 495.54603231 211 485 C211.97066406 484.22785156 212.94132812 483.45570313 213.94140625 482.66015625 C235.97163219 464.25616283 243.12023093 432.04223996 245.78139603 404.96244979 C246.18927481 399.43500944 246.14647814 393.90592476 246.14476013 388.36599731 C246.14790025 387.00631065 246.15147651 385.64662494 246.15544754 384.28694046 C246.16507783 380.57422377 246.16868488 376.86152247 246.17129052 373.14879513 C246.17520546 369.13491021 246.18484192 365.12103862 246.19384766 361.10716248 C246.20875131 354.1561625 246.22031202 347.20516357 246.22979546 340.25415421 C246.24371382 330.1825004 246.26490928 320.11087131 246.28822399 310.03923534 C246.32610655 293.66808982 246.36107497 277.29693981 246.39282227 260.92578125 C246.39472276 259.94678898 246.39662325 258.96779672 246.39858133 257.95913802 C246.42537904 244.08455736 246.44926469 230.2099732 246.47196633 216.33538531 C246.47436229 214.87144478 246.47436229 214.87144478 246.47680664 213.37792969 C246.47840011 212.40316945 246.47999357 211.42840921 246.48163532 210.42411079 C246.50847772 194.12438052 246.54290821 177.82467658 246.58346039 161.5249747 C246.60812547 151.49005004 246.6265132 141.45515357 246.636616 131.42020349 C246.64405279 124.53101284 246.65864727 117.64186011 246.67868023 110.75269468 C246.68997878 106.78871146 246.69821176 102.82478912 246.69767189 98.86078835 C246.69781018 71.54894351 246.69781018 71.54894351 247.85096741 59.56271362 C247.92251303 58.81234428 247.99405866 58.06197493 248.06777233 57.28886712 C250.38389571 36.99447157 260.65037309 19.85738032 275.8125 6.52734375 C296.53767614 -9.88947376 323.87266687 -17.19982868 350 -18 C351.43666016 -18.05994141 351.43666016 -18.05994141 352.90234375 -18.12109375 C375.26073783 -18.61027354 398.53534662 -15.32495802 419 -6 C420.49466797 -5.32324219 420.49466797 -5.32324219 422.01953125 -4.6328125 C429.2767457 -1.03820829 434.06596631 3.05688739 437.05416363 10.694291 C438.08464105 14.29582144 438.25181404 17.27351809 438.25447559 21.01634407 C438.25928531 22.04489775 438.25928531 22.04489775 438.26419219 23.09423029 C438.27249083 25.39104091 438.26656831 27.68759065 438.26069641 29.98440552 C438.26371726 31.64842395 438.26760641 33.31244099 438.27228898 34.97645557 C438.28258842 39.54930671 438.28038207 44.12207961 438.27610838 48.69493723 C438.2736443 53.62793737 438.28265203 58.56091852 438.29014587 63.49391174 C438.30290944 73.16397463 438.30468403 82.83400977 438.30234561 92.50407965 C438.30056205 100.37507678 438.30231295 108.24606549 438.30657005 116.11706161 C438.30716524 117.23773646 438.30776043 118.3584113 438.30837366 119.51304599 C438.30958546 121.79001531 438.31079959 124.06698463 438.31201603 126.34395395 C438.32290056 147.71584004 438.32072635 169.08771036 438.31463119 190.45959733 C438.30947644 209.9595302 438.32067759 229.45941288 438.33972941 248.95933582 C438.35916834 269.01060574 438.36735226 289.06185201 438.36360615 309.1131314 C438.36170131 320.35817416 438.36411012 331.60317436 438.37832069 342.84820938 C438.39031377 352.43554399 438.39155252 362.02280995 438.37953053 371.61014564 C438.37369329 376.49054287 438.37239636 381.37081508 438.38453293 386.25120354 C438.55955669 461.9356464 421.57928722 537.36549297 371 596 C370.36578125 596.74507812 369.7315625 597.49015625 369.078125 598.2578125 C357.76400671 611.19449814 345.57338754 623.58424082 331.68896484 633.75097656 C329.98407092 635.01177987 328.31348529 636.30928433 326.64453125 637.6171875 C270.16610812 681.27008669 196.11737907 696.81676009 126.125 696.375 C124.81715546 696.37067963 123.50931091 696.36635925 122.16183472 696.36190796 C102.938146 696.29480955 84.03428753 695.84645807 65 693 C63.82276367 692.83371094 62.64552734 692.66742187 61.43261719 692.49609375 C2.95870344 684.06910858 -52.80535707 662.1561076 -96.72265625 622.0546875 C-98.6737616 620.29434202 -100.66013544 618.60815677 -102.6875 616.9375 C-105.82871604 614.26490361 -108.47884076 611.3087368 -111.140625 608.1640625 C-112.38795401 606.71233924 -113.6703413 605.29007162 -114.984375 603.8984375 C-164.48704125 551.32443794 -182.19125625 474.77135971 -182.14044189 404.56166077 C-182.14303542 403.09138759 -182.14605125 401.62111511 -182.1494453 400.15084356 C-182.15740179 396.16503965 -182.15929839 392.17925385 -182.16004276 388.19344294 C-182.16191325 383.87365223 -182.16946984 379.55387049 -182.17617798 375.23408508 C-182.18967688 365.81682942 -182.19577166 356.39957807 -182.20018864 346.98231435 C-182.20296328 341.09193728 -182.20720257 335.20156182 -182.21169281 329.31118584 C-182.22387037 312.96961731 -182.23417528 296.62805005 -182.2375679 280.28647709 C-182.23778747 279.24363266 -182.23800703 278.20078822 -182.23823325 277.12634244 C-182.23845153 276.08117693 -182.23866981 275.03601141 -182.2388947 273.95917422 C-182.23933815 271.84167929 -182.23978471 269.72418437 -182.24023438 267.60668945 C-182.2404558 266.55636571 -182.24067723 265.50604196 -182.24090537 264.42389023 C-182.24485511 247.39781421 -182.26232128 230.37178093 -182.2855939 213.34572143 C-182.30935024 195.82312234 -182.32177156 178.30054469 -182.32293582 160.77792925 C-182.32384973 150.95635576 -182.32953109 141.13483813 -182.34775543 131.31328011 C-182.36321381 122.95378447 -182.36824289 114.594362 -182.36001733 106.23485477 C-182.35613217 101.9773663 -182.35693528 97.72002494 -182.37107468 93.46255493 C-182.5026265 51.3695713 -182.5026265 51.3695713 -174 33 C-173.58105469 32.06929687 -173.16210938 31.13859375 -172.73046875 30.1796875 C-168.79597162 22.21998436 -163.21253485 16.22147375 -157 10 C-156.34128906 9.3296875 -155.68257812 8.659375 -155.00390625 7.96875 C-119.95388369 -25.19686274 -38.39896353 -29.4887068 0 0 Z " fill="#9CCB3C" transform="translate(2806,200)"/>
<path d="M0 0 C1.01578125 0.72445312 2.0315625 1.44890625 3.078125 2.1953125 C22.61204422 16.46223256 40.85187303 33.32114172 55 53 C55.43828125 53.59925293 55.8765625 54.19850586 56.328125 54.81591797 C96.13750232 109.51091375 110.20783704 176.38524918 110.13371277 243.05505371 C110.13558719 244.68863365 110.13789037 246.32221315 110.14057809 247.95579195 C110.14662357 252.38804282 110.14657122 256.82027463 110.14538372 261.25252867 C110.14517787 266.05408733 110.15071546 270.85564017 110.15544128 275.65719604 C110.16370604 285.03882739 110.16649413 294.42045245 110.16705366 303.80208713 C110.16753036 311.42743094 110.16959273 319.05277269 110.17275429 326.67811584 C110.18154575 348.32409977 110.18617547 369.97007876 110.18542381 391.61606449 C110.18536388 393.36217214 110.18536388 393.36217214 110.18530273 395.14355469 C110.18524141 396.89180482 110.18524141 396.89180482 110.18517885 398.67537314 C110.18477175 417.5950046 110.19436146 436.51461623 110.2084411 455.43424195 C110.2228028 474.88689497 110.22971155 494.3395383 110.22884732 513.79219675 C110.22851552 524.70336656 110.23125623 535.61451552 110.24202538 546.52568054 C110.25112714 555.80617014 110.2533079 565.08662939 110.24651595 574.36712152 C110.2432505 579.09952942 110.24319531 583.83187909 110.2518692 588.56428146 C110.2597327 592.89904626 110.25830434 597.23370662 110.24958507 601.56846887 C110.24804988 603.13337478 110.24986694 604.69828848 110.25544515 606.2631852 C110.32717334 627.81898379 110.32717334 627.81898379 105 636 C95.74281419 645.05147057 84.28001824 644.14947567 72.14526367 644.14526367 C70.74175426 644.14825931 69.33824568 644.15166277 67.93473816 644.15544128 C64.13707726 644.16424438 60.33943891 644.16661784 56.54176879 644.16725707 C54.16485535 644.16796968 51.78794757 644.170108 49.41103554 644.17275429 C41.10662092 644.18199559 32.80222232 644.18609071 24.49780273 644.18530273 C16.77649635 644.18470231 9.0552599 644.19525032 1.3339712 644.2110464 C-5.3117098 644.22415392 -11.95736803 644.22948528 -18.60306185 644.22884732 C-22.56488075 644.22859328 -26.52663744 644.23139278 -30.48844337 644.24202538 C-34.21739076 644.25176057 -37.94621715 644.25174869 -41.67516899 644.24450874 C-43.68182847 644.24297735 -45.68848809 644.25127167 -47.69512939 644.25994873 C-57.54502972 644.22595189 -66.79754583 643.905767 -75 638 C-82.1082299 629.54696985 -81.29044443 619.37065909 -81.26501465 608.92504883 C-81.26858829 607.38432186 -81.27304013 605.84359673 -81.27829123 604.30287457 C-81.29018746 600.08027072 -81.28977631 595.8577446 -81.28735614 591.63512802 C-81.28693604 587.0757901 -81.29804139 582.51647874 -81.30781555 577.95715332 C-81.32326449 570.05612048 -81.33167915 562.15510547 -81.33552551 554.25405884 C-81.34128325 542.80438905 -81.35988862 531.35476701 -81.38196605 519.90511835 C-81.41768741 501.29352422 -81.44599464 482.68192738 -81.46826172 464.0703125 C-81.46959671 462.95666081 -81.4709317 461.84300912 -81.47230715 460.6956104 C-81.48172805 452.79707382 -81.49088806 444.89853694 -81.5 437 C-81.51038634 428.0052081 -81.52090859 419.01041638 -81.53173828 410.015625 C-81.53306902 408.90818613 -81.53439977 407.80074725 -81.53577083 406.65974963 C-81.55827008 388.13620357 -81.58850234 369.61267767 -81.62413073 351.08915234 C-81.64569664 339.68319134 -81.66038853 328.27726174 -81.66596949 316.8712815 C-81.67024568 309.03686753 -81.68155873 301.20248338 -81.69819343 293.36808598 C-81.70751568 288.86084894 -81.71374416 284.35366753 -81.71113014 279.84642029 C-81.35158198 245.65638229 -81.35158198 245.65638229 -86.25 211.9375 C-86.46615967 210.99398682 -86.68231934 210.05047363 -86.9050293 209.07836914 C-92.64516488 185.1089545 -105.04673566 163.34590011 -126.21484375 150.08154297 C-159.02130019 130.20564007 -203.1810962 128.94743622 -239.6640625 137.8046875 C-266.25504138 144.8424253 -288.66513304 160.36743897 -302.890625 184.08251953 C-318.80183052 211.5839738 -322.15545778 244.16295816 -322.14476013 275.36592102 C-322.14790286 276.86476823 -322.1514797 278.36361458 -322.15544754 279.86245984 C-322.16504554 283.94082453 -322.1686794 288.01917523 -322.17129052 292.09754956 C-322.17521491 296.51129315 -322.18485003 300.92502473 -322.19384766 305.33876038 C-322.20872857 312.97452357 -322.22029855 320.61028583 -322.22979546 328.24605751 C-322.24371711 339.29570087 -322.26491049 350.34532175 -322.28822399 361.39494886 C-322.32607037 379.33824514 -322.36105501 397.28154545 -322.39282227 415.22485352 C-322.395673 416.83334061 -322.395673 416.83334061 -322.39858133 418.4743224 C-322.42543943 433.70719136 -322.44931286 448.94006354 -322.47196633 464.17293926 C-322.47356363 465.24677995 -322.47516094 466.32062064 -322.47680664 467.42700195 C-322.47840011 468.49952759 -322.47999357 469.57205324 -322.48163532 470.67707966 C-322.50840521 488.56228945 -322.54279931 506.4474749 -322.58346039 524.33265847 C-322.60821457 535.35518999 -322.62655284 546.37769537 -322.636616 557.40025028 C-322.6440089 564.94856529 -322.65853805 572.4968451 -322.67868023 580.04513679 C-322.69006379 584.39866041 -322.69820622 588.75212727 -322.69767189 593.10566711 C-322.69724331 597.0932943 -322.7059872 601.08079385 -322.72192169 605.06838825 C-322.72606631 606.50822225 -322.72687859 607.94807066 -322.72395759 609.38790766 C-322.68862655 629.2460269 -322.68862655 629.2460269 -329 637 C-337.98017512 645.28939242 -349.36674592 644.14929806 -360.8605957 644.14526367 C-362.25277801 644.14826032 -363.64495949 644.15166401 -365.03713989 644.15544128 C-368.79968592 644.16423389 -372.56220918 644.16661739 -376.32476449 644.16725707 C-378.68075243 644.16797025 -381.03673466 644.17010964 -383.39272118 644.17275429 C-391.62697082 644.18199196 -399.86120433 644.18609115 -408.09545898 644.18530273 C-415.74689803 644.18470233 -423.39826649 644.19525082 -431.04968768 644.2110464 C-437.63935402 644.22416086 -444.22899738 644.229485 -450.81867665 644.22884732 C-454.74530124 644.22859349 -458.67186302 644.23138107 -462.5984745 644.24202538 C-466.29460754 644.25177242 -469.99061857 644.25174074 -473.68675613 644.24450874 C-475.67293648 644.24298017 -477.65911699 644.2512632 -479.64527893 644.25994873 C-501.66819593 644.18340242 -501.66819593 644.18340242 -508 638 C-512.57868186 630.95312245 -514.12271784 624.5786745 -514.13142776 616.24002266 C-514.1334804 615.56987983 -514.13553303 614.899737 -514.13764787 614.20928681 C-514.1433108 611.95942181 -514.14186146 609.70961818 -514.14044189 607.45974731 C-514.14302603 605.83172945 -514.14603932 604.20371222 -514.1494453 602.57569587 C-514.15751463 598.09761053 -514.15930486 593.61954121 -514.16004276 589.14144945 C-514.16189374 584.31199241 -514.16944194 579.48254367 -514.17617798 574.65309143 C-514.1897675 564.08346245 -514.1957887 553.51383726 -514.20018864 542.94420099 C-514.20295343 536.3334956 -514.20719155 529.72279166 -514.21169281 523.11208725 C-514.22389274 504.78342595 -514.23418642 486.45476581 -514.2375679 468.12610054 C-514.23778747 466.95249768 -514.23800703 465.77889483 -514.23823325 464.56972825 C-514.23845153 463.39338374 -514.23866981 462.21703923 -514.2388947 461.00504792 C-514.23933816 458.62152934 -514.23978472 456.23801076 -514.24023438 453.85449219 C-514.2404558 452.67219602 -514.24067723 451.48989986 -514.24090537 450.27177654 C-514.24484139 431.17473373 -514.26225543 412.07772935 -514.2855939 392.98070134 C-514.3094015 373.33964631 -514.32177423 353.69861045 -514.32293582 334.05754077 C-514.32384801 323.04433215 -514.32948308 312.03117343 -514.34775543 301.01797867 C-514.36328477 291.62504416 -514.36820278 282.23217494 -514.36001733 272.83923002 C-514.35615389 268.05972674 -514.35682431 263.28035436 -514.37107468 258.50086784 C-514.57899013 184.43512625 -499.8228166 113.23231914 -453 54 C-452.18789062 52.96230469 -451.37578125 51.92460937 -450.5390625 50.85546875 C-438.33519639 35.86049762 -424.3306562 21.54326865 -408.640625 10.20068359 C-406.95162301 8.96459553 -405.30344639 7.68569301 -403.65625 6.39453125 C-378.79668176 -12.83829955 -349.72619924 -26.26518681 -320 -36 C-319.02482422 -36.31952637 -318.04964844 -36.63905273 -317.04492188 -36.96826172 C-222.88800355 -67.25107691 -107.74353849 -60.25968265 0 0 Z " fill="#9CCB3C" transform="translate(1859,236)"/>
<path d="M0 0 C1.35611389 0.00090637 1.35611389 0.00090637 2.73962402 0.00183105 C70.71109837 0.12356392 167.45153529 1.62943321 219.375 51.875 C229.60331783 62.27527901 236.62329539 74.37038683 241.125 88.1875 C241.46402344 89.20070313 241.80304687 90.21390625 242.15234375 91.2578125 C246.95767493 108.92903037 245.81807892 129.8762569 240.125 147.1875 C239.92664551 147.82977539 239.72829102 148.47205078 239.52392578 149.13378906 C234.35608358 165.70212961 224.66263928 186.78283433 209.125 195.875 C201.44198758 198.86779539 193.66561154 197.15980497 186.125 194.625 C184.34854018 194.06619258 182.57114844 193.51034147 180.79296875 192.95703125 C179.86403809 192.66521973 178.93510742 192.3734082 177.97802734 192.07275391 C137.59660914 179.54297276 94.31226406 172.04333283 52.125 169.1875 C50.91432861 169.10137451 49.70365723 169.01524902 48.45629883 168.92651367 C34.95667025 168.03247421 21.4622881 167.98734007 7.9375 168 C6.15010406 168.00090637 6.15010406 168.00090637 4.32659912 168.00183105 C-55.14318872 166.01483603 -55.14318872 166.01483603 -106.875 190.1875 C-114.00662935 198.91301785 -115.4928451 209.34978219 -114.65454102 220.31640625 C-113.56125666 230.93032205 -109.84664541 239.99617849 -101.72265625 247.05859375 C-82.68933546 261.40299272 -54.66718279 263.86635166 -31.8125 267.4375 C-29.44775555 267.81597058 -27.08317637 268.19547507 -24.71875 268.57592773 C-13.06721918 270.44446535 -1.40780654 272.26222571 10.25291443 274.07232666 C71.75542873 283.62092179 71.75542873 283.62092179 100.125 290.1875 C100.801073 290.34329529 101.477146 290.49909058 102.17370605 290.65960693 C149.40227313 301.59942127 198.19112766 317.38241132 233.69238281 351.80615234 C234.97314755 353.04108194 236.27804778 354.25086629 237.5859375 355.45703125 C262.64844935 379.15649421 274.44976959 414.87648331 279.125 448.1875 C279.22941406 448.91437012 279.33382812 449.64124023 279.44140625 450.39013672 C287.31071952 508.07768159 276.47219919 568.86718451 241.75 616.3125 C230.34718496 631.10805402 217.953342 644.74071961 203.125 656.1875 C202.58955566 656.60467285 202.05411133 657.0218457 201.50244141 657.45166016 C155.61672307 692.98840443 99.09293547 709.21717441 42.125 715.4375 C41.36629608 715.52076538 40.60759216 715.60403076 39.82589722 715.68981934 C21.97009525 717.61834194 4.14293782 718.3989607 -13.8125 718.375 C-15.09284119 718.37409363 -15.09284119 718.37409363 -16.39904785 718.37316895 C-93.02796688 718.22816568 -170.00908686 705.26970166 -265.0625 671.875 C-266.040979 671.50318604 -267.01945801 671.13137207 -268.02758789 670.74829102 C-275.42270535 667.7757502 -283.12463457 663.67197724 -287.4375 656.6875 C-292.9419461 642.33281591 -286.27014727 626.50156652 -282.015625 612.73828125 C-281.30600322 610.39003098 -280.59816929 608.04123978 -279.89202881 605.69194031 C-278.03775731 599.54089154 -276.15858459 593.39772951 -274.27416992 587.25585938 C-272.36733593 581.02370852 -270.48597694 574.78387994 -268.6015625 568.54492188 C-264.72925627 555.74780211 -260.84580266 542.95445102 -256.875 530.1875 C-256.6597316 529.48963253 -256.4444632 528.79176506 -256.22267151 528.07275009 C-255.69470166 526.36890305 -255.15421562 524.66894688 -254.61230469 522.96948242 C-254.34472351 522.12568527 -254.07714233 521.28188812 -253.80145264 520.41252136 C-251.73474739 515.44900445 -248.47518574 511.70760858 -243.84375 509 C-232.69507269 504.47589906 -221.18274918 509.13765989 -210.61843872 513.13296509 C-149.05844777 536.27957383 -82.32456036 549.46627276 -16.5 549.375 C-15.68305664 549.37439575 -14.86611328 549.3737915 -14.02441406 549.37316895 C39.55372521 549.74694653 39.55372521 549.74694653 86.11328125 526.5390625 C94.57485564 516.64805709 95.83525202 505.81285024 95.29980469 493.36767578 C94.44489161 482.70514253 89.90216877 474.28191246 81.9765625 467.29296875 C64.387847 453.88230361 38.8786815 450.1268055 17.5625 446.5 C15.67807717 446.17093979 13.7937211 445.84149716 11.90942383 445.51171875 C-3.99940186 442.75274973 -19.95086557 440.26289614 -35.90066242 437.75514793 C-209.96470068 410.38411929 -209.96470068 410.38411929 -256.62939453 348.1472168 C-282.86721437 311.57445421 -291.08931979 267.78881942 -291.125 223.5 C-291.12567474 222.73837555 -291.12634949 221.9767511 -291.12704468 221.19204712 C-291.04958477 165.65473913 -273.78198038 115.25359377 -234.5625 75.4375 C-226.5528786 67.48495428 -218.23285827 60.48648349 -208.875 54.1875 C-208.1540918 53.69733398 -207.43318359 53.20716797 -206.69042969 52.70214844 C-157.36014011 19.48144803 -96.65310555 5.0868714 -37.875 1.1875 C-36.58819336 1.10137451 -35.30138672 1.01524902 -33.97558594 0.92651367 C-22.64734906 0.21086626 -11.34916438 -0.01423192 0 0 Z " fill="#9CCB3C" transform="translate(2301.875,174.8125)"/>
<path d="M0 0 C1.18770996 0.00323273 1.18770996 0.00323273 2.39941406 0.00653076 C27.28383336 0.11506758 57.84450697 2.97454936 77.375 20.3125 C81.3628268 25.66087947 82.49913138 30.59146503 82.50380117 37.12618363 C82.50707336 38.32378024 82.51034555 39.52137686 82.51371691 40.75526428 C82.51223328 42.07510881 82.51074966 43.39495335 82.50922108 44.75479317 C82.51117377 46.17364022 82.51356252 47.59248673 82.51634905 49.01133239 C82.52276252 52.93223776 82.5229096 56.85312267 82.52207164 60.77403229 C82.52224087 65.03145976 82.52814401 69.28887983 82.5333125 73.54630363 C82.54264985 82.00028098 82.54656245 90.45425309 82.54883147 98.90823495 C82.55179057 109.03034026 82.56048622 119.1524386 82.56924575 129.27454025 C82.59010255 153.74175368 82.60056165 178.20896833 82.60937535 202.67618858 C82.61357986 214.24682727 82.6188021 225.81746544 82.62405988 237.38810369 C82.64195061 276.98198149 82.65694768 316.57585944 82.66438007 356.16974068 C82.66485483 358.65603244 82.66533072 361.1423242 82.66580774 363.62861597 C82.66604411 364.86161364 82.66628049 366.09461131 82.66652403 367.36497254 C82.66772525 373.61213013 82.66894069 379.85928772 82.67016602 386.10644531 C82.67052624 387.96610803 82.67052624 387.96610803 82.67089374 389.86333968 C82.67878899 430.07172745 82.7022252 470.28008574 82.73472196 510.48846062 C82.76900271 552.9816117 82.78872956 595.47474552 82.79202431 637.96791065 C82.79244187 642.6306851 82.79292143 647.29345954 82.79344749 651.95623398 C82.79357069 653.1043718 82.79369388 654.25250961 82.7938208 655.43543949 C82.79615495 673.92950081 82.81182684 692.42352796 82.83228934 710.91757709 C82.852523 729.49927396 82.85803629 748.08092968 82.84851871 766.66263552 C82.84329426 777.7073203 82.84922575 788.7518683 82.87105338 799.79653345 C82.88452888 807.17122848 82.88351329 814.54582902 82.87065142 821.92052492 C82.86373314 826.1244196 82.86315884 830.32805217 82.88021151 834.53192379 C82.89560616 838.35818636 82.89250442 842.18397597 82.87480123 846.01022449 C82.8701775 848.03087059 82.88514318 850.05153274 82.90096101 852.07212222 C82.83973811 860.1020596 82.28581487 868.07590531 76.59029957 874.24587006 C68.12682479 881.70404095 55.56413804 880.60424298 44.99023438 880.57128906 C43.57790447 880.57400559 42.16557598 880.57757021 40.75325012 880.58190918 C36.94952929 880.59095683 33.14591804 880.58752071 29.34219551 880.58115101 C25.34218192 880.57605122 21.34217708 880.58079344 17.34216309 880.58392334 C10.62766859 880.58755147 3.91321824 880.58279428 -2.80126953 880.57324219 C-10.53968739 880.56235986 -18.27799981 880.56588626 -26.01641512 880.576895 C-32.68682644 880.58600086 -39.35720621 880.58723708 -46.02762175 880.58201766 C-50.00002486 880.57891604 -53.97237859 880.57843847 -57.94477844 880.58509064 C-61.68117974 880.59091171 -65.41744647 880.58678111 -69.15383339 880.57530212 C-71.1614476 880.5714406 -73.16907334 880.57730035 -75.17668152 880.58355713 C-95.38841838 880.49006968 -95.38841838 880.49006968 -102.625 874.3125 C-110.83758597 865.64365925 -109.77257595 853.49553209 -109.75363445 842.33181763 C-109.75538749 841.02564431 -109.75714053 839.71947098 -109.75894669 838.37371665 C-109.76366774 834.7476243 -109.76217791 831.12155711 -109.75966892 827.49546354 C-109.75803428 823.55058032 -109.76217799 819.60570246 -109.76557809 815.66082096 C-109.77073101 808.74646075 -109.77214948 801.83210753 -109.77112198 794.91774559 C-109.76959773 784.63548328 -109.77375734 774.35322873 -109.7789966 764.07096794 C-109.78867204 744.63743375 -109.79148093 725.2039022 -109.79205366 705.77036589 C-109.7925131 690.76163385 -109.79457088 675.75290285 -109.79775429 660.74417114 C-109.79865183 656.42481709 -109.79954164 652.10546303 -109.80042917 647.78610897 C-109.80065021 646.71231427 -109.80087126 645.63851956 -109.80109901 644.53218563 C-109.80725414 614.32368802 -109.81119948 584.11519077 -109.81075573 553.9066925 C-109.81074015 552.76753887 -109.81072457 551.62838523 -109.81070852 550.45471179 C-109.81062541 544.68094631 -109.81052637 538.90718082 -109.81042381 533.13341534 C-109.81040387 531.98671673 -109.81038392 530.84001813 -109.81036337 529.65857108 C-109.81032294 527.33966536 -109.81028114 525.02075964 -109.81023798 522.70185392 C-109.80962534 486.63017072 -109.81712935 450.55849692 -109.83081055 414.48681641 C-109.84617379 373.96353047 -109.8547766 333.44025071 -109.85384732 292.91696167 C-109.85377269 288.59509277 -109.85372399 284.27322388 -109.85369301 279.95135498 C-109.85368135 278.88719673 -109.8536697 277.82303848 -109.85365769 276.72663301 C-109.85362693 259.60642211 -109.86001108 242.48621938 -109.86862527 225.36601091 C-109.87710554 208.15583942 -109.87808879 190.94567986 -109.87151595 173.73550743 C-109.86782265 163.51416298 -109.8696461 153.29285482 -109.87945829 143.07151422 C-109.88546325 136.23811444 -109.88415707 129.4047409 -109.87698779 122.57134232 C-109.87311063 118.68166007 -109.87231806 114.79204796 -109.88044515 110.90237069 C-109.94233393 79.22154162 -108.24633075 52.09260032 -85.5625 27.8125 C-63.11555728 6.04806567 -30.10437924 -0.14770988 0 0 Z " fill="#9CCB3D" transform="translate(3417.625,-0.3125)"/>
</svg>
