<?xml version="1.0" encoding="UTF-8"?>
<svg version="1.1" xmlns="http://www.w3.org/2000/svg" width="1280" height="294">
<path d="M0 0 C97.02 0 194.04 0 294 0 C294 97.02 294 194.04 294 294 C196.98 294 99.96 294 0 294 C0 196.98 0 99.96 0 0 Z M58 52 C57.04351562 52.88171875 56.08703125 53.7634375 55.1015625 54.671875 C34.66267313 73.88515778 20.31111908 102.09199633 17 130 C16.97270246 131.57180769 16.9649584 133.14404789 16.97436523 134.71606445 C16.97806625 135.52018265 16.98176727 136.32430084 16.98558044 137.15278625 C16.9903389 137.76236679 16.99509735 138.37194733 17 139 C22.47276766 139.1008019 27.94496565 139.17235343 33.41845703 139.21972656 C35.27044107 139.23952705 37.12236542 139.26657479 38.97412109 139.30175781 C55.6584739 139.61022328 72.03085854 138.0005029 87.6875 131.8125 C88.45602295 131.51770752 89.2245459 131.22291504 90.01635742 130.91918945 C122.99450219 117.86921334 151.42434387 93.08530167 165.69335938 60.21069336 C171.16290273 46.71807639 173.61469519 33.48746075 174 19 C132.02873838 9.80204267 88.91655022 22.32776914 58 52 Z M189 24 C189 105.18 189 186.36 189 270 C195.69600466 267.76799845 201.20975765 265.621807 207.3125 262.375 C208.55471313 261.71576538 208.55471313 261.71576538 209.82202148 261.04321289 C220.7472855 255.11600439 229.95918906 247.5015345 239 239 C239.88558594 238.21109375 239.88558594 238.21109375 240.7890625 237.40625 C262.20179311 217.51575143 275.72486946 185.26126414 277.12597656 156.40551758 C278.19122401 117.6891667 266.7555437 83.45649751 240 55 C226.85870464 41.34558564 209.92580279 30.28975536 192 24 C191.01 24 190.02 24 189 24 Z M16 154 C18.78044195 189.44267327 33.36901122 220.33826029 59.671875 244.44921875 C74.73314045 257.21564642 91.37260344 266.59858482 110.25 272.375 C111.41825317 272.73319824 111.41825317 272.73319824 112.61010742 273.09863281 C123.79259527 276.31926388 134.89898445 277.33009907 146.5 277.25 C148.18029297 277.26160156 148.18029297 277.26160156 149.89453125 277.2734375 C162.71406432 277.89198831 162.71406432 277.89198831 174 274 C174.20660702 244.20726752 160.10345665 217.24837713 140 196 C139.24074219 195.17628906 138.48148437 194.35257813 137.69921875 193.50390625 C121.51452523 176.52454693 99.10838366 164.37790005 76.625 158.25 C75.90723389 158.05116211 75.18946777 157.85232422 74.44995117 157.64746094 C60.59335434 154.09924706 46.70226209 153.71788877 32.5 153.875 C30.88672442 153.88506876 29.27344263 153.8941876 27.66015625 153.90234375 C23.77327895 153.92400547 19.88671193 153.95831085 16 154 Z " fill="#031D41" transform="translate(0,0)"/>
<path d="M0 0 C30.03 0 60.06 0 91 0 C91 8.25 91 16.5 91 25 C69.55 25 48.1 25 26 25 C26 35.89 26 46.78 26 58 C46.13 58 66.26 58 87 58 C87 66.25 87 74.5 87 83 C66.87 83 46.74 83 26 83 C25.71833738 103.38527373 25.71833738 103.38527373 31 115 C36.67610471 119.34576767 40.9243336 121.07947054 48.04394531 121.20532227 C49.04468079 121.22526749 50.04541626 121.24521271 51.07647705 121.26576233 C52.14952087 121.28247482 53.2225647 121.29918732 54.328125 121.31640625 C55.43226746 121.33718735 56.53640991 121.35796844 57.67401123 121.37937927 C61.19927783 121.44473646 64.72461859 121.50369564 68.25 121.5625 C70.64063265 121.60569836 73.03125782 121.64931307 75.421875 121.69335938 C81.28117511 121.80118677 87.14053194 121.9003636 93 122 C93 129.92 93 137.84 93 146 C85.66230215 146.09100804 78.3249218 146.16411821 70.9867754 146.20724869 C67.57796273 146.22796765 64.16956201 146.2559899 60.76098633 146.30175781 C56.8263879 146.35424748 52.89194591 146.3730748 48.95703125 146.390625 C47.15465752 146.42159271 47.15465752 146.42159271 45.31587219 146.45318604 C32.50207801 146.45652277 20.69696347 143.33455039 11.2578125 134.33984375 C-1.88183915 119.99082118 -0.41946929 100.38711474 -0.29296875 82.2265625 C-0.28736343 79.84760813 -0.28309777 77.46865026 -0.28010559 75.08969116 C-0.2687305 68.87221471 -0.23932739 62.65495335 -0.20599365 56.43756104 C-0.16969393 48.95418746 -0.15609666 41.47074138 -0.13863373 33.98730469 C-0.10968504 22.6580542 -0.05214634 11.3292743 0 0 Z " fill="#041D40" transform="translate(366,72)"/>
<path d="M0 0 C10.70256147 8.82238175 16.31420833 20.72900001 18.5625 34.21875 C18.5625 40.15875 18.5625 46.09875 18.5625 52.21875 C-8.4975 52.21875 -35.5575 52.21875 -63.4375 52.21875 C-59.83755668 65.48887431 -59.83755668 65.48887431 -50.25 74.09375 C-40.86987321 78.7367559 -29.97937436 79.51462027 -19.9609375 76.46484375 C-15.12486075 74.47889471 -11.17364298 71.7236919 -7.1640625 68.390625 C-5.4375 67.21875 -5.4375 67.21875 -2.4375 67.21875 C-0.81176758 68.50390625 -0.81176758 68.50390625 0.91796875 70.28125 C1.53994141 70.91289062 2.16191406 71.54453125 2.80273438 72.1953125 C3.44533203 72.86304688 4.08792969 73.53078125 4.75 74.21875 C5.40419922 74.88648438 6.05839844 75.55421875 6.73242188 76.2421875 C8.34936135 77.89453441 9.95890491 79.55346601 11.5625 81.21875 C7.6521868 89.79066863 -3.04705334 95.11051322 -11.51953125 98.2890625 C-28.4920774 103.69664749 -46.61088486 102.32197681 -62.8125 95.03125 C-74.55716969 88.56575002 -83.1454077 77.86091277 -87.4375 65.21875 C-89.2577066 58.75902626 -89.79294623 52.60034 -89.75 45.90625 C-89.74436035 44.98271729 -89.7387207 44.05918457 -89.73291016 43.10766602 C-89.4728783 28.45191037 -84.94771629 15.0420122 -74.703125 4.25 C-53.89885388 -14.40210514 -22.62122429 -16.53089467 0 0 Z M-59.4375 23.21875 C-61.89971877 27.09860988 -62.4375 28.60056524 -62.4375 33.21875 C-44.2875 33.21875 -26.1375 33.21875 -7.4375 33.21875 C-10.16423609 24.1296297 -11.8174174 19.71663822 -19.49609375 14.9375 C-23.04310056 13.06006728 -26.41423185 11.63139289 -30.4375 11.21875 C-31.4275 11.115625 -32.4175 11.0125 -33.4375 10.90625 C-43.82578439 11.15575028 -52.71154149 15.42446251 -59.4375 23.21875 Z " fill="#031D41" transform="translate(608.4375,119.78125)"/>
<path d="M0 0 C11.96348178 11.96348178 18.74700064 25.54706656 19 42.5 C18.90964965 58.71977041 13.00515213 72.50466375 1.61328125 83.98828125 C-12.74329631 97.23313451 -28.92241809 99.50171713 -47.66650391 98.86669922 C-61.21222918 97.94931941 -74.13557083 90.42060669 -83.3125 80.6875 C-93.72290401 68.26217909 -97.81820516 53.91292231 -97.15625 37.91015625 C-95.73976451 25.58400848 -91.03195248 15.32420212 -83.3125 5.6875 C-82.81363281 5.06230469 -82.31476562 4.43710938 -81.80078125 3.79296875 C-60.94711796 -19.47698802 -23.50919542 -17.77370807 0 0 Z M-63.3125 20.6875 C-69.21751762 28.39026743 -72.28679677 36.94453234 -71.3125 46.6875 C-69.27193225 57.10946011 -65.12612368 64.99594298 -56.23046875 71.12109375 C-48.09521006 75.50161766 -39.41585187 76.90407634 -30.4375 74.5625 C-20.7638805 71.40166688 -13.90744227 65.72759529 -9.28125 56.66796875 C-6.0117529 48.50936256 -5.91439815 38.64425062 -8.8125 30.375 C-13.15825845 21.13646456 -19.8414 15.29553809 -29.3125 11.6875 C-41.45801804 7.90726848 -54.45712358 11.81312063 -63.3125 20.6875 Z " fill="#031D41" transform="translate(987.3125,122.3125)"/>
<path d="M0 0 C8.58 0 17.16 0 26 0 C26.00410889 2.03784668 26.00821777 4.07569336 26.01245117 6.17529297 C26.02972009 12.94083913 26.07434007 19.70601131 26.13209057 26.47132683 C26.16624675 30.5694993 26.19145268 34.66730351 26.19555664 38.765625 C26.19986426 42.72766926 26.22852798 46.68888439 26.27343178 50.6506691 C26.28632877 52.15512368 26.29074236 53.65967789 26.28615379 55.16418076 C26.26592561 63.81783746 26.42269542 71.90079498 32 79 C38.7543421 84.18093321 45.68525591 85.03217513 54 84 C59.08637475 82.97431782 62.84066006 81.15659952 65.98173523 76.82516479 C70.66369189 68.43310145 70.47018414 59.15188569 70.51171875 49.8046875 C70.528599 48.36164863 70.54675364 46.91862415 70.56611633 45.47561646 C70.61326008 41.7110647 70.64329814 37.94657135 70.66955566 34.18182373 C70.69954293 30.32682768 70.74600992 26.47203229 70.79101562 22.6171875 C70.87664252 15.07820832 70.94263953 7.53925695 71 0 C79.58 0 88.16 0 97 0 C97.06810195 8.91960919 97.12300268 17.8390423 97.15543652 26.75885391 C97.17101253 30.90183516 97.19210097 35.04462745 97.22631836 39.1875 C97.25920267 43.1945961 97.27691345 47.20151185 97.28463173 51.2087326 C97.2901236 52.72835881 97.30084592 54.24797649 97.31719017 55.76752472 C97.46441213 70.03814631 95.99623291 84.79949191 85.8125 95.75 C73.97215283 106.64003731 60.04012223 109.57540669 44.3359375 109.2734375 C30.87433768 108.6612711 18.56911521 104.11879705 9.125 94.25 C2.75058289 86.40456355 -0.16564508 77.61927925 -0.11352539 67.66113281 C-0.11367142 66.92903091 -0.11381744 66.19692902 -0.1139679 65.44264221 C-0.11327276 63.02943938 -0.10549908 60.6163143 -0.09765625 58.203125 C-0.09579065 56.52732383 -0.09436742 54.85152212 -0.09336853 53.17572021 C-0.08955452 48.76986174 -0.07973376 44.36403634 -0.06866455 39.95819092 C-0.05842643 35.46041308 -0.05386576 30.96262989 -0.04882812 26.46484375 C-0.03811049 17.64321231 -0.02052272 8.82161408 0 0 Z " fill="#031D40" transform="translate(1065,112)"/>
<path d="M0 0 C23.61131593 -2.5190571 23.61131593 -2.5190571 30.34277344 1.34472656 C34.10465515 4.87861544 36.4739333 9.2036325 38.79980469 13.76660156 C40.76728227 17.4278068 43.27215583 20.67330503 45.75 24 C46.58163609 25.16416645 47.41013473 26.33058557 48.234375 27.5 C48.81703125 28.325 49.3996875 29.15 50 30 C53.95700027 26.40186849 56.79845515 22.18995015 59.8125 17.8125 C61.32948883 15.61691018 62.85146689 13.43023059 64.41821289 11.26977539 C66.05048479 9.0021913 66.05048479 9.0021913 67.43920898 6.46264648 C69.11011048 3.78270951 70.49334425 1.9341261 73 0 C77.86198344 -1.08338689 82.48783133 -0.85483278 87.4375 -0.5625 C88.74138672 -0.52189453 90.04527344 -0.48128906 91.38867188 -0.43945312 C94.59628975 -0.33370748 97.79620412 -0.18606379 101 0 C99.41768176 4.19360445 97.49544893 7.17181926 94.6875 10.6875 C90.49431651 16.01374513 86.45787065 21.43416954 82.5 26.9375 C81.68208984 28.07457397 81.68208984 28.07457397 80.84765625 29.23461914 C79.22955222 31.4881661 77.61421772 33.743668 76 36 C75.48743652 36.71591309 74.97487305 37.43182617 74.44677734 38.16943359 C71.62654911 42.10966117 68.81099725 46.05318219 66 50 C69.87971037 56.44796935 74.06684741 62.52141366 78.625 68.5 C83.80580365 75.29784736 88.68650993 82.26393771 93.45947266 89.35351562 C96.46892999 93.81353331 99.57692007 98.14025168 102.90283203 102.37109375 C104 104 104 104 104 106 C80.56865906 108.83121645 80.56865906 108.83121645 73.59130859 104.50732422 C69.55549899 100.48380954 66.97317157 95.60830369 64.39306641 90.57177734 C62.04488152 86.23673009 59.09440499 82.34689082 56.1875 78.375 C55.17775982 76.94759174 54.17092426 75.51812108 53.16796875 74.0859375 C52.09482422 72.55839844 52.09482422 72.55839844 51 71 C47.13705804 74.53340189 44.34337693 78.60292146 41.375 82.875 C40.83415771 83.61935303 40.29331543 84.36370605 39.73608398 85.13061523 C37.14306602 88.72869079 34.82220538 92.17386808 33.01171875 96.23046875 C30.99443562 100.39318209 29.25026574 103.83694404 25 106 C15.49075955 107.71254442 5.5690236 106.84921118 -4 106 C-0.34351378 100.13501176 3.29289429 94.3883435 7.625 89 C12.46815265 82.86609924 16.84681148 76.45256866 21.22387695 69.98120117 C25.62252694 63.49714853 30.2102866 57.20063672 35 51 C30.53585415 43.48400171 25.48547803 36.60877555 20.13452148 29.71240234 C14.57457774 22.51887099 9.3467288 15.10942186 4.16308594 7.64208984 C3.20024655 6.28271584 2.18813432 4.9583936 1.1640625 3.64453125 C0 2 0 2 0 0 Z " fill="#031D40" transform="translate(1176,112)"/>
<path d="M0 0 C2.8564297 2.51184453 5.47871792 5.15362425 8 8 C4.34958384 12.36269249 0.61135582 16.47373808 -3.484375 20.421875 C-5.21396312 22.12998502 -5.21396312 22.12998502 -7 25 C-9.94290722 23.62708123 -12.39995503 21.99776074 -15 20.0625 C-22.69028495 14.918834 -31.19948162 13.17494638 -40.33984375 14.4375 C-49.14409823 16.29919258 -55.48891959 19.75795669 -61 27 C-65.97966938 35.79019899 -67.48317203 44.9525711 -65.38671875 54.9140625 C-62.75975868 63.13054554 -57.8625206 70.12373832 -50.25 74.4375 C-41.39982056 78.19579538 -32.16612234 78.92711253 -23 76 C-17.80934046 73.69931887 -13.28553893 70.73256616 -9 67 C-5.24473608 68.52770964 -3.14969375 70.78622306 -0.5 73.8125 C0.2528125 74.66457031 1.005625 75.51664062 1.78125 76.39453125 C3.90703644 78.89083329 5.96768295 81.42727137 8 84 C-0.84625531 93.90077581 -13.56757552 101.31499658 -27.07397461 102.12426758 C-45.30131494 102.731407 -61.24539492 100.43450567 -75.3125 87.8125 C-86.19032479 77.56130215 -92.08853115 64.80426877 -93.23828125 49.9140625 C-93.63682752 32.25217009 -88.57145076 18.25597597 -76.40625 5.3203125 C-56.11698873 -14.2443323 -22.98679949 -15.72781018 0 0 Z " fill="#031D40" transform="translate(732,119)"/>
<path d="M0 0 C8.58 0 17.16 0 26 0 C26 13.2 26 26.4 26 40 C33.59 40 41.18 40 49 40 C49 47.92 49 55.84 49 64 C41.41 64 33.82 64 26 64 C26.07431412 69.53255827 26.15742483 75.06359216 26.26245117 80.59545898 C26.29553184 82.47395704 26.32361527 84.35255046 26.34643555 86.23120117 C26.38029386 88.94490889 26.43262215 91.65775576 26.48828125 94.37109375 C26.49467117 95.19959335 26.5010611 96.02809296 26.50764465 96.88169861 C26.68043256 103.86640015 27.89399974 110.23211395 32.1875 115.875 C37.46261857 119.86064514 42.50354133 120.91725689 49 122 C49 129.92 49 137.84 49 146 C35.4979592 146.545537 23.62079601 144.96532781 13 136 C2.76580387 126.24768306 0.20943996 113.21125203 -0.26107788 99.51171875 C-0.38270256 93.16379337 -0.33827525 86.81726804 -0.29296875 80.46875 C-0.28736105 78.13749466 -0.28309651 75.80623575 -0.28010559 73.47497559 C-0.26874925 67.39233327 -0.23936308 61.30991201 -0.20599365 55.22735596 C-0.17509231 48.99925729 -0.16155771 42.77112228 -0.14648438 36.54296875 C-0.11448312 24.36186731 -0.06179221 12.18098677 0 0 Z " fill="#041D41" transform="translate(754,72)"/>
<path d="M0 0 C8.58 0 17.16 0 26 0 C26 48.18 26 96.36 26 146 C17.42 146 8.84 146 0 146 C0 97.82 0 49.64 0 0 Z " fill="#031E40" transform="translate(1020,72)"/>
<path d="M0 0 C8.58 0 17.16 0 26 0 C26 48.18 26 96.36 26 146 C17.42 146 8.84 146 0 146 C0 97.82 0 49.64 0 0 Z " fill="#041E41" transform="translate(476,72)"/>
<path d="M0 0 C0 8.25 0 16.5 0 25 C-3.8671875 24.87625 -3.8671875 24.87625 -7.8125 24.75 C-16.06750185 24.67749784 -23.52560045 25.26858193 -30.1171875 30.765625 C-38.16488252 39.24742805 -38.4573228 48.15044373 -38.51171875 59.34375 C-38.52859073 60.72238742 -38.54674432 62.1010097 -38.56611633 63.47961426 C-38.61334975 67.08308171 -38.64333039 70.68648774 -38.66955566 74.29016113 C-38.69949693 77.97741828 -38.74598012 81.66446428 -38.79101562 85.3515625 C-38.87674496 92.56762092 -38.9426922 99.78364964 -39 107 C-47.58 107 -56.16 107 -65 107 C-65 72.02 -65 37.04 -65 1 C-56.42 1 -47.84 1 -39 1 C-38.67 4.63 -38.34 8.26 -38 12 C-37.01 10.9275 -36.02 9.855 -35 8.75 C-26.31222565 0.11456164 -11.85915156 -3.95305052 0 0 Z " fill="#031D40" transform="translate(888,111)"/>
</svg>
