<?xml version="1.0" encoding="UTF-8"?>
<svg version="1.1" xmlns="http://www.w3.org/2000/svg" width="2560" height="1246">
<path d="M0 0 C59.73 0 119.46 0 181 0 C178.3500255 2.6499745 176.23075313 4.16899189 173.0625 6.0625 C158.33815608 15.36003817 146.17223985 26.93622656 141 44 C140.25302253 48.48737143 139.87437583 52.7979165 139.87136555 57.3440485 C139.86652888 59.19951159 139.86652888 59.19951159 139.8615945 61.09245878 C139.86306542 62.45194386 139.86463312 63.81142883 139.86628723 65.1709137 C139.86441775 66.62558057 139.8621165 68.08024695 139.85942191 69.53491253 C139.85331361 73.52418803 139.85343639 77.51344255 139.85461628 81.50272167 C139.85482056 85.80912973 139.84929872 90.1155311 139.84455872 94.42193604 C139.83625496 102.85926357 139.83350392 111.29658412 139.83294634 119.7339154 C139.83247068 126.59997982 139.83041343 133.46604194 139.82724571 140.33210564 C139.81843689 159.82412777 139.81382624 179.3161444 139.81457619 198.80816854 C139.81461614 199.85881423 139.8146561 200.90945992 139.81469727 201.99194336 C139.81475859 203.56985172 139.81475859 203.56985172 139.81482115 205.17963701 C139.81522682 222.19393651 139.80567776 239.2082138 139.7915589 256.22250689 C139.77715644 273.71768829 139.77029096 291.2128589 139.77115268 308.70804638 C139.7714835 318.51982144 139.76878745 328.33157327 139.75797462 338.14334297 C139.74881819 346.50551826 139.74673592 354.8676598 139.75348405 363.22983796 C139.75672462 367.48772096 139.75689663 371.74553941 139.7481308 376.00341606 C139.66203361 420.77925956 143.64863475 461.56647289 175 496 C175.58136719 496.66386719 176.16273438 497.32773437 176.76171875 498.01171875 C193.75136285 516.3708052 219.52273302 525.61250496 243.90234375 527.1875 C266.92617075 527.7284416 289.19636558 519.35603199 307 505 C307.84175781 504.32324219 308.68351562 503.64648438 309.55078125 502.94921875 C335.34971417 481.00207053 347.08880168 446.26515946 349.78073263 413.48337185 C350.17149679 407.2755313 350.14478754 401.06780581 350.14044189 394.8500824 C350.14303142 393.35026205 350.1460462 391.85044239 350.1494453 390.35062367 C350.15744862 386.26019781 350.15930109 382.16978955 350.16004276 378.07935679 C350.16190487 373.65599838 350.16945757 369.23264886 350.17617798 364.80929565 C350.18971092 355.15461815 350.19577718 345.49994483 350.20018864 335.84525943 C350.20295772 329.81274818 350.20719609 323.78023852 350.21169281 317.74772835 C350.22387531 301.0306162 350.23417895 284.31350531 350.2375679 267.59638882 C350.23778747 266.52833457 350.23800703 265.46028031 350.23823325 264.35986078 C350.23845153 263.28934192 350.23866981 262.21882305 350.2388947 261.11586422 C350.23933816 258.94679034 350.23978472 256.77771646 350.24023438 254.60864258 C350.2404558 253.53272085 350.24067723 252.45679912 350.24090537 251.3482737 C350.24485662 233.90006039 350.26232515 216.45188875 350.2855939 199.00369155 C350.30931503 181.07109009 350.32176998 163.13850955 350.32293582 145.20589215 C350.32385177 135.14469411 350.32958453 125.0835505 350.34775543 115.02236748 C350.36316618 106.45979916 350.36827084 97.89730213 350.36001733 89.33472257 C350.35611527 84.96877321 350.35701897 80.60296738 350.37107468 76.23703575 C350.38383897 72.23562405 350.38259407 68.23446338 350.37048396 64.2330519 C350.36853143 62.79042255 350.37158478 61.34777526 350.38032833 59.90517109 C350.4800949 42.3229292 346.03707129 29.41814928 333.76953125 16.76171875 C328.12616157 11.13426831 322.43182858 6.42483765 315.6875 2.1640625 C314.8521875 1.58785156 314.8521875 1.58785156 314 1 C314 0.67 314 0.34 314 0 C372.74 0 431.48 0 492 0 C489.35884207 2.64115793 486.8489987 4.60860459 483.8125 6.75 C469.82520818 16.89584111 457.95078333 29.24798647 455 47 C454.9096237 49.11166339 454.87167672 51.22585526 454.86971474 53.33945084 C454.86427822 55.26976713 454.86427822 55.26976713 454.85873187 57.23907971 C454.85972846 58.66526626 454.86081058 60.09145274 454.86196899 61.51763916 C454.85955042 63.0344388 454.85668799 64.55123779 454.85341966 66.06803584 C454.84566727 70.23846098 454.84404727 74.40886966 454.84336853 78.57930112 C454.84152841 83.07735268 454.83392075 87.57539463 454.82688904 92.07344055 C454.81535975 99.87302785 454.80711677 107.67261299 454.80076981 115.47220612 C454.7904318 127.82090167 454.76986193 140.16957042 454.74765015 152.51824951 C454.74016988 156.74686041 454.7327561 160.97547143 454.72536278 165.20408249 C454.72258693 166.78947695 454.72258693 166.78947695 454.719755 168.40689959 C454.69882256 180.44199945 454.68000049 192.47710229 454.66210938 204.51220703 C454.66047119 205.61233984 454.65883301 206.71247266 454.65714519 207.84594283 C454.63092563 225.6278455 454.61224711 243.40975025 454.59551747 261.19166401 C454.57803997 279.47443781 454.54912993 297.75717135 454.5106281 316.03991294 C454.48733782 327.29904389 454.47324346 338.55810912 454.47130047 349.81726435 C454.469176 357.55454902 454.45612202 365.29176868 454.43482114 373.02902409 C454.42290349 377.47967956 454.41556499 381.93020609 454.42153358 386.38087654 C454.44847289 409.49753949 454.35661431 432.81308359 448.3125 455.3125 C448.05903809 456.28630615 447.80557617 457.2601123 447.54443359 458.26342773 C439.85909003 486.60975941 425.47736587 511.0624686 405 532 C403.93265625 533.16015625 403.93265625 533.16015625 402.84375 534.34375 C365.6708568 573.80420586 305.43549858 591.28558755 252.84692383 592.97851562 C211.24466677 593.70634336 168.71093715 584.93977613 132 565 C131.33806641 564.64824707 130.67613281 564.29649414 129.99414062 563.93408203 C114.06814719 555.45672907 100.34202485 545.11521947 87 533 C86.22914063 532.30261719 85.45828125 531.60523438 84.6640625 530.88671875 C53.21910019 500.91774447 37.03751556 455.2050063 35.90698755 412.48530209 C35.87009996 408.52262144 35.86350858 404.56057844 35.86869812 400.59779358 C35.86699234 399.07052524 35.86484101 397.54325735 35.86228687 396.0159902 C35.85771973 392.71585128 35.8562631 389.41573103 35.85725212 386.11558914 C35.85885496 380.74415103 35.85362142 375.37273125 35.84762573 370.001297 C35.83953585 362.20289681 35.83457697 354.40449987 35.83133507 346.60609627 C35.82582149 334.27273824 35.80890774 321.93940759 35.78999329 309.60606384 C35.78363759 305.38089471 35.77732904 301.1557255 35.77101612 296.9305563 C35.76943236 295.87482653 35.7678486 294.81909676 35.76621684 293.73137518 C35.74830204 281.73017981 35.73206403 269.72898253 35.71704102 257.7277832 C35.71566514 256.63145179 35.71428927 255.53512038 35.71287171 254.4055668 C35.69093273 236.63216564 35.68018205 218.8587716 35.67267027 201.08535928 C35.66459321 182.81597423 35.64128703 164.54665009 35.6047166 146.27729982 C35.58272563 135.01995125 35.57301651 123.76272801 35.57921693 112.50535905 C35.58239674 104.78970494 35.57102701 97.07415779 35.54832252 89.35853679 C35.53568488 84.91130628 35.52944852 80.46431415 35.54073906 76.01707458 C35.55095916 71.938986 35.54255272 67.86135872 35.5198761 63.78332429 C35.51491068 62.315097 35.51655403 60.84682775 35.52580877 59.37862123 C35.63248899 40.9965373 29.8484269 27.73766756 17.40234375 14.35546875 C13.5285995 10.55730975 9.31708104 7.27354821 5 4 C3.35 2.68 1.7 1.36 0 0 Z " fill="#EA0000" transform="translate(370,436)"/>
<path d="M0 0 C59.73 0 119.46 0 181 0 C177.53095159 2.77523873 174.43044586 5.04289897 170.6875 7.3125 C156.98410152 15.97599085 146.30306252 28.32107839 142.41780138 44.42956853 C141.49292833 50.11964737 141.7267267 55.91013535 141.74603271 61.65975952 C141.74372636 63.15526437 141.74054866 64.65076808 141.73657823 66.14626944 C141.72824464 70.24364746 141.73234908 74.34093207 141.73855066 78.43831038 C141.74308042 82.86255631 141.73608852 87.2867863 141.73059082 91.71102905 C141.72169858 100.37615862 141.72361873 109.04125354 141.7294161 117.70638447 C141.73393616 124.75505088 141.73454399 131.80370759 141.73236847 138.85237503 C141.73190877 140.35830087 141.73190877 140.35830087 141.73143978 141.89464945 C141.73080031 143.93440202 141.73015188 145.97415459 141.7294946 148.01390715 C141.72379105 167.14362752 141.73034808 186.27332874 141.74109533 205.40304597 C141.75001722 221.79002855 141.7484901 238.17698278 141.73925781 254.56396484 C141.72853207 273.61057267 141.72435472 292.65716366 141.73048234 311.70377409 C141.7311194 313.73900517 141.73174814 315.77423624 141.73236847 317.80946732 C141.73267702 318.81071073 141.73298557 319.81195415 141.73330347 320.84353828 C141.73502453 327.8723847 141.73212777 334.90122039 141.72740936 341.93006516 C141.72177429 350.51301859 141.72337127 359.09593549 141.73397085 367.67888479 C141.73919453 372.05171612 141.74134151 376.42448675 141.73467255 380.7973175 C141.67686283 422.2673045 145.83370706 460.49070082 174 493 C174.65484375 493.75667969 175.3096875 494.51335937 175.984375 495.29296875 C191.24507104 511.62973951 215.40423112 523.76041075 237.7980957 525.17700195 C267.9094592 525.8182128 292.16036804 519.51328383 314.6015625 498.48828125 C329.81947558 482.70031605 339.57802881 462.71724546 344.75 441.5625 C344.94883789 440.75337158 345.14767578 439.94424316 345.35253906 439.1105957 C348.38706592 425.88333776 349.29955339 412.68735767 349.26742554 399.15473938 C349.27117354 397.6281419 349.27577958 396.10154634 349.28115618 394.57495373 C349.29325824 390.42899802 349.29314109 386.28312375 349.29076743 382.13715446 C349.29035602 377.64701685 349.3014286 373.15690424 349.31088257 368.66677856 C349.32741978 359.89079728 349.33298868 351.11484289 349.33410732 342.33884732 C349.33506065 335.20356247 349.33918505 328.06828643 349.34550858 320.93300438 C349.36309603 300.67383593 349.3723506 280.41468857 349.37084763 260.15551243 C349.37076772 259.06577292 349.3706878 257.97603341 349.37060547 256.85327148 C349.37048283 255.2166533 349.37048283 255.2166533 349.37035771 253.54697212 C349.36954406 235.84815246 349.38870808 218.14941774 349.4168822 200.45062266 C349.44562708 182.24893756 349.45942182 164.04729389 349.45769465 145.84558553 C349.45703162 135.63793446 349.46248662 125.43037263 349.48405075 115.22274208 C349.50228297 106.53733969 349.50659259 97.85206706 349.4930319 89.16665379 C349.48651445 84.73963368 349.4863411 80.31286241 349.5037384 75.88586617 C349.51952681 71.82646142 349.51654727 67.76750165 349.49917014 63.70810737 C349.49611305 62.24671999 349.49968351 60.7852989 349.51089029 59.32395128 C349.63304459 42.25273178 345.0099845 29.65257824 333.42578125 17.2421875 C327.66620916 11.74326758 321.50146685 7.56803308 314.65234375 3.59375 C312 2 312 2 310 0 C368.08 0 426.16 0 486 0 C483.39672519 2.60327481 481.01199748 4.43362963 478 6.5 C464.52791604 16.2248818 453.25186735 28.40386475 450.46036083 45.25818801 C450.02857556 48.76773793 449.87405042 52.1093317 449.87250805 55.64242935 C449.8695004 56.94598916 449.86649275 58.24954897 449.86339396 59.5926106 C449.86508128 61.02725563 449.86685233 62.46190057 449.86869812 63.89654541 C449.86699471 65.43014477 449.86484445 66.96374369 449.86228687 68.49734187 C449.85769865 71.82718145 449.85626728 75.15700246 449.85725212 78.48684502 C449.85884797 83.9063426 449.85363572 89.32582182 449.84762573 94.74531555 C449.83951666 102.61798344 449.83456998 110.4906481 449.83133507 118.3633194 C449.82582679 130.83034113 449.8089149 143.29733567 449.78999329 155.76434326 C449.78363634 160.03519054 449.77732783 164.30603788 449.77101612 168.57688522 C449.76943236 169.6443228 449.7678486 170.71176038 449.76621684 171.81154455 C449.7482816 183.96176342 449.73205744 196.11198422 449.71704102 208.26220703 C449.71566514 209.37264668 449.71428927 210.48308633 449.71287171 211.62717566 C449.69099596 229.57573282 449.68019877 247.52428294 449.67267027 265.47285107 C449.66457037 283.93424702 449.64118387 302.39558308 449.6047166 320.8569448 C449.58280532 332.22217111 449.57299188 343.58727383 449.57921693 354.95252016 C449.58241644 362.76363477 449.57089898 370.5746447 449.54832252 378.3857269 C449.5357824 382.87718644 449.52932693 387.36841251 449.54073906 391.85988045 C449.64599756 437.61855014 442.74704397 482.43592512 413 519 C412.54753906 519.55929199 412.09507812 520.11858398 411.62890625 520.69482422 C379.65822532 559.95421391 332.37781903 580.70835826 283 588 C282.24041992 588.11714355 281.48083984 588.23428711 280.69824219 588.35498047 C221.10062285 597.23262496 155.13442483 581.92503642 106.5 546.375 C101.90782178 542.82303895 97.5617021 539.05089668 93.30078125 535.109375 C91.2286736 533.20964982 89.10158869 531.41773619 86.9375 529.625 C81.97617155 525.29130948 78.03290406 520.18417752 74 515 C72.88431641 513.6078125 72.88431641 513.6078125 71.74609375 512.1875 C47.55965946 481.2288641 37.81857994 442.47987078 37.86869812 403.72441101 C37.86699334 402.18649439 37.86484245 400.6485782 37.86228687 399.11066276 C37.85771116 395.78106127 37.85626481 392.45147831 37.85725212 389.12187386 C37.85885202 383.70296632 37.85362758 378.28407704 37.84762573 372.86517334 C37.8395288 364.99743849 37.83457449 357.12970686 37.83133507 349.26196861 C37.82582597 336.81955484 37.80891629 324.37716828 37.78999329 311.93476868 C37.78363725 307.673667 37.77732873 303.41256525 37.77101612 299.15146351 C37.76943236 298.08668672 37.7678486 297.02190993 37.76621684 295.92486718 C37.7482951 283.81555468 37.73206094 271.70624027 37.71704102 259.59692383 C37.71566514 258.49048957 37.71428927 257.38405531 37.71287171 256.24409274 C37.69093902 238.31213451 37.68018395 220.38018335 37.67267027 202.44821408 C37.66459325 184.02069088 37.64128599 165.59322807 37.6047166 147.16573936 C37.58272226 135.80871813 37.57301755 124.45182115 37.57921693 113.09477971 C37.5823967 105.30949147 37.57102724 97.52430924 37.54832252 89.73905381 C37.53568391 85.25133256 37.52944964 80.76384755 37.54073906 76.27611732 C37.55095799 72.160942 37.54255504 68.04622389 37.5198761 63.93110225 C37.51490997 62.44935626 37.51655542 60.96756869 37.52580877 59.48584326 C37.62534977 42.17354044 32.92107378 29.06710714 21 16.4375 C15.4860046 11.09269274 9.37547092 6.98267453 2.89453125 2.8984375 C1.46173828 1.95871094 1.46173828 1.95871094 0 1 C0 0.67 0 0.34 0 0 Z " fill="#EA0000" transform="translate(2074,436)"/>
<path d="M0 0 C1.92646362 0.3702832 1.92646362 0.3702832 3.8918457 0.74804688 C10.48080708 2.22162319 16.98796267 4.04158171 23.51171875 5.78125 C23.51171875 36.14125 23.51171875 66.50125 23.51171875 97.78125 C20.30268787 94.57221912 17.41429295 91.52354959 14.51171875 88.09375 C-5.53120678 65.87511216 -35.3033231 55.91811146 -64.48828125 53.78125 C-94.81292854 52.53453934 -128.39472321 56.1350879 -153.48828125 74.78125 C-154.00342285 75.1623291 -154.51856445 75.5434082 -155.04931641 75.93603516 C-171.85621369 88.59480472 -182.43893022 106.15084724 -186.04296875 126.98828125 C-188.64923887 149.18730134 -185.328507 170.54533133 -172.21484375 188.9765625 C-170.05996705 191.67567427 -167.83163967 194.24511072 -165.48828125 196.78125 C-164.93785156 197.4 -164.38742187 198.01875 -163.8203125 198.65625 C-154.37738409 208.72870697 -142.41035769 216.04526333 -130.48828125 222.78125 C-129.73562988 223.21099121 -128.98297852 223.64073242 -128.20751953 224.08349609 C-111.05643963 233.83183393 -93.28392222 242.29367385 -75.48828125 250.78125 C-74.37646484 251.31169922 -73.26464844 251.84214844 -72.11914062 252.38867188 C-70.11473213 253.34454242 -68.11025977 254.30027906 -66.10571289 255.25585938 C-30.51644361 272.23115711 2.79910431 290.39143893 31.51171875 317.78125 C32.21554687 318.420625 32.919375 319.06 33.64453125 319.71875 C58.50474959 343.01870359 74.07815955 378.47289977 75.68017578 412.34277344 C76.15082542 427.94313511 76.18476604 443.5288792 72.51171875 458.78125 C72.32367676 459.56935059 72.13563477 460.35745117 71.94189453 461.16943359 C65.49737681 487.07567705 52.45467436 509.25458056 34.51171875 528.78125 C33.80474854 529.5561377 33.80474854 529.5561377 33.08349609 530.34667969 C-2.74568185 569.15435277 -56.5105606 586.97823728 -107.48828125 593.78125 C-108.67550781 593.94898926 -108.67550781 593.94898926 -109.88671875 594.12011719 C-154.67510017 600.34727373 -199.77296551 594.89330308 -243.80078125 586.09375 C-244.55297943 585.94354401 -245.30517761 585.79333801 -246.08016968 585.63858032 C-250.56116634 584.7366036 -255.04002078 583.83419473 -259.48828125 582.78125 C-260.55731689 582.59224121 -261.62635254 582.40323242 -262.7277832 582.20849609 C-265.48828125 580.78125 -265.48828125 580.78125 -267.21435547 577.2512207 C-267.72384421 575.64000257 -268.20596057 574.02000076 -268.66796875 572.39453125 C-268.94889374 571.4839949 -269.22981873 570.57345856 -269.51925659 569.6353302 C-270.16250049 567.54382732 -270.7949057 565.44897279 -271.41882324 563.35162354 C-272.58946574 559.44344673 -273.80220693 555.54999327 -275.02441406 551.65771484 C-277.66588351 543.23227372 -280.27370061 534.79666244 -282.87585449 526.35900879 C-284.34927412 521.58313894 -285.82594002 516.80827202 -287.3020916 512.03324604 C-288.45121102 508.31587746 -289.59991225 504.59838181 -290.74710083 500.88041687 C-290.95778639 500.19835835 -291.16847195 499.51629984 -291.38554192 498.81357288 C-291.79908988 497.47288855 -292.21139499 496.13182012 -292.6223774 494.7903471 C-293.69577513 491.29657206 -294.80061267 487.81653183 -295.949646 484.34683228 C-296.30526013 483.25706951 -296.30526013 483.25706951 -296.6680584 482.14529133 C-297.12206472 480.75706054 -297.58418098 479.37144658 -298.05571175 477.98906994 C-299.15861328 474.59120181 -299.87318977 472.170765 -298.48828125 468.78125 C-297.575625 469.65523437 -297.575625 469.65523437 -296.64453125 470.546875 C-258.32749246 506.38457598 -205.24147745 531.56108884 -152.140625 530.9296875 C-111.86533172 529.29283066 -72.8356117 514.63210654 -44.86328125 485.03125 C-31.5458527 469.78444134 -24.47880957 451.02730065 -25.64453125 430.7578125 C-28.13758209 407.50531907 -41.86335618 390.19753486 -59.48828125 375.78125 C-78.85444039 361.18052422 -101.23365426 350.69039306 -122.88421631 339.98028564 C-126.08842935 338.39363845 -129.28918763 336.80005399 -132.49023438 335.20703125 C-139.4869521 331.72645952 -146.48749091 328.25362298 -153.48828125 324.78125 C-207.52263905 297.97788763 -261.68749388 264.64848128 -282.09619141 204.54125977 C-285.13436354 195.09507786 -287.13034498 185.60919164 -288.48828125 175.78125 C-288.58254395 175.11939697 -288.67680664 174.45754395 -288.77392578 173.77563477 C-292.78343239 142.58540316 -288.13717189 110.6523823 -273.48828125 82.78125 C-273.14925781 82.12672852 -272.81023437 81.47220703 -272.4609375 80.79785156 C-251.47981896 40.66089494 -214.25598307 15.13039819 -171.74609375 1.63671875 C-155.03624054 -3.45080241 -137.83203574 -6.3406292 -120.48828125 -8.21875 C-119.6276709 -8.31373779 -118.76706055 -8.40872559 -117.88037109 -8.5065918 C-78.2502869 -12.3571055 -38.86774453 -7.47163252 0 0 Z " fill="#EA0000" transform="translate(1997.48828125,432.21875)"/>
<path d="M0 0 C117.48 0 234.96 0 356 0 C356 32.67 356 65.34 356 99 C353.20142241 96.20142241 351.37188154 93.62687896 349.25 90.3125 C338.8726549 74.66173089 325.56803476 64.43286763 306.98202133 60.61946678 C300.03656368 59.42545553 293.0122508 59.55990378 285.98876953 59.56762695 C284.30498988 59.55850021 282.62121683 59.54808226 280.93745232 59.53649426 C276.47131874 59.50925779 272.00531426 59.49944826 267.53910828 59.49352264 C263.33191278 59.48522102 259.12486661 59.46083736 254.91772461 59.43786621 C242.6535479 59.38010559 230.38926186 59.34782426 218.125 59.3125 C190.69375 59.209375 163.2625 59.10625 135 59 C135 115.43 135 171.86 135 230 C194.07 230 253.14 230 314 230 C314 260.03 314 290.06 314 321 C310.7011402 319.3505701 309.92185988 315.88968517 308.4140625 312.640625 C303.056072 302.63509578 293.36768482 298.04498275 282.921875 294.7265625 C275.14267566 292.79216266 267.52015345 292.83099092 259.53735352 292.79467773 C258.17672944 292.78508622 256.81610827 292.77507541 255.45549011 292.76467896 C251.7783546 292.73776166 248.10120643 292.71668122 244.42402768 292.69667697 C240.57497457 292.67473564 236.7259599 292.64738699 232.87693787 292.62062073 C225.59566919 292.57080358 218.31437906 292.52582425 211.0330686 292.48259836 C202.74041473 292.43313187 194.44779945 292.37824879 186.15518296 292.32291877 C169.10349102 292.20926737 152.05176319 292.10239198 135 292 C135.03634103 322.48076205 135.093039 352.96141508 135.17792095 383.44207786 C135.1879377 387.04545059 135.19778195 390.64882377 135.20751953 394.25219727 C135.2094609 394.96952539 135.21140228 395.68685351 135.21340248 396.42591885 C135.24437341 408.02131364 135.2613894 419.61668865 135.27319422 431.21211698 C135.28563128 443.1214366 135.31319007 455.03065297 135.35461307 466.93990737 C135.377434 473.62440623 135.39291151 480.30874893 135.39188385 486.99329185 C135.39113643 493.29128177 135.40912101 499.58894651 135.44116783 505.88685226 C135.4496522 508.19217126 135.45142677 510.49752679 135.44580269 512.80285454 C135.4003227 534.31938723 138.94164309 550.17923754 154.234375 566.38671875 C158.06310386 570.00454306 162.14111478 573.08052991 166.43359375 576.125 C169 578 169 578 172 581 C115.9 581 59.8 581 2 581 C5.09079051 577.90920949 7.64305593 575.77887982 11.1875 573.375 C25.28362187 563.20176691 34.15196833 549.16151812 37 532 C37.66745871 525.40031811 37.53769675 518.76186043 37.50120544 512.13693237 C37.50510514 510.16159291 37.51075091 508.18625627 37.51797634 506.21092618 C37.53265259 500.81986079 37.52259651 495.42908984 37.50823963 490.0380342 C37.49708916 484.20975967 37.50908583 478.38152507 37.51808167 472.55325317 C37.53198789 461.15084008 37.5244775 449.74853801 37.50940608 438.34613024 C37.49762286 429.07742682 37.49405465 419.80875324 37.49632454 410.54004288 C37.49656516 409.55040881 37.49656516 409.55040881 37.49681065 408.54078214 C37.49747429 405.86229716 37.49817671 403.1838122 37.49893599 400.50532725 C37.50595145 375.40740656 37.49049697 350.30954496 37.46431253 325.21163931 C37.44119411 302.93453136 37.4358122 280.65748833 37.44604492 258.38037109 C37.44864713 252.67388347 37.4512322 246.96739584 37.45364285 241.26090813 C37.45394029 240.55827649 37.45423774 239.85564485 37.4545442 239.13172134 C37.46216553 220.49142767 37.45574126 201.85113928 37.44494683 183.21084797 C37.44379907 181.20427312 37.4426559 179.19769826 37.44152 177.19112339 C37.44038823 175.19658408 37.43923884 173.20204479 37.43808941 171.20750549 C37.43335157 161.951553 37.43519444 152.69561519 37.43945122 143.43966293 C37.44438309 132.1576344 37.43837004 120.87567294 37.41855692 109.59365974 C37.40870092 103.84015573 37.40356163 98.08675374 37.41144943 92.33324432 C37.41852833 87.06184701 37.41164996 81.79065517 37.3938458 76.51928486 C37.38981567 74.61709581 37.39077694 72.71488789 37.39736467 70.81270598 C37.46363579 49.87805582 33.50922602 33.02177081 19 17 C18.37351562 16.30390625 17.74703125 15.6078125 17.1015625 14.890625 C12.56211842 10.11031246 7.53336954 6.32140195 2.125 2.56640625 C1.42375 2.04949219 0.7225 1.53257812 0 1 C0 0.67 0 0.34 0 0 Z " fill="#EA0000" transform="translate(0,436)"/>
<path d="M0 0 C1.21472534 0.00037972 2.42945067 0.00075944 3.68098587 0.00115067 C4.35748919 -0.00000318 5.0339925 -0.00115702 5.73099592 -0.00234583 C8.02628497 -0.00501904 10.32150561 -0.0004846 12.61679119 0.00394398 C14.26757456 0.00350842 15.91835786 0.0026338 17.56914079 0.00135481 C22.12751971 -0.00089317 26.68587536 0.00313526 31.24425131 0.00813287 C36.15157338 0.01243286 41.05889403 0.01099127 45.96621746 0.0102306 C54.47584449 0.00970508 62.98546388 0.01285483 71.49508899 0.01846844 C83.79872938 0.02657962 96.10236606 0.02919827 108.40600883 0.03045643 C128.36563024 0.03264755 148.32524756 0.03930927 168.28486675 0.04875904 C187.67907227 0.05793161 207.07327669 0.0650132 226.46748394 0.06926686 C227.66201945 0.06952958 228.85655495 0.0697923 230.08728851 0.07006299 C236.07964637 0.07136798 242.07200424 0.0726317 248.06436211 0.07387489 C297.81324082 0.08424938 347.56211511 0.10186933 397.3109898 0.1241985 C396.53043634 2.79681926 395.7484801 5.46901672 394.96574444 8.14099842 C394.74801467 8.88703973 394.5302849 9.63308103 394.30595726 10.40172964 C392.11414977 17.87618957 389.70511628 25.27358173 387.2563023 32.66716725 C386.78670486 34.09223473 386.31738196 35.51739271 385.8483128 36.94263417 C384.62694233 40.65178276 383.4025878 44.35993835 382.1773228 48.06780201 C380.22892157 53.96530102 378.28466993 59.86416794 376.34131664 65.76333195 C375.63753672 67.89825506 374.93235285 70.03271089 374.22706646 72.16713673 C372.14882567 78.4658616 370.09515764 84.76913565 368.12641948 91.1032024 C367.80309643 92.14116459 367.47977337 93.17912678 367.14665264 94.24854237 C366.56043488 96.14211438 365.98082261 98.03774937 365.40916485 99.93576771 C364.76578965 102.01672981 364.04668975 104.07405692 363.3109898 106.1241985 C362.6509898 106.4541985 361.9909898 106.7841985 361.3109898 107.1241985 C360.7831187 105.58312428 360.7831187 105.58312428 360.24458355 104.01091725 C354.04688537 86.40638646 345.67126806 73.65713206 328.5453648 65.4366985 C322.89824576 63.14511396 317.61580878 62.9615868 311.57344097 62.91887623 C310.70464306 62.90897663 309.83584514 62.89907704 308.94072002 62.88887745 C306.0784936 62.8573734 303.21625061 62.83254899 300.35395855 62.80779225 C298.36569842 62.78721314 296.37744258 62.76621641 294.38919109 62.74481922 C289.16304539 62.68969741 283.93686085 62.64024459 278.710648 62.59197193 C273.37491959 62.54168461 268.0392474 62.48603632 262.70356792 62.43083912 C252.23942326 62.32337855 241.77522974 62.2219068 231.3109898 62.1241985 C231.32079204 106.8444072 231.33666151 151.56461188 231.38528484 196.28479725 C231.38600429 196.94698889 231.38672375 197.60918053 231.387465 198.29143859 C231.40313882 212.68369327 231.41992132 227.07594646 231.43784542 241.46819852 C231.44662903 248.52646454 231.45516773 255.58473085 231.46357769 262.64299732 C231.46441874 263.34536837 231.46525978 264.04773941 231.46612632 264.77139442 C231.49325752 287.52488362 231.5042257 310.27834561 231.50678504 333.03184973 C231.50957839 357.08344566 231.53084625 381.13496378 231.57151437 405.18652618 C231.59527516 419.59080598 231.60431438 433.99494038 231.5945029 448.39923707 C231.58918584 458.27776458 231.60222311 468.15616183 231.6296527 478.03465226 C231.64493575 483.73343195 231.65216532 489.4319201 231.63758701 495.13070828 C231.62440692 500.3528744 231.6343867 505.5744763 231.66242752 510.79657904 C231.66852262 512.68104283 231.66627519 514.56555699 231.65461906 516.44999459 C231.56151001 532.78722877 234.63099413 544.20272226 245.3109898 557.1241985 C246.4228062 558.48158131 246.4228062 558.48158131 247.55708355 559.866386 C253.25943303 566.47699147 259.54147801 571.68720915 266.50239605 576.90935475 C269.3109898 579.1241985 269.3109898 579.1241985 270.3109898 581.1241985 C211.5709898 581.1241985 152.8309898 581.1241985 92.3109898 581.1241985 C92.3109898 580.4641985 92.3109898 579.8041985 92.3109898 579.1241985 C93.88815219 577.87386253 95.52600301 576.69977808 97.1859898 575.5616985 C113.28997948 564.06179817 125.78146608 550.07219563 129.3109898 530.1241985 C129.56163354 527.31343516 129.58685953 524.52852944 129.57270283 521.70783859 C129.57669889 520.90729511 129.58069495 520.10675163 129.5848121 519.28194925 C129.59573734 516.61284173 129.59259205 513.94394322 129.5894627 511.274818 C129.59446833 509.33664157 129.60034492 507.39846722 129.60701543 505.4602958 C129.62279695 500.14468267 129.6262451 494.82912243 129.62766403 489.51348871 C129.63136129 483.77738171 129.64651841 478.0413036 129.66027874 472.30521351 C129.68254511 462.37045746 129.69756216 452.43571169 129.70764583 442.50093609 C129.7222356 428.13694705 129.7477733 413.77299386 129.77597712 399.40902586 C129.82143966 376.10405046 129.85807374 352.79907025 129.8891148 329.49407154 C129.9192881 306.856367 129.95363099 284.21867505 129.99360698 261.58098561 C129.99483799 260.88295117 129.99606899 260.18491674 129.9973373 259.46572975 C130.00970436 252.45565503 130.02215607 245.44558046 130.03466978 238.43550599 C130.13957316 179.66508845 130.23020415 120.89465407 130.3109898 62.1241985 C116.94088566 62.16232342 103.57106006 62.22178454 90.20117515 62.30810124 C83.99224556 62.34752421 77.78345671 62.37973827 71.57441753 62.39519459 C65.57661448 62.41039501 59.57919847 62.44490134 53.58156818 62.49250752 C51.29921191 62.5072863 49.01680036 62.51523749 46.7343964 62.51608235 C43.52473126 62.51846424 40.31612518 62.54564326 37.10664409 62.57830006 C36.17371532 62.57326969 35.24078655 62.56823933 34.27958721 62.56305653 C13.11427333 62.89384874 -3.93181746 79.45474114 -18.1890102 93.4366985 C-25.14051642 100.61244685 -31.401982 108.36877142 -37.6890102 116.1241985 C-38.81426135 112.74844505 -38.57876682 112.01776634 -37.52763325 108.74700123 C-37.24465885 107.85124378 -36.96168446 106.95548634 -36.67013508 106.03258473 C-36.35023106 105.05090321 -36.03032704 104.06922169 -35.70072895 103.05779225 C-35.20534374 101.50055439 -35.20534374 101.50055439 -34.69995075 99.91185719 C-33.6000121 96.4592353 -32.48814456 93.01057067 -31.3765102 89.5616985 C-30.21627456 85.93012492 -29.05927709 82.29753085 -27.90266377 78.66480213 C-27.09294712 76.1216833 -26.28238648 73.57884862 -25.47071797 71.03635365 C-22.4596759 61.5961582 -19.50722461 52.13866106 -16.58354145 42.6710735 C-16.37674952 42.00182913 -16.16995758 41.33258476 -15.95689923 40.64306027 C-14.13090375 34.73308481 -12.30712037 28.82243109 -10.48890644 22.91005665 C-9.37075069 19.27618874 -8.24892454 15.64347159 -7.1265102 12.01091725 C-6.79186253 10.91869862 -6.45721485 9.82647999 -6.11242634 8.70116383 C-5.80640995 7.71243275 -5.50039356 6.72370167 -5.18510395 5.70500904 C-4.91883198 4.83974095 -4.65256001 3.97447285 -4.37821919 3.08298451 C-3.34103218 0.13521766 -3.24455157 0.14985753 0 0 Z " fill="#EA0000" transform="translate(1320.6890102028847,435.8758015036583)"/>
<path d="M0 0 C60.39 0 120.78 0 183 0 C179.84141844 2.36893617 176.69187807 4.49834731 173.375 6.625 C167.39521571 10.60181148 162.12259755 14.97539997 157 20 C156.35160156 20.62390625 155.70320313 21.2478125 155.03515625 21.890625 C148.28036261 28.92625251 142.87879576 39.17853406 142.87284148 49.10249722 C142.86992944 49.91757209 142.86701741 50.73264696 142.86401713 51.57242107 C142.86589734 52.46414485 142.86777755 53.35586863 142.86971474 54.27461433 C142.86777131 55.22874808 142.86582788 56.18288183 142.86382556 57.16592872 C142.85847869 60.38782333 142.86027177 63.60967543 142.86196899 66.83157349 C142.85955208 69.15525799 142.85669017 71.47894207 142.85341966 73.80262554 C142.8464637 79.53546958 142.84411292 85.26830286 142.84362262 91.0011508 C142.84275806 97.86715298 142.8360763 104.73314619 142.82904707 111.59914439 C142.81696087 123.49926931 142.80830402 135.39939364 142.80200893 147.29952293 C142.79197162 166.21214253 142.77271425 185.1247441 142.75046654 204.03735288 C142.74193534 211.3172188 142.73366897 218.59708504 142.72536278 225.87695122 C142.72397526 227.0903139 142.72397526 227.0903139 142.72255972 228.32818895 C142.70055904 247.59281423 142.6807758 266.85744153 142.66210938 286.12207031 C142.6612897 286.96511484 142.66047002 287.80815937 142.6596255 288.6767507 C142.640565 308.32057046 142.62360086 327.96439012 142.61126709 347.60821533 C142.61073742 348.4515255 142.61020775 349.29483566 142.60966204 350.16370068 C142.60541092 356.96011013 142.60123439 363.75651961 142.59707724 370.55292911 C142.57984494 398.62928367 142.55258411 426.70561371 142.51391686 454.78194722 C142.50845573 458.75521396 142.50312262 462.72848086 142.49787521 466.70174789 C142.49684083 467.48365522 142.49580645 468.26556254 142.49474073 469.07116402 C142.47847174 481.61112054 142.47289034 494.15105975 142.47157755 506.69102581 C142.47006612 519.32246909 142.45781003 531.95386584 142.43482114 544.5852886 C142.42269163 551.4177626 142.41560257 558.25014701 142.42153358 565.08263206 C142.426881 571.35559995 142.41817938 577.6283959 142.39897721 583.90133522 C142.39445244 586.15334125 142.39480105 588.40536441 142.40092559 590.65736665 C142.54727329 649.81834053 124.95510478 703.48440017 83 746 C49.75033674 779.26093816 -5.0351737 809.8126374 -53 810 C-53 809.34 -53 808.68 -53 808 C-51.453125 806.66015625 -51.453125 806.66015625 -49.25 805.0625 C1.55713905 766.55771852 27.83387837 699.97274147 36.4555676 638.76584506 C39.84958909 612.19327255 39.43175097 585.48808344 39.39217401 558.75024438 C39.38601754 552.5823749 39.39411859 546.4145363 39.4016161 540.24667103 C39.41728794 526.88522887 39.41609599 513.52383015 39.40737936 500.16238401 C39.39979789 488.48247192 39.39787879 476.80257564 39.4014473 465.12266159 C39.40167645 464.34441292 39.40190561 463.56616425 39.40214171 462.76433229 C39.40307586 459.60448853 39.40403108 456.44464477 39.405021 453.28480103 C39.41416699 423.73819968 39.40592344 394.19162586 39.38973031 364.64502877 C39.37546583 338.41779747 39.37679688 312.19060985 39.39111328 285.96337891 C39.40717893 256.43358611 39.41354892 226.90381749 39.40427649 197.37402093 C39.40331442 194.22714449 39.4023759 191.08026803 39.4014473 187.93339157 C39.40121006 187.15865694 39.40097283 186.38392231 39.40072841 185.58571088 C39.39731979 173.90037149 39.40129907 162.21504963 39.40888596 150.52971268 C39.41746116 137.25673284 39.41532316 123.98380284 39.39904372 110.71082921 C39.39101379 103.94089592 39.38807803 97.17105682 39.39799118 90.40112305 C39.40692673 84.20536485 39.4020239 78.00977787 39.38605852 71.81403522 C39.3827063 69.57256924 39.38441466 67.3310888 39.39168589 65.08963211 C39.40081271 62.04264567 39.39144691 58.99624527 39.37752342 55.94928932 C39.38454692 55.07985575 39.39157042 54.21042218 39.39880675 53.31464213 C39.24810124 36.80606316 30.33439339 25.35359996 19.1015625 14.09765625 C14.08822798 9.43335135 8.43696907 6.05948861 2.5625 2.6015625 C1.2940625 1.80878906 1.2940625 1.80878906 0 1 C0 0.67 0 0.34 0 0 Z " fill="#EA0000" transform="translate(893,436)"/>
<path d="M0 0 C0.75774719 0.00337372 1.51549438 0.00674744 2.29620361 0.01022339 C46.51984704 0.29379006 85.48034418 18.84693367 116.8125 49.4375 C119.29514393 51.99958854 121.58127857 54.65463 123.8125 57.4375 C124.59238281 58.40300781 125.37226562 59.36851563 126.17578125 60.36328125 C153.84880358 95.16147018 167.97822368 139.42482752 163.30859375 183.83984375 C158.80951816 219.66441894 142.55476823 250.50500604 117.8125 276.4375 C116.70261719 277.62666016 116.70261719 277.62666016 115.5703125 278.83984375 C88.52530306 307.02411182 47.89916816 323.58766709 9.10546875 324.640625 C-36.28823214 325.22183614 -77.81363786 310.74764031 -110.69042969 278.92333984 C-117.87906521 271.78863082 -124.50993238 264.19373272 -130.85546875 256.3046875 C-135.01325488 251.19276954 -139.34185295 246.22662296 -143.64355469 241.23583984 C-145.15786086 239.47202276 -146.66247383 237.7004311 -148.1640625 235.92578125 C-151.14518092 232.40622077 -154.15921968 228.91651453 -157.1875 225.4375 C-157.70425293 224.83873047 -158.22100586 224.23996094 -158.75341797 223.62304688 C-173.71469122 206.4007748 -192.3832249 193.25675168 -215.78955078 191.20996094 C-238.43369501 189.92935666 -258.84713461 195.38258026 -276.1875 210.4375 C-276.76242187 210.85902344 -277.33734375 211.28054687 -277.9296875 211.71484375 C-292.38202537 222.67064827 -300.27123317 242.18667609 -303.7734375 259.30078125 C-306.77422395 282.03315405 -301.09005855 303.07926296 -287.375 321.375 C-274.18883861 338.09878822 -254.92727068 347.27430351 -234.1875 350.4375 C-209.20020268 352.66806856 -185.84683272 346.03621488 -166.1875 330.4375 C-162.03684063 326.9261781 -158.09960773 323.21051057 -154.1875 319.4375 C-153.55457031 318.85613281 -152.92164063 318.27476562 -152.26953125 317.67578125 C-143.19962452 309.12292384 -135.99523441 298.49171896 -129.2722168 288.06054688 C-128.26605641 286.50502582 -127.22992089 284.96895785 -126.1875 283.4375 C-125.8575 283.4375 -125.5275 283.4375 -125.1875 283.4375 C-124.88464449 292.86067522 -124.65450155 302.2821464 -124.51394176 311.70914745 C-124.44643315 316.08805345 -124.35509464 320.46360257 -124.20678711 324.84057617 C-124.06423064 329.07492116 -123.98755091 333.30606601 -123.95409584 337.54262733 C-123.93029891 339.1484343 -123.88382349 340.75408969 -123.81300926 342.35851097 C-123.51666442 349.3591069 -123.31702718 355.55551285 -127.91763306 361.21182251 C-131.08682967 364.6069085 -134.54407497 367.56712558 -138.1875 370.4375 C-139.15022245 371.21319965 -139.15022245 371.21319965 -140.13239384 372.00457001 C-162.1570925 389.72149097 -188.89106487 400.16531695 -217.1875 401.4375 C-218.33992187 401.49035156 -219.49234375 401.54320312 -220.6796875 401.59765625 C-257.2651281 402.44420065 -290.00254261 388.98877013 -317.12890625 364.81640625 C-340.81988329 342.13642397 -355.37426761 310.26619948 -356.390625 277.44921875 C-356.88988028 243.46806023 -347.70053664 209.02845052 -323.64746094 183.95727539 C-322.64243742 182.93087181 -321.63356952 181.90821626 -320.62060547 180.88964844 C-319.2752299 179.52639564 -317.96623031 178.12751366 -316.66015625 176.7265625 C-310.48428943 170.2203819 -303.69652866 165.24543921 -296.1875 160.4375 C-294.82238281 159.52871094 -294.82238281 159.52871094 -293.4296875 158.6015625 C-278.56570059 149.24275593 -261.40209995 144.22491743 -244.1875 141.4375 C-243.27226563 141.28667969 -242.35703125 141.13585937 -241.4140625 140.98046875 C-238.99357424 140.6706793 -236.62677648 140.52308865 -234.1875 140.4375 C-232.91390625 140.3859375 -231.6403125 140.334375 -230.328125 140.28125 C-193.1579982 139.27958478 -161.1665445 151.73254642 -134.3203125 177.15234375 C-129.36024684 182.04456657 -124.69418199 187.12862861 -120.1875 192.4375 C-119.30780975 193.46528741 -118.42755352 194.49259053 -117.546875 195.51953125 C-117.06476563 196.0818042 -116.58265625 196.64407715 -116.0859375 197.22338867 C-115.58320312 197.80967041 -115.08046875 198.39595215 -114.5625 199 C-113.51559792 200.22133096 -112.46872346 201.44268558 -111.421875 202.6640625 C-110.88884766 203.28571289 -110.35582031 203.90736328 -109.80664062 204.54785156 C-108.73677009 205.79646404 -107.66774365 207.04580033 -106.59960938 208.29589844 C-82.05383399 237.0032572 -56.15748087 263.92989154 -17.1875 270.4375 C-16.53394531 270.54835938 -15.88039063 270.65921875 -15.20703125 270.7734375 C13.25194502 274.72458993 41.73053402 266.85681969 64.9375 250.25 C88.31997946 231.90277856 103.99323733 206.12486829 107.8125 176.4375 C108.12849706 171.58000442 108.19430388 166.7419365 108.1875 161.875 C108.18695618 161.21619843 108.18641235 160.55739685 108.18585205 159.87863159 C108.1443949 148.92615002 107.26770813 138.8425674 103.8125 128.4375 C103.59819336 127.7882959 103.38388672 127.1390918 103.16308594 126.47021484 C98.28404922 112.22726267 90.90075764 99.60724589 80.8125 88.4375 C80.05324219 87.59574219 79.29398438 86.75398438 78.51171875 85.88671875 C59.87820499 66.27730902 33.48349172 54.06508555 6.40234375 53.1015625 C-29.85734219 52.60485447 -57.7098043 64.60458754 -83.60546875 89.7890625 C-103.03527296 110.38677844 -115.75270822 136.40068781 -126.1875 162.4375 C-126.5175 162.4375 -126.8475 162.4375 -127.1875 162.4375 C-127.49003894 149.91962807 -127.7203588 137.40263934 -127.86105824 124.88184261 C-127.92862417 119.06630871 -128.02010231 113.25329341 -128.16821289 107.43920898 C-128.31051295 101.81739019 -128.38740621 96.19797733 -128.42090416 90.57449532 C-128.44474204 88.44016226 -128.4912942 86.30594635 -128.56199074 84.17265129 C-128.92254334 72.8314048 -128.78167604 64.46187894 -120.85424805 55.77172852 C-119.1797704 54.06506729 -117.47551867 52.42315215 -115.70342064 50.81837654 C-113.76255654 49.05041216 -112.01173962 47.13201014 -110.25 45.1875 C-104.65016966 39.77511168 -98.43338112 35.07175303 -92.1875 30.4375 C-91.61676758 30.01178711 -91.04603516 29.58607422 -90.45800781 29.14746094 C-64.18360598 9.84535873 -32.48548108 -0.28377687 0 0 Z " fill="#EA0000" transform="translate(1202.1875,-0.4375)"/>
<path d="M0 0 C60.06 0 120.12 0 182 0 C178.56789741 2.74568207 175.64297002 4.87722281 171.9375 7.0625 C158.53745881 15.52568391 147.98372047 26.72730824 143 42 C142.82278296 42.54029785 142.64556592 43.0805957 142.46297866 43.63726622 C141.7862431 47.09087242 141.85897141 50.525274 141.86577892 54.030303 C141.86342669 54.84988486 141.86107446 55.66946672 141.85865095 56.5138844 C141.85195981 59.27794113 141.85241921 62.04195086 141.85282898 64.80601501 C141.84953042 66.80073114 141.84580487 68.79544659 141.8416875 70.79016119 C141.83165833 76.28579011 141.82794922 81.78140811 141.82529819 87.27704489 C141.8213978 93.198892 141.81181921 99.12073044 141.80308533 105.04257202 C141.78424718 118.67531729 141.77406317 132.30806409 141.76562465 145.94081897 C141.76141763 152.67899916 141.75619567 159.41717846 141.75094012 166.1553579 C141.73304855 189.22470655 141.71805353 212.29405545 141.71061993 235.36341 C141.71014517 236.81177431 141.70966928 238.26013861 141.70919226 239.70850292 C141.70895589 240.42675726 141.70871951 241.1450116 141.70847597 241.88503123 C141.70727478 245.52402147 141.70605933 249.16301172 141.70483398 252.80200195 C141.70459383 253.52416925 141.70435368 254.24633654 141.70410626 254.99038769 C141.6962162 278.39619022 141.67279114 301.80194203 141.64027804 325.20772241 C141.60596014 349.95799932 141.5862669 374.70824656 141.58297569 399.45854765 C141.58255815 402.17705732 141.58207859 404.89556697 141.58155251 407.61407661 C141.58142931 408.2834421 141.58130612 408.95280758 141.5811792 409.64245686 C141.57899361 419.7375779 141.56570724 429.83264581 141.54651451 439.92774773 C141.52481033 451.41681784 141.51675573 462.90579533 141.52648129 474.39488363 C141.53102688 480.25569053 141.52912442 486.11630631 141.50971985 491.97708702 C141.4920942 497.34702722 141.49308136 502.71663678 141.50861714 508.08658046 C141.5109941 510.02477222 141.50666514 511.96298684 141.49478849 513.90114366 C141.38940079 532.24190355 144.85779675 547.94519649 157.7890625 561.9296875 C165.17212119 568.84315235 173.33805542 574.80283325 182 580 C182 580.33 182 580.66 182 581 C121.94 581 61.88 581 0 581 C2.96582307 578.03417693 5.22801857 576.05317994 8.625 573.8125 C23.00827439 563.87111917 34.7393627 551.30801611 39 534 C39.26811651 531.17399226 39.2725543 528.36967989 39.25726891 525.53249741 C39.26077498 524.70210133 39.26428105 523.87170524 39.26789337 523.01614565 C39.27719795 520.23333265 39.27228647 517.45072936 39.26742554 514.66790771 C39.27116227 512.65267684 39.27576388 510.63744741 39.28115618 508.62222028 C39.29339874 503.08388628 39.29312423 497.54561263 39.29076743 492.00726819 C39.29035958 486.03438207 39.30139535 480.06151539 39.31088257 474.08863831 C39.32750041 462.38638038 39.33301838 450.68413754 39.33410732 438.98186961 C39.33502663 429.47030409 39.33914444 419.9587451 39.34550858 410.4471817 C39.34730368 407.70866752 39.34908331 404.97015334 39.35085833 402.23163915 C39.35130043 401.55082311 39.35174252 400.87000708 39.35219802 400.16856026 C39.36450556 381.01969606 39.37239923 361.87083412 39.37151146 342.72196579 C39.37146472 341.63914706 39.37146472 341.63914706 39.37141704 340.53445321 C39.37125083 336.87572398 39.37105275 333.21699476 39.37084763 329.55826554 C39.37080774 328.83163759 39.37076785 328.10500964 39.37072675 327.35636267 C39.37064587 325.88694385 39.37056228 324.41752502 39.37047596 322.9481062 C39.36925056 300.08826281 39.38426207 277.22847876 39.41162109 254.36865234 C39.44235121 228.68156047 39.45955303 202.99450759 39.45769465 177.30739617 C39.45754539 174.56762457 39.45744798 171.82785297 39.45738602 169.08808136 C39.45735105 168.07619122 39.45735105 168.07619122 39.45731538 167.04385885 C39.45725387 156.19431122 39.47001818 145.34481517 39.48725055 134.49528287 C39.50421544 123.58846248 39.50583142 112.68172104 39.4930319 101.77489486 C39.4864964 95.8677381 39.48640633 89.96076799 39.5037384 84.05362892 C39.51944801 78.64381523 39.51662678 73.23433652 39.49917014 67.82453111 C39.49609563 65.86964356 39.49974957 63.91473115 39.51089029 61.95987293 C39.56406071 51.966565 39.5927448 43.15083851 35 34 C34.48179688 32.96746094 33.96359375 31.93492187 33.4296875 30.87109375 C25.42973734 18.34855869 14.81390957 9.75023389 2.11328125 2.30859375 C1.41589844 1.87675781 0.71851563 1.44492187 0 1 C0 0.67 0 0.34 0 0 Z " fill="#EA0000" transform="translate(1101,436)"/>
</svg>
