<?xml version="1.0" encoding="UTF-8"?>
<svg version="1.1" xmlns="http://www.w3.org/2000/svg" width="2560" height="523">
<path d="M0 0 C1.09270203 -0.00100708 2.18540405 -0.00201416 3.31121826 -0.00305176 C20.23556387 0.00749243 36.74923641 0.64537579 53.5 3.25 C54.97581543 3.4668042 54.97581543 3.4668042 56.48144531 3.68798828 C88.91718119 8.51327156 121.01115688 17.83677593 150.5 32.25 C152.1769944 33.0496657 153.85407966 33.84914088 155.53125 34.6484375 C172.15727038 42.67171811 187.75798747 52.14038537 202.5 63.25 C203.08233398 63.68812012 203.66466797 64.12624023 204.26464844 64.57763672 C211.8212819 70.30179688 218.96881048 76.33645775 225.8828125 82.8203125 C227.98061379 84.76782355 230.10309773 86.62088035 232.3125 88.4375 C235.39373324 91.04469735 237.97324033 93.94598526 240.578125 97.0234375 C241.90565247 98.56142664 243.27347943 100.06521393 244.671875 101.5390625 C256.78497848 114.32511617 266.94742571 128.87759145 275.5 144.25 C276.02932129 145.19335205 276.02932129 145.19335205 276.56933594 146.15576172 C288.5 167.53918269 288.5 167.53918269 288.5 174.25 C180.92 174.25 73.34 174.25 -37.5 174.25 C-38.985 178.705 -38.985 178.705 -40.5 183.25 C-41.64250117 185.805075 -42.80509504 188.30147651 -44.0546875 190.80078125 C-44.39213989 191.48812347 -44.72959229 192.1754657 -45.07727051 192.88363647 C-45.79794276 194.3507663 -46.52099899 195.81672718 -47.24627686 197.28158569 C-49.18767819 201.2047533 -51.10905947 205.13770575 -53.03125 209.0703125 C-53.41727386 209.85929428 -53.80329773 210.64827606 -54.20101929 211.46116638 C-57.5141775 218.24677859 -60.71823086 225.07756823 -63.875 231.9375 C-69.10508016 243.28999234 -74.44026052 254.58923377 -79.8125 265.875 C-85.75569014 278.36265805 -91.68209483 290.85764414 -97.5625 303.375 C-103.18590609 315.34402305 -108.83431847 327.30093001 -114.5 339.25 C-120.5130335 351.9320634 -126.50648135 364.62307243 -132.47546387 377.32592773 C-136.3289469 385.52607797 -140.19327497 393.72090659 -144.078125 401.90625 C-144.46416901 402.71967865 -144.85021301 403.5331073 -145.24795532 404.3711853 C-146.02794831 406.0146105 -146.80794708 407.65803294 -147.58795166 409.30145264 C-154.99332677 424.90528861 -162.31518646 440.54316345 -169.5 456.25 C-173.83320962 455.33092399 -177.17932724 453.16589524 -180.875 450.8125 C-181.58180908 450.36511475 -182.28861816 449.91772949 -183.0168457 449.45678711 C-194.27931482 442.26135573 -204.82283682 434.46372829 -214.88354492 425.66162109 C-216.02661882 424.66339526 -217.17584756 423.67219679 -218.3293457 422.68603516 C-230.68150152 412.05547161 -242.76485612 400.35364475 -252.5 387.25 C-252.97566406 386.62367676 -253.45132813 385.99735352 -253.94140625 385.35205078 C-262.41405676 374.1705461 -269.89610461 362.62909684 -276.5 350.25 C-276.89670898 349.50733887 -277.29341797 348.76467773 -277.70214844 347.99951172 C-291.49266415 321.69580803 -300.44520307 291.10005654 -300.73828125 261.28125 C-300.7480751 260.45139587 -300.75786896 259.62154175 -300.76795959 258.76654053 C-301.0148299 232.41793566 -298.78772102 208.43599256 -290.5 183.25 C-290.15630371 182.20223389 -290.15630371 182.20223389 -289.80566406 181.13330078 C-281.51332456 156.4307945 -268.62128216 132.82858086 -251.859375 112.86962891 C-250.48437331 111.23138156 -249.13258337 109.57576523 -247.78125 107.91796875 C-236.40797378 94.1442827 -223.72507461 81.08310451 -209.5 70.25 C-208.50097656 69.45722656 -207.50195312 68.66445312 -206.47265625 67.84765625 C-157.63478906 29.22957884 -97.08013938 7.58349235 -35.5 1.25 C-34.67838379 1.1557373 -33.85676758 1.06147461 -33.01025391 0.96435547 C-22.04808621 -0.14636625 -11.00623669 0.0070231 0 0 Z " fill="#024CA2" transform="translate(300.5,10.75)"/>
<path d="M0 0 C38.84586573 -0.06882227 77.6917222 -0.12160778 116.53763667 -0.15319599 C121.13454759 -0.15694764 125.7314584 -0.16083066 130.32836914 -0.16479492 C131.70098346 -0.16597532 131.70098346 -0.16597532 133.10132735 -0.16717956 C147.87475412 -0.18019665 162.6481455 -0.20382988 177.42155135 -0.23145839 C192.60563684 -0.25961591 207.78970391 -0.27619801 222.97381443 -0.28226548 C232.32635894 -0.28636058 241.67880338 -0.29924513 251.03131705 -0.3237494 C257.46414356 -0.33973467 263.89691913 -0.34437179 270.32976402 -0.34050413 C274.02879349 -0.33860223 277.72764941 -0.34129959 281.42664719 -0.35761642 C317.39712442 -0.50824265 354.86694407 2.31137258 382.37890625 28.2421875 C395.85469648 42.15120957 400.19779517 60.06637329 400 79 C398.67069621 113.47433952 382.93743319 147.53629613 357.875 171 C335.08706977 190.54943754 304.95323482 200.67545868 275 200 C283.28665685 215.5889171 291.59610336 231.16254925 300.07421875 246.6484375 C303.23489881 252.42216034 306.36819254 258.21057861 309.5 264 C313.65267924 271.67435336 317.81774324 279.34172508 322 287 C326.73432884 295.66919318 331.4435539 304.35174568 336.14453125 313.0390625 C339.75023951 319.69972645 343.36998097 326.35255761 347 333 C351.34141495 340.95394748 355.67655312 348.91126941 360 356.875 C360.54011719 357.86757813 361.08023437 358.86015625 361.63671875 359.8828125 C362.14847656 360.82640625 362.66023438 361.77 363.1875 362.7421875 C363.63480469 363.5657373 364.08210938 364.38928711 364.54296875 365.23779297 C365.75564891 367.53676471 366.93109399 369.84692979 368.09106445 372.17263794 C368.44916702 372.89021334 368.80726959 373.60778873 369.17622375 374.34710884 C369.44806992 374.89256292 369.71991608 375.43801701 370 376 C368.92639725 376.01030746 367.85279449 376.02061493 366.74665833 376.03123474 C356.58180096 376.1293959 346.41699901 376.23216621 336.25223255 376.33933926 C331.02763103 376.3942801 325.8030237 376.44765063 320.57836914 376.49731445 C315.52734195 376.54538758 310.4763749 376.59773969 305.42542076 376.65294075 C303.50753992 376.67317166 301.58964272 376.69191379 299.67173195 376.70907402 C290.3130095 376.79372871 281.02888847 376.90148281 271.70829773 377.85340881 C254.64147054 378.77717965 238.98457558 369.34140236 226.6875 358.4375 C225.11830105 356.96544194 223.55512535 355.4869181 222 354 C221.11441406 353.20916016 221.11441406 353.20916016 220.2109375 352.40234375 C201.03604266 334.63603123 190.16557774 307.70695567 178.14599609 284.94258118 C174.75581333 278.52697057 171.32179021 272.13536827 167.875 265.75 C162.74947882 256.25055409 157.64302251 246.74109254 152.54968262 237.22436523 C148.65457187 229.9471461 144.74969123 222.67532116 140.83032227 215.41113281 C135.25120498 205.06919857 129.69754395 194.71394673 124.17596436 184.34118652 C123.44856695 182.97506857 122.72060482 181.60925113 121.99200439 180.24377441 C120.96289775 178.31452277 119.93623992 176.38398581 118.91015625 174.453125 C118.32371338 173.35129883 117.73727051 172.24947266 117.13305664 171.11425781 C113.99248077 165.12584321 111.01273721 159.05337778 108 153 C109.19586731 152.99635437 110.39173462 152.99270874 111.62384033 152.98895264 C122.97863215 152.95176438 134.33315872 152.89373592 145.68774796 152.81609726 C151.52312478 152.77684532 157.35835571 152.74454875 163.19384766 152.72900391 C168.84157135 152.71368905 174.48889333 152.67898633 180.13643646 152.63169098 C182.27458931 152.61702835 184.41279955 152.60896784 186.5510025 152.60811615 C214.25105445 152.58601768 240.82856737 147.97036548 261.71484375 128.375 C268.58723557 121.23241158 272.68155575 113.27462624 276 104 C276.32097656 103.15050781 276.64195312 102.30101562 276.97265625 101.42578125 C280.05271894 92.07098619 281.19424964 79.20210255 277.4375 69.875 C276.33916504 67.86036593 276.33916504 67.86036593 275 66 C274.53722656 65.30777344 274.07445312 64.61554688 273.59765625 63.90234375 C265.75410581 53.64244281 252.79476249 50.33621888 240.57019043 48.47889709 C235.0216751 47.80237483 229.47550158 47.82357297 223.89257812 47.79467773 C222.7014743 47.78477814 221.51037048 47.77487854 220.28317261 47.76467896 C217.03996052 47.73863205 213.79675299 47.71671266 210.55349922 47.69667697 C207.15555399 47.6746935 203.7576517 47.64736574 200.35974121 47.62062073 C193.93557475 47.57085994 187.51138424 47.52586004 181.08717108 47.48259836 C173.76907952 47.43308328 166.45103107 47.37821843 159.1329813 47.32291877 C144.08869444 47.20935404 129.04436689 47.10246024 114 47 C113.89015494 47.59187575 113.78030989 48.18375151 113.66713619 48.79356289 C112.40757465 55.35453959 110.79843275 61.76664012 109.02368164 68.20532227 C108.72774487 69.28975837 108.43180809 70.37419447 108.12690353 71.49149227 C107.14115671 75.10067164 106.15062126 78.7085191 105.16015625 82.31640625 C104.4513089 84.9085623 103.74275165 87.5007959 103.03459167 90.09313965 C101.51250967 95.66308118 99.98816184 101.23239826 98.46228027 106.80130005 C96.03918619 115.64508691 93.62102066 124.49021719 91.20410156 133.33569336 C91.00040962 134.08115705 90.79671769 134.82662073 90.58685327 135.59467423 C89.75665769 138.63304514 88.9264876 141.67142301 88.09638608 144.70981961 C87.04223616 148.5682928 85.98795219 152.42672925 84.93336105 156.28508186 C76.03302392 188.8481067 67.18331767 221.42477689 58.34983444 254.00599289 C57.27105754 257.98492051 56.19208576 261.96379526 55.11306763 265.94265747 C53.73270618 271.03273066 52.35250792 276.12284808 50.97242737 281.21299744 C49.64263292 286.11762085 48.31238655 291.02212136 46.98179626 295.92652893 C43.850797 307.46929253 40.7249728 319.01341103 37.61270523 330.56123829 C36.30134217 335.42670329 34.98777144 340.29157147 33.67366958 345.15629739 C32.77466792 348.48502072 31.87697314 351.81408523 30.98227692 355.14396858 C29.99998895 358.79789077 29.01363781 362.45069299 28.02636719 366.10327148 C27.73319359 367.19817083 27.44001999 368.29307018 27.13796234 369.4211483 C26.86948738 370.41130251 26.60101242 371.40145672 26.32440186 372.4216156 C26.09139751 373.28673987 25.85839317 374.15186415 25.61832809 375.04320431 C25 377 25 377 24 378 C22.393108 378.09600136 20.78198231 378.12187889 19.17222595 378.12025452 C18.12749619 378.12162918 17.08276642 378.12300385 16.00637817 378.12442017 C14.27253372 378.11902725 14.27253372 378.11902725 12.50366211 378.11352539 C11.29407333 378.11367142 10.08448456 378.11381744 8.83824158 378.1139679 C5.51193649 378.11338893 2.18569281 378.10835973 -1.1406014 378.10139394 C-4.61329929 378.09515978 -8.08599793 378.09455655 -11.55870056 378.09336853 C-18.13896193 378.0902554 -24.71920676 378.08204225 -31.29946083 378.07201904 C-38.78906112 378.06085734 -46.27866218 378.05534731 -53.7682687 378.05032361 C-69.17885539 378.03985962 -84.58942557 378.02226053 -100 378 C-99.35329502 372.77717027 -98.27800906 367.82696798 -96.91235352 362.74853516 C-96.69978063 361.94524434 -96.48720774 361.14195353 -96.26819324 360.31432056 C-95.55894321 357.63819696 -94.84395237 354.96364275 -94.12890625 352.2890625 C-93.61902833 350.37037161 -93.10948472 348.45159186 -92.60025024 346.5327301 C-91.21622827 341.3219383 -89.82706 336.11253089 -88.43688583 330.90337753 C-87.25987829 326.49036564 -86.08590372 322.07654925 -84.91192722 317.66273022 C-75.91758612 283.84805095 -66.86191084 250.04977424 -57.7899313 216.25585365 C-51.68657449 193.51928456 -45.60198598 170.77785411 -39.55078125 148.02734375 C-39.2357836 146.84307234 -38.92078594 145.65880093 -38.5962429 144.4386425 C-35.56868347 133.05500815 -32.54271259 121.67095243 -29.52022362 110.28597069 C-22.77260219 84.87660516 -15.98774796 59.47758087 -9.16235733 34.08901167 C-8.12385114 30.22579613 -7.08568534 26.36248912 -6.04748535 22.49919128 C-4.03197781 14.99937458 -2.01611294 7.49965399 0 0 Z " fill="#024CA2" transform="translate(1290,112)"/>
<path d="M0 0 C1.23769351 -0.00085442 2.47538702 -0.00170885 3.75058639 -0.00258917 C7.15988835 -0.00394443 10.56913206 -0.00084613 13.97842693 0.0041889 C17.66472047 0.00852808 21.35101237 0.00704452 25.03730774 0.00628662 C31.41541083 0.00576358 37.79350365 0.00888741 44.17160416 0.01452446 C53.39314081 0.02266925 62.61467252 0.02525773 71.83621238 0.02651245 C86.79941092 0.02869829 101.76260399 0.03534569 116.72579956 0.04481506 C131.25672376 0.05400129 145.78764648 0.0610762 160.318573 0.06532288 C161.21503143 0.0655856 162.11148987 0.06584832 163.03511371 0.06611901 C167.5326128 0.06742409 172.03011191 0.06868779 176.52761102 0.06993091 C213.80852147 0.08028896 251.08942572 0.09789454 288.37033081 0.12025452 C287.75160605 6.44969351 285.85466001 12.09586713 283.77267456 18.08509827 C283.41895279 19.11840775 283.06523102 20.15171722 282.70079041 21.21633911 C281.57563287 24.49884684 280.4418684 27.77830542 279.30783081 31.05775452 C278.54098379 33.28998032 277.77470148 35.52240021 277.00900269 37.75502014 C275.13597954 43.21236293 273.2558911 48.66723159 271.37033081 54.12025452 C269.54125828 54.12245436 269.54125828 54.12245436 267.67523479 54.12469864 C238.65570401 54.16048821 209.6362638 54.21685503 180.6168272 54.29817547 C177.03620837 54.30819157 173.45558908 54.31803593 169.87496948 54.32777405 C169.16220584 54.32971542 168.44944219 54.33165679 167.71507964 54.333657 C156.21103637 54.3645824 144.70701298 54.38163111 133.20293602 54.39344874 C121.37720819 54.40590956 109.55158386 54.4335212 97.72592145 54.47486758 C91.09266601 54.49763372 84.45952421 54.51316923 77.82622337 54.51213837 C71.56925369 54.51138778 65.31260876 54.52949779 59.05572319 54.56142235 C56.77227512 54.56986734 54.4887904 54.57170851 52.20533371 54.56605721 C21.28942281 54.49979793 -7.79903607 62.31150152 -30.69998169 84.08900452 C-32.01098474 85.43167431 -33.32054708 86.77575072 -34.62966919 88.12025452 C-35.28966919 88.12025452 -35.94966919 88.12025452 -36.62966919 88.12025452 C-36.87716919 88.6913092 -37.12466919 89.26236389 -37.37966919 89.85072327 C-38.82532616 92.47549421 -40.54641335 94.27881678 -42.62966919 96.43275452 C-48.46134868 102.82427524 -53.10074965 109.77407805 -57.62966919 117.12025452 C-58.04361938 117.79024475 -58.45756958 118.46023499 -58.88406372 119.15052795 C-84.64220795 161.52715446 -102.19494347 226.61135558 -90.14089966 276.12806702 C-85.35850934 293.56520062 -76.41908684 307.80854667 -60.62966919 317.12025452 C-37.33742095 329.85982993 -7.80784802 326.30857927 17.91744995 326.30555725 C22.42433182 326.30545498 26.93105845 326.31920939 31.4379034 326.33632946 C34.95638218 326.34751573 38.47482383 326.34947459 41.99331856 326.34894753 C43.65444038 326.35011372 45.3155636 326.35445723 46.9766674 326.36227989 C68.32611428 326.70294458 68.32611428 326.70294458 86.87033081 317.37025452 C96.04362494 307.33158634 100.01778482 293.07775691 103.53439331 280.25697327 C103.97793077 278.68826079 104.42298451 277.11997635 104.8694458 275.55209351 C106.02846631 271.46823713 107.16897104 267.37945888 108.30471802 263.28907776 C109.67641789 258.36065649 111.06813371 253.43786015 112.45911217 248.51485157 C113.54376196 244.67580147 114.62510044 240.83596924 115.69396973 236.99249268 C118.69310943 226.2758115 122.01387675 215.74902572 125.37033081 205.12025452 C92.70033081 205.12025452 60.03033081 205.12025452 26.37033081 205.12025452 C31.48999966 188.05469167 36.90047128 171.07681906 42.37033081 154.12025452 C112.33033081 154.12025452 182.29033081 154.12025452 254.37033081 154.12025452 C253.24517188 164.24668489 253.24517188 164.24668489 252.02609253 169.26429749 C251.75369247 170.39669861 251.48129242 171.52909973 251.20063782 172.69581604 C250.90343338 173.90580261 250.60622894 175.11578918 250.30001831 176.36244202 C249.98332015 177.66837073 249.66705257 178.97440393 249.35118103 180.28053284 C248.50035572 183.79116631 247.64200488 187.29991577 246.78144455 190.80817413 C246.24336068 193.00329166 245.70698713 195.19882031 245.17114258 197.39448547 C242.76986611 207.23165992 240.35079415 217.06437476 237.9205246 226.89442444 C237.38053458 229.07897478 236.84111556 231.26366547 236.30178833 233.44837952 C234.30194056 241.54524843 232.28741082 249.63826899 230.25393677 257.72676086 C229.63200456 260.20401785 229.01290143 262.68198712 228.3968811 265.16072083 C223.71495728 283.96722554 218.59729172 302.51851172 210.05783081 319.99525452 C209.35907837 321.43711121 209.35907837 321.43711121 208.64620972 322.90809631 C197.96368037 344.39056528 180.61305807 365.25356986 157.42770386 373.33216858 C149.38023731 376.00710667 142.50958647 377.26919927 134.0849762 377.26742554 C133.14616995 377.27110223 132.20736371 377.27477891 131.24010879 377.27856702 C128.09169743 377.28958656 124.9433191 377.29344494 121.79489136 377.29725647 C119.53755591 377.30352297 117.28022148 377.31016994 115.02288818 377.31716919 C107.60094927 377.33820919 100.17901019 377.34857913 92.75704956 377.35853577 C90.19538678 377.3625849 87.6337241 377.36670186 85.07206154 377.37088585 C74.40300457 377.38776192 63.73395101 377.40239072 53.06488323 377.40963459 C50.29763983 377.41154414 47.53039644 377.41346451 44.76315308 377.41542053 C43.73161765 377.41614614 43.73161765 377.41614614 42.67924313 377.41688641 C31.58299676 377.42515528 20.4868593 377.4504355 9.39066031 377.48300121 C-2.03630843 377.51625995 -13.46319636 377.53376932 -24.89021844 377.53727883 C-31.29165965 377.53961562 -37.69292915 377.54839426 -44.09432411 377.57374001 C-50.13463705 377.59726715 -56.17466828 377.60115635 -62.21501541 377.59097862 C-64.41253924 377.5904889 -66.61007811 377.59663926 -68.80755806 377.61053467 C-88.15709811 377.72587414 -107.31477705 375.63066722 -125.87966919 369.93275452 C-127.34279541 369.49382874 -127.34279541 369.49382874 -128.83547974 369.04603577 C-147.41172027 363.2583876 -163.7556886 354.68417156 -178.62966919 342.12025452 C-179.45338013 341.4434967 -180.27709106 340.76673889 -181.12576294 340.06947327 C-205.46247347 319.30164072 -216.56237229 287.89105508 -219.31326294 256.78431702 C-221.26697228 230.43428842 -217.73827661 204.48978222 -210.62966919 179.12025452 C-210.30724243 177.96767151 -209.98481567 176.8150885 -209.65261841 175.62757874 C-199.21025432 138.96758157 -183.7392312 104.13473937 -158.62966919 75.12025452 C-157.94775513 74.32748108 -157.26584106 73.53470764 -156.56326294 72.71791077 C-154.29561216 70.14122471 -151.97824233 67.62348102 -149.62966919 65.12025452 C-149.13901978 64.59560608 -148.64837036 64.07095764 -148.14285278 63.53041077 C-134.73788553 49.3171244 -119.51349001 37.89943606 -102.62966919 28.12025452 C-101.97595337 27.73917542 -101.32223755 27.35809631 -100.64871216 26.96546936 C-70.34593417 9.52967138 -34.95018977 -0.089142 0 0 Z " fill="#024DA2" transform="translate(938.6296691894531,110.87974548339844)"/>
<path d="M0 0 C2.53493749 0.00056548 5.06987532 0.00024489 7.60481262 -0.00088501 C13.01911643 -0.00133694 18.43335769 0.00424712 23.84764862 0.01559067 C31.6753874 0.03197982 39.50310299 0.03706724 47.33085707 0.03956665 C60.03682821 0.04392295 72.74277339 0.0571754 85.44873047 0.07617188 C97.77717969 0.09458455 110.1056218 0.10871454 122.43408203 0.1171875 C123.19648542 0.11771295 123.95888882 0.11823839 124.74439535 0.11877976 C128.56988893 0.12139021 132.39538255 0.12391753 136.22087622 0.12640357 C167.85983478 0.14707163 199.49876107 0.18239089 231.13769531 0.22705078 C230.07061124 7.91421341 230.07061124 7.91421341 229.03027344 11.29467773 C228.81334839 12.0084407 228.59642334 12.72220367 228.3729248 13.45759583 C228.14061157 14.20264877 227.90829834 14.94770172 227.66894531 15.71533203 C227.42857544 16.49974167 227.18820557 17.28415131 226.94055176 18.09233093 C226.43530872 19.73768182 225.92758008 21.38227133 225.41748047 23.02612305 C224.63512974 25.54782022 223.86038463 28.07175787 223.08691406 30.59619141 C222.59386227 32.19853972 222.10038769 33.80075802 221.60644531 35.40283203 C221.37413208 36.15800613 221.14181885 36.91318024 220.90246582 37.6912384 C219.25489018 42.99266104 219.25489018 42.99266104 218.13769531 45.22705078 C217.14084591 45.22851734 216.14399651 45.2299839 215.11693954 45.2314949 C190.78357893 45.26820285 166.45035476 45.32779948 142.11710739 45.41095352 C130.3493911 45.45064561 118.58174072 45.48308784 106.81396484 45.49804688 C96.54888645 45.51111456 86.28395371 45.53820877 76.01895738 45.58166385 C70.59122663 45.60416417 65.16367476 45.61996838 59.73589325 45.61893463 C54.61074135 45.6181812 49.48598315 45.63640199 44.3609333 45.66821861 C42.49556084 45.67662864 40.63014375 45.67852936 38.76476097 45.67285347 C10.73328787 45.59902534 -16.06795358 52.33934508 -36.86230469 72.22705078 C-58.30205608 95.07776494 -67.42440614 124.47545659 -74.86230469 154.22705078 C9.94769531 154.22705078 94.75769531 154.22705078 182.13769531 154.22705078 C177.79481835 168.99283246 173.00481858 183.62568098 168.13769531 198.22705078 C85.30769531 198.22705078 2.47769531 198.22705078 -82.86230469 198.22705078 C-83.02489708 256.51182262 -83.02489708 256.51182262 -54.73730469 304.85205078 C-42.16406166 316.86648301 -25.11560227 325.2977756 -7.57939148 325.38526917 C-6.49492547 325.39267613 -6.49492547 325.39267613 -5.38855106 325.40023273 C-2.97184553 325.41556125 -0.55516647 325.42395571 1.86157227 325.43237305 C3.59628023 325.44195523 5.33098587 325.45196551 7.06568909 325.46237183 C11.77183964 325.48939012 16.47800019 325.51041634 21.18418527 325.53037381 C26.1036182 325.55225233 31.02302043 325.57963189 35.94242859 325.60643005 C45.25664467 325.6563317 54.57087781 325.70127992 63.88512725 325.74445242 C74.48965663 325.79384639 85.0941552 325.84875651 95.69865477 325.90413201 C117.51163957 326.01791325 139.3246538 326.1247607 161.13769531 326.22705078 C159.86703669 332.85659785 158.41121218 339.41033195 156.75488281 345.95361328 C156.53575226 346.8273056 156.3166217 347.70099792 156.09085083 348.60116577 C155.4003687 351.35202857 154.70659415 354.10204809 154.01269531 356.85205078 C153.53981964 358.73350606 153.06716147 360.61501602 152.59472656 362.49658203 C151.44489221 367.0740399 150.29210732 371.65074533 149.13769531 376.22705078 C122.15433081 376.27393323 95.17097248 376.3091188 68.18757534 376.33067513 C55.65653045 376.34095359 43.12551098 376.35494774 30.59448242 376.37792969 C19.66253852 376.39796922 8.73061304 376.41079209 -2.20134872 376.41522777 C-7.98071224 376.4178174 -13.76002308 376.42383122 -19.53936958 376.43851089 C-24.99844063 376.45226243 -30.45743817 376.45623862 -35.91652489 376.45326614 C-37.90160143 376.45380856 -39.88668089 376.45767992 -41.87174225 376.46546173 C-60.33287179 376.53417567 -78.90863635 375.68859304 -97.04980469 372.03955078 C-98.66713501 371.71809082 -98.66713501 371.71809082 -100.31713867 371.39013672 C-121.9516864 366.86781423 -141.76232616 358.34880373 -158.86230469 344.22705078 C-159.69890625 343.56576172 -160.53550781 342.90447266 -161.39746094 342.22314453 C-189.25673591 318.95557257 -199.9341952 281.02385429 -203.4543457 246.3059082 C-204.27894163 237.05070314 -204.2082203 227.7612404 -204.17480469 218.47705078 C-204.17331421 217.450242 -204.17182373 216.42343323 -204.17028809 215.36550903 C-204.1255376 198.15176699 -203.34013084 181.28346615 -200.86230469 164.22705078 C-200.72308594 163.24671875 -200.58386719 162.26638672 -200.44042969 161.25634766 C-194.507393 121.07101118 -179.25414038 83.62000903 -150.86230469 54.22705078 C-149.99992187 53.30150391 -149.13753906 52.37595703 -148.24902344 51.42236328 C-109.79626797 11.20362942 -53.40810432 -0.16887651 0 0 Z " fill="#024CA2" transform="translate(2328.8623046875,111.77294921875)"/>
<path d="M0 0 C2.53493749 0.00056548 5.06987532 0.00024489 7.60481262 -0.00088501 C13.01911643 -0.00133694 18.43335769 0.00424712 23.84764862 0.01559067 C31.6753874 0.03197982 39.50310299 0.03706724 47.33085707 0.03956665 C60.03682821 0.04392295 72.74277339 0.0571754 85.44873047 0.07617188 C97.77717969 0.09458455 110.1056218 0.10871454 122.43408203 0.1171875 C123.19648542 0.11771295 123.95888882 0.11823839 124.74439535 0.11877976 C128.56988893 0.12139021 132.39538255 0.12391753 136.22087622 0.12640357 C167.85983478 0.14707163 199.49876107 0.18239089 231.13769531 0.22705078 C229.97038987 6.58242616 228.51924814 12.71157269 226.53613281 18.85986328 C226.29480621 19.62257538 226.05347961 20.38528748 225.80484009 21.17111206 C225.04573636 23.56636318 224.27937 25.95921364 223.51269531 28.35205078 C222.99137581 29.99252136 222.47053846 31.63314525 221.95019531 33.27392578 C220.68491515 37.2600904 219.4131239 41.24412227 218.13769531 45.22705078 C217.13808053 45.22943913 216.13846575 45.23182749 215.10855961 45.23428822 C190.72619489 45.29322123 166.34392789 45.36918874 141.96167088 45.46276569 C130.17033854 45.50763007 118.37903577 45.54706611 106.58764648 45.57348633 C96.30393854 45.59654241 86.02032491 45.63002479 75.73669189 45.67575234 C70.29734832 45.6995823 64.85809757 45.71837785 59.41870308 45.72466469 C54.28623033 45.73076212 49.15399477 45.75092784 44.02161026 45.78132629 C42.15013852 45.79003251 40.27863569 45.79384473 38.40714455 45.79205894 C23.28359871 45.78219508 8.49420696 46.91110403 -5.73730469 52.47705078 C-6.53265625 52.78078613 -7.32800781 53.08452148 -8.14746094 53.39746094 C-14.59461335 55.94661031 -20.31329932 59.04557281 -25.86230469 63.22705078 C-27.22548828 64.22671875 -27.22548828 64.22671875 -28.61621094 65.24658203 C-55.98669481 86.374007 -66.83024028 121.09879316 -74.86230469 153.22705078 C9.61769531 153.55705078 94.09769531 153.88705078 181.13769531 154.22705078 C180.01261007 162.10264745 180.01261007 162.10264745 179.03027344 165.20288086 C178.81334839 165.89662308 178.59642334 166.5903653 178.3729248 167.30513 C178.14061157 168.02830917 177.90829834 168.75148834 177.66894531 169.49658203 C177.42857544 170.25879562 177.18820557 171.02100922 176.94055176 171.80632019 C176.43542206 173.40465065 175.92769265 175.00216164 175.41748047 176.59887695 C174.63497946 179.04805122 173.86027379 181.49958576 173.08691406 183.95166016 C172.59387179 185.50844252 172.10039756 187.06508816 171.60644531 188.62158203 C171.37413208 189.35488235 171.14181885 190.08818268 170.90246582 190.84370422 C169.25525045 195.9919405 169.25525045 195.9919405 168.13769531 198.22705078 C85.30769531 198.22705078 2.47769531 198.22705078 -82.86230469 198.22705078 C-84.01208434 231.15460555 -84.01208434 231.15460555 -78.86230469 263.22705078 C-78.64799805 263.95230957 -78.43369141 264.67756836 -78.21289062 265.42480469 C-71.11012105 288.3511388 -57.09360647 306.75624539 -35.85732937 318.28309345 C-23.34250544 324.6120434 -10.58938001 325.9655595 3.22387695 325.88647461 C4.96036417 325.89495348 6.69684188 325.90560919 8.43330383 325.91824341 C13.08930928 325.94608905 17.74484935 325.94397218 22.40091252 325.93594956 C27.28829258 325.93279888 32.17553091 325.95793319 37.06285095 325.97990417 C46.29171235 326.01717838 55.52042646 326.02948227 64.74935573 326.03252858 C75.26715339 326.03723756 85.78480516 326.07021956 96.30253804 326.10542643 C117.91424059 326.17714346 139.5258829 326.21384281 161.13769531 326.22705078 C159.45031008 333.02718744 157.75927803 339.82640955 156.06567383 346.625 C155.48963185 348.93924255 154.91443368 351.25369529 154.34008789 353.56835938 C153.51571393 356.89003876 152.68833582 360.21095724 151.86035156 363.53173828 C151.6030275 364.57135712 151.34570343 365.61097595 151.08058167 366.68209839 C150.84040817 367.64294342 150.60023468 368.60378845 150.3527832 369.59375 C150.1418251 370.44202362 149.930867 371.29029724 149.71351624 372.16427612 C149.13769531 374.22705078 149.13769531 374.22705078 148.13769531 376.22705078 C121.28471466 376.27393441 94.43174022 376.30911937 67.57872677 376.33067513 C55.10821597 376.34095334 42.63773072 376.35494701 30.16723633 376.37792969 C19.28803014 376.39796999 8.40884246 376.41079227 -2.47038168 376.41522777 C-8.22179963 376.41781727 -13.97316465 376.42383025 -19.72456551 376.43851089 C-25.15737182 376.45226365 -30.59010426 376.45623839 -36.02292633 376.45326614 C-37.99832755 376.45380851 -39.9737317 376.45767912 -41.94911766 376.46546173 C-59.75399717 376.53206378 -77.78014619 375.82994189 -95.29980469 372.41455078 C-96.19683105 372.2449585 -97.09385742 372.07536621 -98.01806641 371.90063477 C-110.47351899 369.4412991 -122.3015531 365.48624515 -133.86230469 360.22705078 C-135.33957031 359.56769531 -135.33957031 359.56769531 -136.84667969 358.89501953 C-164.76269518 345.76870655 -183.37740041 320.9195188 -193.99853516 292.67529297 C-214.96408336 233.25117839 -208.0321941 153.92161135 -181.61230469 97.60205078 C-174.96943795 83.80689154 -166.89398294 71.7952713 -156.86230469 60.22705078 C-156.10949219 59.35177734 -155.35667969 58.47650391 -154.58105469 57.57470703 C-149.99291744 52.35020143 -145.26698662 47.5991687 -139.86230469 43.22705078 C-138.91742187 42.45619141 -137.97253906 41.68533203 -136.99902344 40.89111328 C-113.96504529 22.44093989 -86.54131402 10.60642167 -57.79980469 4.41455078 C-56.90414795 4.21949951 -56.00849121 4.02444824 -55.08569336 3.82348633 C-36.86849274 0.16843776 -18.50817662 -0.05852288 0 0 Z " fill="#024CA2" transform="translate(1908.8623046875,111.77294921875)"/>
<path d="M0 0 C1.57147259 0.00056958 1.57147259 0.00056958 3.17469209 0.00115067 C4.37845462 -0.00084038 5.58221714 -0.00283143 6.82245731 -0.00488281 C8.17545177 -0.00202923 9.52844603 0.00091638 10.8814401 0.00394398 C12.30535948 0.0035084 13.72927878 0.00263375 15.15319765 0.00135481 C19.0844914 -0.00089282 23.01575817 0.00313478 26.94704849 0.00813287 C31.17951763 0.01243337 35.41198514 0.01099124 39.64445585 0.0102306 C46.98363255 0.00970511 54.32280038 0.01285452 61.66197485 0.01846844 C72.27331536 0.02658005 82.88465158 0.02919831 93.49599486 0.03045643 C110.71033007 0.03264749 127.92466056 0.03930901 145.1389932 0.04875904 C161.86555546 0.05793178 178.59211644 0.06501329 195.3186807 0.06926686 C196.34893145 0.06952958 197.37918221 0.0697923 198.44065268 0.07006299 C203.60888662 0.07136798 208.77712057 0.0726317 213.94535452 0.07387489 C256.85145676 0.08424917 299.75755384 0.10186893 342.66365141 0.1241985 C342.99377529 2.79190903 343.31943497 5.46004441 343.64265531 8.12859303 C343.73523115 8.87297123 343.82780699 9.61734944 343.92318815 10.38428456 C344.82965436 17.92298084 345.0622391 25.40555626 345.03865141 32.9991985 C345.03777525 33.70286549 345.03689909 34.40653248 345.03599638 35.13152272 C344.81901003 88.67384316 323.25277587 139.49324131 287.66365141 179.1241985 C287.20893461 179.63386158 286.75421781 180.14352467 286.28572172 180.66863209 C276.74959159 191.33588472 266.87650191 201.21179087 255.66365141 210.1241985 C254.51754609 211.07021139 253.37309024 212.01822522 252.23005766 212.9679485 C186.03370865 267.59971444 94.69116152 289.23596557 10.27009672 281.82634693 C-17.57052844 279.11731589 -17.57052844 279.11731589 -28.33634859 276.1241985 C-28.66634859 275.4641985 -28.99634859 274.8041985 -29.33634859 274.1241985 C-28.49455172 271.83464772 -28.49455172 271.83464772 -27.11759859 268.928886 C-26.60543795 267.83769459 -26.0932773 266.74650318 -25.56559664 265.62224537 C-24.9892033 264.41455226 -24.41278654 263.20687032 -23.83634859 261.9991985 C-23.24154837 260.73720831 -22.64757018 259.4748304 -22.05436617 258.21208912 C-20.47498625 254.85440065 -18.88689762 251.50091048 -17.29637057 248.14849049 C-14.52840759 242.31199358 -11.77330006 236.46943546 -9.02384859 230.6241985 C-8.71465487 229.96727009 -8.40546114 229.31034168 -8.08689791 228.63350636 C-1.23103767 214.04958802 5.29782353 199.32495018 11.80323881 184.58219105 C13.88241201 179.8754293 15.9832658 175.17908102 18.10505766 170.491386 C34.6201977 135.13266454 34.6201977 135.13266454 46.66365141 98.1241985 C46.92178617 97.11292897 46.92178617 97.11292897 47.18513578 96.08122975 C51.64197117 78.14819249 52.20884214 57.11329817 43.16365141 40.5304485 C33.93549899 25.726954 20.83550906 17.92037515 4.12458891 13.68279225 C1.31800185 13.04574153 -1.48384271 12.50967226 -4.33634859 12.1241985 C-4.19597338 10.31126761 -4.0488997 8.49885419 -3.89884859 6.6866985 C-3.81763766 5.67736256 -3.73642672 4.66802662 -3.65275484 3.62810475 C-3.21589184 0.17095434 -3.21589184 0.17095434 0 0 Z " fill="#F04C23" transform="translate(259.336348593235,228.8758015036583)"/>
</svg>
