<?xml version="1.0" encoding="UTF-8"?>
<svg version="1.1" xmlns="http://www.w3.org/2000/svg" width="3500" height="1405">
<path d="M0 0 C1.0643074 -0.00137466 2.12861481 -0.00274933 3.22517395 -0.00416565 C4.39258118 -0.00057037 5.5599884 0.0030249 6.76277161 0.00672913 C8.60685356 0.00651009 8.60685356 0.00651009 10.4881897 0.00628662 C13.8598293 0.00686436 17.23140785 0.0118834 20.60303664 0.01886058 C24.1264387 0.02510726 27.64984155 0.02569896 31.17324829 0.02688599 C37.84552448 0.02999542 44.5177843 0.03820359 51.19005328 0.04823548 C58.78610665 0.05940864 66.3821608 0.0649101 73.97822034 0.06993091 C89.6040861 0.08038652 105.22993554 0.09797847 120.85578918 0.12025452 C120.85578918 1.44025452 120.85578918 2.76025452 120.85578918 4.12025452 C121.76328918 4.18212952 122.67078918 4.24400452 123.60578918 4.30775452 C126.85578918 5.12025452 126.85578918 5.12025452 129.10578918 7.12025452 C133.19344949 14.12767218 133.59579504 23.24165232 134.8540802 31.14906311 C135.04597711 32.34085615 135.23787401 33.53264919 135.43558598 34.76055717 C135.855993 37.37393554 136.27541591 39.98744967 136.69318008 42.60124969 C137.37868863 46.88999127 138.0681225 51.17809694 138.75798035 55.46614075 C139.77349084 61.78064293 140.78731189 68.09541438 141.8000946 74.41035461 C144.47575569 91.09211457 147.16251822 107.77209006 149.84878945 124.45214415 C150.30464553 127.28288585 150.76041113 130.1136421 151.21616173 132.94440079 C158.52313799 178.32659109 165.89606549 223.69802564 173.27651119 269.06831646 C174.14118495 274.38397427 175.00571039 279.69965619 175.87025452 285.01533508 C179.95036767 310.10155413 184.03201463 335.18752345 188.114308 360.27338779 C191.85060473 383.23312211 195.58612096 406.19298342 199.32162881 429.1528461 C199.88594195 432.621323 200.45025926 436.08979921 201.01457787 439.55827522 C208.21446459 483.811034 215.41362958 528.06391015 222.61084074 572.31710416 C222.76291457 573.25215415 222.9149884 574.18720415 223.07167053 575.15058899 C223.22202084 576.07504277 223.37237115 576.99949655 223.52727753 577.95196408 C224.52435649 584.08260107 225.52155192 590.21321911 226.51881409 596.34382629 C229.28850959 613.37059339 232.05690389 630.39757022 234.8221283 647.42506409 C235.58466671 652.12024757 236.34792371 656.81531328 237.11186218 661.51026917 C237.96210958 666.73578363 238.81094397 671.96152531 239.65848732 677.18747902 C239.95729549 679.02837686 240.25663422 680.86918869 240.55655479 682.70990562 C240.95348661 685.14650465 241.3485149 687.58340424 241.74299622 690.020401 C241.91547835 691.07482328 241.91547835 691.07482328 242.09144497 692.15054703 C242.85578918 696.89177632 242.85578918 696.89177632 242.85578918 699.12025452 C189.06578918 699.12025452 135.27578918 699.12025452 79.85578918 699.12025452 C76.22578918 675.36025452 72.59578918 651.60025452 68.85578918 627.12025452 C66.02278634 608.72603742 63.18941353 590.33190883 60.34605217 571.93929482 C59.16599822 564.30532618 57.98670179 556.67124063 56.80752004 549.03713723 C54.88746521 536.60668267 52.9669029 524.17630657 51.04597473 511.74598694 C49.19447165 499.76490825 47.34320933 487.7837924 45.49226379 475.80262756 C45.37680474 475.05526204 45.26134568 474.30789652 45.14238786 473.53788356 C44.44727839 469.03843186 43.75217812 464.53897875 43.05708091 460.03952517 C42.04379289 453.48038881 41.03049164 446.9212545 40.0171814 440.36212158 C39.90815027 439.6563641 39.79911914 438.95060662 39.68678404 438.22346254 C38.19290296 428.55361942 36.6988607 418.88380121 35.20466934 409.21400602 C34.70635306 405.98909235 34.20805171 402.76417637 33.70974731 399.53926086 C32.98017397 394.81763002 32.25054756 390.09600737 31.52088928 385.37438965 C31.35582984 384.3057686 31.1907704 383.23714755 31.02070916 382.13614404 C30.70781026 380.11192657 30.39440591 378.08778715 30.08042324 376.06373751 C29.4462454 371.97168873 28.81632013 367.87946758 28.21719551 363.78212547 C27.95401433 361.99707572 27.95401433 361.99707572 27.68551636 360.17596436 C27.5450995 359.19854625 27.40468264 358.22112814 27.26001072 357.2140913 C27.06242839 355.14014272 27.06242839 355.14014272 25.85578918 354.12025452 C25.64599426 355.11146301 25.64599426 355.11146301 25.43196106 356.12269592 C6.0389367 447.08595729 -31.89494826 531.73102131 -148.6302948 688.46278381 C-149.72659217 689.66303584 -150.80756394 690.87734536 -151.87882996 692.09999084 C-158.89409265 700.06310247 -166.39804835 707.5253813 -173.91007996 715.01649475 C-176.20868291 717.309722 -178.50187112 719.60826691 -180.79460144 721.90736389 C-182.27670269 723.38880452 -183.75911401 724.86993502 -185.24186707 726.35072327 C-185.91605179 727.02693222 -186.59023651 727.70314117 -187.28485107 728.39984131 C-191.2047947 732.30080597 -195.22997839 736.02409346 -199.4198761 739.6340332 C-201.63776754 741.54565599 -203.79573573 743.51972212 -205.95671082 745.49525452 C-210.22301671 749.34075634 -214.59590381 753.01756718 -219.06217957 756.62806702 C-221.2834045 758.4241906 -223.49321458 760.23033987 -225.69499207 762.04994202 C-248.32861389 780.69877126 -272.14849003 797.78389702 -297.14421082 813.12025452 C-297.78632507 813.51519104 -298.42843933 813.91012756 -299.0900116 814.31703186 C-374.17167543 860.33868351 -455.97838296 889.93308042 -569.14421082 907.12025452 C-570.98305847 907.34672668 -570.98305847 907.34672668 -572.85905457 907.57777405 C-619.69941231 913.17903974 -670.12906968 912.87109323 -716.97880554 907.37348938 C-719.25151606 907.10770563 -721.52534076 906.85344671 -723.79948425 906.60023499 C-768.67714602 901.54066141 -813.17848274 892.4846319 -856.2118988 878.73744202 C-858.19744444 878.1032515 -860.18424676 877.47309772 -862.17106628 876.84291077 C-944.50644521 850.63358675 -1021.78015393 809.26131558 -1089.14421082 755.12025452 C-1090.07233582 754.37517639 -1091.00046082 753.63009827 -1091.95671082 752.86244202 C-1102.13511084 744.60728618 -1112.08957589 736.07008185 -1121.78874207 727.25697327 C-1123.38141177 725.81221318 -1124.98327938 724.37753833 -1126.59342957 722.95228577 C-1132.14634921 718.02701167 -1137.41709919 712.90738651 -1142.60124207 707.60072327 C-1145.00577577 705.25528716 -1147.52384763 703.2156774 -1150.14421082 701.12025452 C-1151.15786874 700.02622985 -1152.13827139 698.9003798 -1153.08171082 697.74525452 C-1156.5671532 693.65464741 -1160.32572424 689.89529245 -1164.14421082 686.12025452 C-1169.02760222 681.27676631 -1173.70339841 676.37521586 -1178.14421082 671.12025452 C-1179.08009392 670.04592717 -1180.01777727 668.97316688 -1180.95671082 667.90150452 C-1193.62381839 653.42703596 -1205.77734731 638.63961564 -1217.14421082 623.12025452 C-1217.65806335 622.42351624 -1218.17191589 621.72677795 -1218.70133972 621.00892639 C-1237.26119116 595.82096437 -1253.90329844 569.43399707 -1269.14421082 542.12025452 C-1269.66483093 541.19406311 -1270.18545105 540.2678717 -1270.72184753 539.31361389 C-1279.70444748 523.28749761 -1287.65987 506.89494514 -1295.14421082 490.12025452 C-1295.65870789 488.9700885 -1296.17320496 487.81992249 -1296.70329285 486.63490295 C-1313.68669219 448.44246635 -1327.10248524 408.6876304 -1337.14421082 368.12025452 C-1337.43553894 366.95574768 -1337.72686707 365.79124084 -1338.02702332 364.59144592 C-1338.44081238 362.88287415 -1338.44081238 362.88287415 -1338.86296082 361.13978577 C-1339.10981628 360.12634094 -1339.35667175 359.11289612 -1339.61100769 358.06874084 C-1340.16182006 355.02287957 -1340.23846769 352.20860401 -1340.14421082 349.12025452 C-1338.18188858 352.06373788 -1336.78302982 354.91970534 -1335.30827332 358.13197327 C-1334.739335 359.36503563 -1334.1702363 360.598024 -1333.60099792 361.83094788 C-1333.30273102 362.47901398 -1333.00446411 363.12708008 -1332.69715881 363.79478455 C-1322.86756172 385.11783694 -1312.52494239 406.04576519 -1300.73698425 426.36585999 C-1299.23448336 428.96414555 -1297.75393839 431.57377478 -1296.27702332 434.18666077 C-1282.00598983 459.15856845 -1265.64966482 483.31084639 -1248.14421082 506.12025452 C-1247.22825607 507.32944311 -1246.31287372 508.53906556 -1245.39811707 509.74916077 C-1240.84375398 515.74810957 -1236.15501962 521.62924438 -1231.35905457 527.43666077 C-1229.86291103 529.24944844 -1228.37613247 531.07000009 -1226.89811707 532.89759827 C-1222.4945199 538.33913168 -1217.96639076 543.62007586 -1213.25358582 548.79603577 C-1211.39794425 550.84067786 -1209.57664705 552.90809601 -1207.76921082 554.99525452 C-1198.18952924 565.94839292 -1188.10093781 576.32200427 -1177.80021667 586.59461975 C-1175.44691781 588.94252507 -1173.09905692 591.29577419 -1170.75163269 593.64955139 C-1169.23307324 595.16745048 -1167.71420385 596.68503958 -1166.19499207 598.20228577 C-1165.50520767 598.89409439 -1164.81542328 599.58590302 -1164.10473633 600.29867554 C-1160.14927503 604.2353768 -1156.09203106 607.99710233 -1151.86332703 611.63925171 C-1149.64682565 613.54874726 -1147.49088145 615.52137173 -1145.33171082 617.49525452 C-1141.08845074 621.32061777 -1136.73561584 624.97119541 -1132.29264832 628.56166077 C-1129.96609628 630.4428786 -1127.66454272 632.35155203 -1125.37077332 634.27259827 C-1103.72254711 652.36065245 -1080.75901248 668.70939488 -1057.14421082 684.12025452 C-1056.41041199 684.59930237 -1055.67661316 685.07835022 -1054.920578 685.57191467 C-1033.43962246 699.52273305 -1011.12213343 711.94516896 -988.2853241 723.52406311 C-985.38616013 724.9973053 -982.49660621 726.48770135 -979.60905457 727.98353577 C-902.60680374 767.57374673 -815.89559356 791.10593506 -659.14421082 805.12025452 C-658.17531921 805.14216858 -657.20642761 805.16408264 -656.20817566 805.18666077 C-573.3718229 806.88094444 -490.08707747 792.51387689 -291.14421082 715.12025452 C-290.81421082 714.79025452 -290.48421082 714.46025452 -290.14421082 714.12025452 C-290.1531886 711.61642783 -290.23932925 709.16057232 -290.38639832 706.66322327 C-290.45683853 705.46163826 -290.45683853 705.46163826 -290.52870178 704.23577881 C-291.27167366 692.91292756 -292.79148575 681.67849429 -294.26921082 670.43275452 C-294.43893402 669.13053955 -294.60865723 667.82832458 -294.78352356 666.48664856 C-305.83684001 581.83030909 -319.19295576 497.4737579 -334.61495209 398.50974274 C-335.12326302 395.25440879 -335.63115283 391.99900933 -336.13902283 388.74360657 C-336.86294111 384.10561155 -337.58898887 379.46795589 -338.31727409 374.83064461 C-338.57021811 373.21896166 -338.82261329 371.60719247 -339.07440376 369.9953289 C-339.40896074 367.85512672 -339.74581232 365.71529955 -340.0834198 363.57557678 C-340.26630051 362.41147781 -340.44918121 361.24737885 -340.63760376 360.04800415 C-341.04457052 357.69608906 -341.51904025 355.42163795 -342.14421082 353.12025452 C-342.33942322 353.89288635 -342.53463562 354.66551819 -342.73576355 355.46156311 C-350.9630969 387.77454006 -361.70939565 418.58473589 -377.1627655 448.23109436 C-378.19337653 450.21489239 -379.20406426 452.20815657 -380.21452332 454.20228577 C-400.02480659 492.90175727 -427.85537097 527.02121547 -458.47819519 557.63954163 C-460.14842177 559.31197102 -461.8104346 560.99229121 -463.47233582 562.67298889 C-469.26314749 568.49382748 -475.15311364 573.94894942 -481.59147644 579.06385803 C-484.05158847 581.04564109 -486.39842627 583.10770834 -488.73796082 585.22962952 C-493.17985006 589.21786222 -497.84882198 592.81947042 -502.64421082 596.37025452 C-503.51295837 597.01647766 -504.38170593 597.66270081 -505.27677917 598.32850647 C-577.91671425 652.16065614 -666.16008076 690.99146424 -814.14421082 695.12025452 C-813.14421082 693.12025452 -813.14421082 693.12025452 -811.39884949 692.53285217 C-810.62774841 692.36833557 -809.85664734 692.20381897 -809.06217957 692.03431702 C-808.16805359 691.8321759 -807.27392761 691.63003479 -806.35270691 691.42176819 C-805.3557782 691.19851868 -804.35884949 690.97526917 -803.33171082 690.74525452 C-753.5768088 678.92932762 -705.03314429 657.44857002 -663.14421082 628.12025452 C-662.56558289 627.71887268 -661.98695496 627.31749084 -661.39079285 626.90394592 C-641.70422542 613.22142934 -622.63524309 597.92914728 -605.84733582 580.78822327 C-604.05609272 579.03395537 -602.18448344 577.42517962 -600.26921082 575.80775452 C-596.40770673 572.47046992 -593.06356076 568.81562544 -589.69499207 564.98744202 C-587.28352367 562.27684814 -584.82117146 559.62664058 -582.33610535 556.98402405 C-576.31591704 550.57465185 -570.62032615 544.00504688 -565.14421082 537.12025452 C-564.22479204 535.99170909 -563.30415046 534.86415913 -562.38249207 533.73744202 C-550.77660384 519.48800104 -540.11973604 504.55102728 -530.14421082 489.12025452 C-529.67660339 488.39757385 -529.20899597 487.67489319 -528.72721863 486.93031311 C-505.05084935 450.19838491 -485.04694517 411.39366812 -468.14421082 371.12025452 C-467.87499817 370.47953003 -467.60578552 369.83880554 -467.32841492 369.17866516 C-431.57740025 283.8227752 -409.39791687 191.98348564 -389.39445496 18.57044983 C-388.98238035 12.8890466 -388.45315105 8.78296239 -384.83171082 4.18275452 C-380.76110443 1.05880078 -376.89716455 0.99587181 -371.88252258 0.98654175 C-370.84241028 0.98227676 -369.80229797 0.97801178 -368.73066711 0.97361755 C-367.60014923 0.97407074 -366.46963135 0.97452393 -365.30485535 0.97499084 C-364.10592651 0.97163223 -362.90699768 0.96827362 -361.67173767 0.96481323 C-358.39066675 0.95695005 -355.10963384 0.95363619 -351.82855463 0.95299745 C-349.77630881 0.95228552 -347.72406959 0.9501485 -345.67182541 0.94750023 C-338.50555247 0.9382553 -331.33929811 0.93416429 -324.17301941 0.93495178 C-317.50369542 0.93555239 -310.83445237 0.92500167 -304.16514885 0.90920812 C-298.4299504 0.89611286 -292.69477833 0.89076872 -286.95956504 0.89140719 C-283.5382775 0.89166159 -280.11706192 0.88884262 -276.69578934 0.87822914 C-272.87790971 0.86843012 -269.06023834 0.8713071 -265.24235535 0.87733459 C-264.11588593 0.87171509 -262.9894165 0.86609558 -261.82881165 0.86030579 C-256.25411256 0.88266578 -251.32248191 0.93894387 -246.14421082 3.12025452 C-243.06057439 6.34331559 -242.4510442 9.38684091 -241.69671631 13.71896362 C-241.57570071 14.40927038 -241.45468511 15.09957714 -241.33000237 15.81080228 C-239.41587504 27.01548298 -237.8927017 38.28678102 -236.30412292 49.54090881 C-235.9250084 52.20762482 -235.54560782 54.8742987 -235.16585064 57.54092312 C-234.34617569 63.30056571 -233.52906662 69.06056755 -232.7136879 74.82081985 C-231.50944284 83.32799237 -230.30095328 91.83455813 -229.09149611 100.34099102 C-227.07503657 114.52382158 -225.06152445 128.70706894 -223.04963684 142.89054871 C-220.07839103 163.83676634 -217.10169341 184.78220729 -214.12345886 205.72743225 C-213.99963686 206.59825519 -213.87581485 207.46907812 -213.74824066 208.36628963 C-212.49273013 217.19608066 -211.23712674 226.02585848 -209.98141507 234.85562091 C-208.84321041 242.8591148 -207.7051463 250.86262865 -206.56730843 258.8661747 C-197.12531829 325.28044427 -187.64284216 391.68884916 -178.11881822 458.09140366 C-176.82511379 467.11188697 -175.53268853 476.13255293 -174.24085999 485.15330505 C-172.68352939 496.02779367 -171.12470387 506.90206655 -169.56372404 517.77603197 C-168.77728237 523.25452796 -167.99142065 528.73310523 -167.20724106 534.21192551 C-166.49710766 539.17304281 -165.78502595 544.13387629 -165.07132161 549.09448111 C-164.81404485 550.88504137 -164.55747682 552.67570363 -164.30167282 554.46647489 C-163.95609029 556.88496433 -163.60796166 559.3030736 -163.25915527 561.72109985 C-163.11011555 562.77062602 -163.11011555 562.77062602 -162.95806491 563.84135473 C-162.50218528 566.98329195 -162.00055968 570.06045261 -161.14421082 573.12025452 C-160.36819519 572.10189514 -159.59217957 571.08353577 -158.79264832 570.03431702 C-158.27903748 569.36142639 -157.76542664 568.68853577 -157.23625183 567.99525452 C-156.06636521 566.46224227 -154.89762864 564.92835186 -153.72990417 563.39369202 C-150.84173286 559.60742804 -147.93831702 555.84127237 -144.93717957 552.14369202 C-123.29892472 525.31992845 -104.71713681 495.198211 -88.57633972 464.8082428 C-87.20047172 462.22585161 -85.80533669 459.65479045 -84.40592957 457.08509827 C-44.71349692 383.57448349 -22.96643865 300.16661107 -11.45671082 191.12025452 C-11.3957724 190.34338287 -11.33483398 189.56651123 -11.27204895 188.76609802 C-9.39084152 164.402957 -8.95582091 140.075833 -8.95890808 115.65174866 C-8.958989 112.35514296 -8.95208241 109.05867726 -8.93840027 105.76210022 C-8.81880236 76.43906164 -9.7489656 47.43815985 -13.65592957 18.33119202 C-14.15284311 13.97621067 -14.19346975 10.38462239 -13.14421082 6.12025452 C-9.10560979 1.2314217 -6.1971944 -0.00616636 0 0 Z " fill="#00B0F0" transform="translate(1340.1442108154297,494.87974548339844)"/>
<path d="M0 0 C1.0169696 -0.00525696 2.03393921 -0.01051392 3.08172607 -0.01593018 C6.43411744 -0.02910462 9.78603177 -0.02040153 13.13842773 -0.01025391 C15.47200105 -0.01227521 17.80557374 -0.01518712 20.1391449 -0.01895142 C25.0256045 -0.02337118 29.91189941 -0.01695412 34.79833984 -0.00292969 C41.06197227 0.01417127 47.3252193 0.00431277 53.58883762 -0.01364708 C58.40580654 -0.02448607 63.22268402 -0.02103816 68.03965569 -0.0132637 C70.34933455 -0.01126252 72.65902171 -0.0137181 74.96869087 -0.02070236 C78.19549694 -0.02831955 81.42167799 -0.01670868 84.6484375 0 C85.6028624 -0.00607269 86.55728729 -0.01214539 87.54063416 -0.0184021 C96.06679216 0.06340321 96.06679216 0.06340321 99.75952148 3.38818359 C103.51135408 8.99456309 103.17580703 14.35694145 103.12866497 20.85560417 C103.1321265 22.02243996 103.13558804 23.18927575 103.13915446 24.39147019 C103.145736 27.63611073 103.13884033 30.88040321 103.12632006 34.12501605 C103.11601504 37.65256367 103.12313031 41.18008273 103.12805253 44.707636 C103.13427498 50.8918977 103.12934038 57.07607283 103.11713791 63.26032448 C103.09904363 72.45608401 103.09812949 81.6517889 103.10076388 90.84756299 C103.10470717 106.31577951 103.09467531 121.7839576 103.07671165 137.25216293 C103.05896786 152.57027247 103.04741529 167.88836601 103.04415321 183.20648575 C103.04394699 184.15849355 103.04374078 185.11050135 103.04352831 186.09135787 C103.04251333 190.92601496 103.04160917 195.76067206 103.04074768 200.59532918 C103.03444444 234.84985926 103.01422677 269.10436842 102.98583984 303.35888672 C102.95829209 336.63915902 102.93703853 369.91942561 102.92431641 403.19970703 C102.92372454 404.73814791 102.92372454 404.73814791 102.92312071 406.30766841 C102.91916519 416.60732639 102.91533775 426.90698443 102.91160414 437.2066425 C102.90399525 458.18871615 102.89553149 479.17078944 102.8865509 500.15286255 C102.88613903 501.1176097 102.88572716 502.08235685 102.88530281 503.07633876 C102.8639121 553.00320499 102.82982891 602.93006154 102.79284668 652.85691833 C102.79232647 653.55933436 102.79180625 654.26175039 102.79127028 654.98545175 C102.7810264 668.78636263 102.77022024 682.58727305 102.75952148 696.38818359 C62.16952148 696.38818359 21.57952148 696.38818359 -20.24047852 696.38818359 C-20.57047852 676.58818359 -20.90047852 656.78818359 -21.24047852 636.38818359 C-24.21047852 639.68818359 -27.18047852 642.98818359 -30.24047852 646.38818359 C-54.39010539 672.14778559 -88.56245385 687.05282935 -122.61547852 694.26318359 C-123.51596924 694.45420654 -124.41645996 694.64522949 -125.34423828 694.84204102 C-140.65324831 697.85842625 -155.92107835 698.74004074 -171.49047852 698.63818359 C-172.76591019 698.63353088 -172.76591019 698.63353088 -174.06710815 698.62878418 C-237.36125318 698.3588573 -294.15695567 679.68996778 -339.41674805 634.46313477 C-353.33784433 620.2361931 -363.90364737 602.85571379 -373.24047852 585.38818359 C-373.58320801 584.75332031 -373.9259375 584.11845703 -374.27905273 583.46435547 C-391.41455526 551.4737093 -400.16926149 515.38570403 -403.24047852 479.38818359 C-403.35133789 478.27443359 -403.46219727 477.16068359 -403.57641602 476.01318359 C-409.56854763 406.05099822 -394.35315179 330.23446662 -348.99267578 275.09204102 C-337.46330309 261.44722297 -324.71876529 248.86889521 -310.24047852 238.38818359 C-309.19762695 237.62376953 -308.15477539 236.85935547 -307.08032227 236.07177734 C-245.20897564 191.98748452 -161.1586717 180.34949175 -87.13110352 192.35302734 C-67.42764069 195.79981172 -48.8022281 201.86747556 -31.18132019 211.36174011 C-28.80966894 212.61602376 -26.41241589 213.81377604 -24.01123047 215.01049805 C-23.11620316 215.4569014 -22.22117584 215.90330475 -21.29902649 216.36323547 C-20.61970566 216.70146835 -19.94038483 217.03970123 -19.24047852 217.38818359 C-19.24324389 216.32781356 -19.24600927 215.26744352 -19.24885845 214.17494106 C-19.31544799 188.37748731 -19.36475148 162.58004469 -19.39591503 136.78252316 C-19.41138593 124.30705143 -19.43247981 111.83163647 -19.46679688 99.35620117 C-19.49669229 88.48300866 -19.51605189 77.60985725 -19.522744 66.73662478 C-19.52665599 60.97898143 -19.53585454 55.22145569 -19.55766869 49.46385002 C-19.57803597 44.0442016 -19.58431177 38.62471922 -19.57980156 33.20503616 C-19.58062665 31.216459 -19.58659078 29.22787626 -19.59809494 27.2393322 C-19.61304274 24.52217993 -19.60942372 21.80565276 -19.60124207 19.08848572 C-19.60998059 18.30344931 -19.61871911 17.5184129 -19.62772244 16.70958751 C-19.58584868 11.55698809 -18.67240837 7.9585334 -16.24047852 3.38818359 C-11.24712475 -0.36199852 -5.98680747 -0.03817306 0 0 Z M-173.24047852 287.38818359 C-174.10866211 287.58686035 -174.9768457 287.78553711 -175.87133789 287.99023438 C-188.16118293 290.9263373 -199.27564823 295.12166657 -210.24047852 301.38818359 C-211.23305664 301.94248047 -212.22563477 302.49677734 -213.24829102 303.06787109 C-239.65499329 318.79152003 -254.0470253 345.70662645 -261.5793457 374.59472656 C-263.66670963 383.41437872 -265.06541637 392.40541544 -266.24047852 401.38818359 C-266.39734131 402.57589355 -266.39734131 402.57589355 -266.55737305 403.78759766 C-267.66761683 413.80958354 -267.48348996 423.94329615 -267.49047852 434.01318359 C-267.4914856 435.01718201 -267.49249268 436.02118042 -267.49353027 437.05560303 C-267.48313814 452.37269581 -266.95264056 467.27591245 -264.24047852 482.38818359 C-264.09594238 483.2333252 -263.95140625 484.0784668 -263.80249023 484.94921875 C-257.81814962 519.16533234 -242.09836339 551.31157617 -213.50219727 572.15771484 C-189.65070057 588.46813953 -163.44446612 594.83284116 -134.74047852 594.70068359 C-133.9001004 594.69852844 -133.05972229 594.69637329 -132.19387817 594.69415283 C-96.14858959 594.54585182 -54.76685442 585.47969267 -27.24047852 560.38818359 C-21.21429837 553.22754121 -19.09125491 548.09608833 -19.0933075 538.76716614 C-19.08963081 537.87594942 -19.08595412 536.98473271 -19.08216602 536.06650943 C-19.07111718 533.06801549 -19.06728329 530.06955619 -19.06347656 527.07104492 C-19.05721281 524.9259734 -19.05056609 522.78090297 -19.04356384 520.63583374 C-19.02614582 514.7988873 -19.01559984 508.96194906 -19.00735831 503.12498307 C-19.00220975 499.47905411 -18.99613394 495.83312771 -18.98984718 492.18720055 C-18.97079267 480.782324 -18.95656221 469.37745393 -18.94823521 457.97256452 C-18.93846152 444.80323066 -18.91213948 431.63406482 -18.87173432 418.46479017 C-18.84158363 408.28889122 -18.82676732 398.11304047 -18.8234542 387.93709773 C-18.8211025 381.85806783 -18.81212625 375.77921739 -18.78699303 369.70023537 C-18.76372585 363.98009634 -18.75947379 358.26025509 -18.76975441 352.54008102 C-18.77025021 350.44226657 -18.76391686 348.34443752 -18.75019836 346.24666786 C-18.73249532 343.37879518 -18.73957806 340.51199296 -18.75273132 337.64411926 C-18.74176208 336.81735068 -18.73079283 335.99058209 -18.71949118 335.13875991 C-18.79605441 328.20647671 -20.95062816 323.14947372 -25.36547852 317.82568359 C-44.14962338 301.89999555 -69.38184811 292.46072306 -93.24047852 287.38818359 C-93.98652344 287.22447266 -94.73256836 287.06076172 -95.5012207 286.89208984 C-119.79604526 281.81712433 -149.04290221 281.84663989 -173.24047852 287.38818359 Z " fill="#00B0F0" transform="translate(2295.240478515625,494.61181640625)"/>
<path d="M0 0 C1.52617 0.17900469 3.05237555 0.35770653 4.57861328 0.53613281 C15.41756415 1.81973616 26.21352896 3.33462165 37 5 C38.01658691 5.15505005 38.01658691 5.15505005 39.05371094 5.31323242 C121.4059658 17.92782598 202.27195846 47.80555523 274 90 C274.93086426 90.54591797 275.86172852 91.09183594 276.82080078 91.65429688 C304.19999199 107.79460082 330.23224673 126.09394766 355 146 C355.928125 146.74507812 356.85625 147.49015625 357.8125 148.2578125 C368.98842458 157.32200714 379.8697782 166.71370977 390.40332031 176.51660156 C392.1156601 178.10745425 393.83501019 179.6905212 395.5546875 181.2734375 C417.93848718 201.9417226 417.93848718 201.9417226 427.20703125 212.92578125 C429.1822271 215.21081174 431.23180094 217.41348371 433.29394531 219.61987305 C439.13856044 225.87693244 444.64321813 232.31710926 450 239 C451.00636432 240.22775097 452.01427721 241.45423366 453.0234375 242.6796875 C498.62877858 298.1565818 536.62041368 362.55915602 559 431 C558.34 431 557.68 431 557 431 C555.80175781 429.55737305 555.80175781 429.55737305 554.453125 427.51171875 C553.94523437 426.75221924 553.43734375 425.99271973 552.9140625 425.21020508 C552.36492187 424.3777124 551.81578125 423.54521973 551.25 422.6875 C540.59767628 406.84485543 529.22928039 391.65798351 517 377 C516.26305908 376.11441406 516.26305908 376.11441406 515.51123047 375.2109375 C510.22018058 368.86523464 504.83397005 362.61716795 499.265625 356.51171875 C497.39257512 354.4352169 495.55213174 352.33784686 493.71875 350.2265625 C489.98956692 345.95673756 486.14145738 341.80937262 482.25 337.6875 C481.55261719 336.94838379 480.85523438 336.20926758 480.13671875 335.44775391 C472.80639846 327.70400625 465.47168194 319.98934395 457.34765625 313.06640625 C454.72776203 310.76037623 452.19309438 308.37604285 449.65478516 305.98095703 C443.83923758 300.49450969 437.97545565 295.18650142 431.72265625 290.1953125 C429.24802199 288.19998329 426.83092293 286.14966285 424.42382812 284.07373047 C417.24212358 277.89528828 409.76148047 272.1936315 402.13330078 266.58007812 C400.00215246 265.00159427 397.88850774 263.4019613 395.77734375 261.796875 C374.89825289 246.02207773 352.7273696 231.94654911 330 219 C329.25878906 218.57493164 328.51757812 218.14986328 327.75390625 217.71191406 C322.54297836 214.73188523 317.28704318 211.84259412 312 209 C311.0409375 208.48356934 310.081875 207.96713867 309.09375 207.43505859 C240.37507854 170.63835748 164.30466914 145.20540461 27 128 C26.11908691 127.94360352 25.23817383 127.88720703 24.33056641 127.82910156 C-55.07271663 122.89286657 -136.41351114 132.53258021 -325.05517578 200.01220703 C-327.21041913 201.10687369 -329.38232072 202.16262455 -331.55859375 203.21484375 C-345.11386195 209.80100392 -358.08842928 217.23542058 -371 225 C-371.90927246 225.5455957 -372.81854492 226.09119141 -373.75537109 226.65332031 C-399.33260486 242.06626551 -423.72685503 259.29517696 -447 278 C-447.928125 278.74507813 -448.85625 279.49015625 -449.8125 280.2578125 C-461.36424062 289.62681143 -472.5427497 299.36876809 -483.40869141 309.52197266 C-484.96458079 310.96710219 -486.53236533 312.3978656 -488.10546875 313.82421875 C-494.51467451 319.64877062 -500.73994688 325.63690531 -506.875 331.75 C-507.57657227 332.44697998 -508.27814453 333.14395996 -509.00097656 333.86206055 C-512.95801806 337.83086215 -516.7320632 341.9030871 -520.39208984 346.14697266 C-522.65977493 348.76035405 -525.0166203 351.28060588 -527.375 353.8125 C-531.67195948 358.46385549 -535.74190142 363.25074841 -539.7109375 368.1875 C-541.69352015 370.62343772 -543.72422005 373.00691255 -545.78100586 375.38012695 C-573.65275453 407.67692709 -596.61017113 444.66564707 -617 482 C-617.48178711 482.8755957 -617.96357422 483.75119141 -618.45996094 484.65332031 C-661.11955592 562.49421364 -685.43740062 652.3416403 -692 771 C-692.02336426 771.88365234 -692.04672852 772.76730469 -692.07080078 773.67773438 C-693.10824383 818.20932333 -687.73556817 864.6938781 -677.1171875 907.94335938 C-676.28197911 911.37419384 -675.82530988 914.46588445 -676 918 C-679.89274413 913.11761155 -682.30972633 907.54063382 -685 901.9375 C-685.28589996 901.34242645 -685.57179993 900.74735291 -685.86636353 900.13424683 C-696.45224481 878.02712795 -705.04222975 855.16793182 -713 832 C-713.34095703 831.02579102 -713.68191406 830.05158203 -714.03320312 829.04785156 C-727.0051542 791.79539963 -735.24980093 752.64238582 -740.25 713.5625 C-740.40138428 712.38075195 -740.55276855 711.19900391 -740.70874023 709.98144531 C-741.18703267 705.99179968 -741.61006376 701.99904344 -742 698 C-742.08720306 697.11631744 -742.17440613 696.23263489 -742.26425171 695.32217407 C-744.00138393 677.13720988 -744.36448373 659.03159496 -744.31805801 640.78254318 C-744.31241131 638.52707599 -744.30959489 636.27161634 -744.30697632 634.0161438 C-744.27017801 612.20936733 -743.83181363 590.65488432 -741 569 C-740.8206558 567.56860134 -740.64196673 566.13712047 -740.46386719 564.70556641 C-729.21904005 475.25391597 -699.67863206 389.53852231 -632 282 C-631.23091309 280.91428711 -631.23091309 280.91428711 -630.44628906 279.80664062 C-623.23689331 269.64853706 -615.81547892 259.69954019 -608 250 C-607.25363281 249.07058594 -606.50726562 248.14117187 -605.73828125 247.18359375 C-597.04827076 236.4653941 -588.05960939 226.01043109 -578.67578125 215.89453125 C-576.97142159 214.05083708 -575.27980811 212.19521787 -573.60546875 210.32421875 C-567.38502169 203.39846116 -560.88484667 196.77863781 -554.3125 190.1875 C-553.42127441 189.29168213 -552.53004883 188.39586426 -551.61181641 187.47290039 C-547.12728471 182.99880172 -542.58734016 178.66167523 -537.78051758 174.53540039 C-535.18588139 172.29795805 -532.69452242 169.96021249 -530.1875 167.625 C-525.61702095 163.40725913 -520.9306113 159.3904736 -516.08203125 155.4921875 C-513.76835882 153.62130916 -511.47813421 151.73268121 -509.19921875 149.8203125 C-498.77819964 141.0966283 -488.04468677 132.91683148 -477 125 C-476.19691406 124.4225 -475.39382813 123.845 -474.56640625 123.25 C-447.07562982 103.54461146 -418.15281128 86.30203105 -388 71 C-387.25814453 70.62149902 -386.51628906 70.24299805 -385.75195312 69.85302734 C-381.83613224 67.85742942 -377.90661816 65.89284322 -373.95898438 63.9609375 C-372.63524491 63.31160568 -371.31367307 62.65783896 -369.99414062 62 C-332.50402288 43.34327788 -292.41049093 29.7124314 -252 19 C-250.97353363 18.72703094 -250.97353363 18.72703094 -249.92633057 18.44854736 C-216.81261195 9.67521562 -183.05028809 3.68988447 -149 0 C-147.09420166 -0.22429687 -147.09420166 -0.22429687 -145.14990234 -0.453125 C-97.83992555 -5.8793589 -47.26816673 -5.73833059 0 0 Z " fill="#00B0F0" transform="translate(788,3)"/>
<path d="M0 0 C1.17228653 -0.00101212 1.17228653 -0.00101212 2.36825562 -0.00204468 C49.82554873 0.06241815 99.00251846 11.80404762 137.8125 40.25 C139.3903125 41.40242187 139.3903125 41.40242187 141 42.578125 C148.72628603 48.32483597 155.8688214 54.58711593 162.8125 61.25 C163.3703418 61.78061035 163.92818359 62.3112207 164.50292969 62.85791016 C170.39543173 68.48738362 176.05513378 73.90324102 180.3125 80.91015625 C181.81690896 83.25687752 183.48392016 85.41344249 185.22412109 87.58886719 C191.91946631 95.9779067 197.45060465 104.96530658 202.8125 114.25 C203.40611328 115.2702124 203.40611328 115.2702124 204.01171875 116.31103516 C223.64733382 150.44718337 233.42390765 189.7573721 238.125 228.5625 C238.20649292 229.2344339 238.28798584 229.9063678 238.37194824 230.59866333 C240.15499666 245.57162141 240.8125 260.13836644 240.8125 275.25 C117.0625 275.25 -6.6875 275.25 -134.1875 275.25 C-128.33981943 305.95032301 -121.58488199 335.49205274 -100.1875 359.25 C-99.50429687 360.075 -98.82109375 360.9 -98.1171875 361.75 C-71.1137381 393.63599192 -25.49284342 407.5477649 14.8125 410.9375 C66.63450198 413.63832095 120.69149758 407.60949531 161.8125 373.25 C162.47765625 372.73179687 163.1428125 372.21359375 163.828125 371.6796875 C174.1771922 363.30788111 181.71448476 351.35463129 188.8125 340.25 C194.77002288 341.48542373 200.55469059 342.99646681 206.34765625 344.8515625 C207.11178329 345.0928891 207.87591034 345.3342157 208.66319275 345.58285522 C211.06828018 346.3433232 213.47165105 347.10905779 215.875 347.875 C217.52007094 348.39618492 219.16525234 348.91702133 220.81054688 349.4375 C224.81248402 350.70431469 228.81289235 351.97585064 232.8125 353.25 C232.2018925 357.90898848 230.93594178 361.88266265 229.1875 366.23828125 C228.92492905 366.89421768 228.66235809 367.55015411 228.39183044 368.22596741 C227.5405028 370.34168727 226.67811225 372.45258694 225.8125 374.5625 C225.37032639 375.64437592 225.37032639 375.64437592 224.91921997 376.74810791 C217.6216568 394.5471995 208.96626369 410.54239836 197.8125 426.25 C197.37744141 426.86439941 196.94238281 427.47879883 196.49414062 428.11181641 C179.85637699 451.24346686 157.84224608 468.98546179 132.8125 482.25 C132.11721191 482.61963867 131.42192383 482.98927734 130.70556641 483.37011719 C95.38361725 501.80856551 54.52441427 507.49652616 15.125 507.4375 C13.99189896 507.43659363 13.99189896 507.43659363 12.83590698 507.43566895 C-56.86005339 507.28597948 -130.32693358 491.86368991 -182.9296875 443.3203125 C-184.95225254 441.46571134 -187.02233984 439.69964839 -189.125 437.9375 C-198.70841557 429.54960106 -206.73340705 419.52770336 -214.1875 409.25 C-214.58259766 408.71133301 -214.97769531 408.17266602 -215.38476562 407.61767578 C-238.49566853 375.75980677 -250.70656511 337.87688867 -256.1875 299.25 C-256.30609375 298.4240332 -256.4246875 297.59806641 -256.546875 296.74707031 C-265.76351633 228.58232715 -252.06151162 154.61577737 -210.1875 99.25 C-207.28008506 95.49729829 -204.29032368 91.84244356 -201.1875 88.25 C-200.49527344 87.44691406 -199.80304687 86.64382813 -199.08984375 85.81640625 C-189.59682675 75.048465 -179.52354732 65.07046378 -168.1875 56.25 C-166.74890625 55.08597656 -166.74890625 55.08597656 -165.28125 53.8984375 C-118.23099079 16.47209494 -59.50523104 0.04679893 0 0 Z M-33.1875 90.25 C-33.98800781 90.44867676 -34.78851562 90.64735352 -35.61328125 90.85205078 C-47.55659057 93.91355576 -58.49322392 98.11329507 -69.1875 104.25 C-69.79819336 104.59933594 -70.40888672 104.94867187 -71.03808594 105.30859375 C-80.11983597 110.60345282 -87.68266558 116.9254619 -95.1875 124.25 C-96.13496094 125.10464844 -96.13496094 125.10464844 -97.1015625 125.9765625 C-115.55352928 143.02932801 -128.32553621 170.42487589 -131.1875 195.25 C-131.13316696 198.46813865 -131.13316696 198.46813865 -130.1875 201.25 C-127.37241641 203.07903695 -125.15238939 203.49886315 -121.83337402 203.49165154 C-120.96399452 203.49461703 -120.09461502 203.49758253 -119.19889069 203.50063789 C-117.77302769 203.49015566 -117.77302769 203.49015566 -116.31835938 203.47946167 C-114.79838474 203.48013301 -114.79838474 203.48013301 -113.24770355 203.48081791 C-109.84213313 203.4797651 -106.43678307 203.46423732 -103.03125 203.44873047 C-100.59383253 203.44485347 -98.15641363 203.44180639 -95.71899414 203.43952942 C-89.77983082 203.43138023 -83.8407448 203.41355486 -77.90162468 203.39056377 C-73.07529143 203.37192838 -68.24895861 203.35649494 -63.42260742 203.34332657 C-49.74275161 203.30564083 -36.06296158 203.2595588 -22.38317204 203.20265304 C-21.27697844 203.19805267 -21.27697844 203.19805267 -20.1484375 203.19335938 C-19.41007628 203.190287 -18.67171507 203.18721462 -17.91097927 203.18404914 C-5.93794092 203.13474001 6.03505257 203.10538472 18.00817204 203.08507679 C30.2984026 203.06400506 42.58851234 203.02812603 54.87865448 202.9767276 C61.78020242 202.94816837 68.68164474 202.92576109 75.58325195 202.91924667 C82.07086682 202.91299219 88.55819339 202.88621746 95.04568481 202.84541893 C97.4305687 202.83367326 99.81549728 202.82877403 102.20040894 202.83111382 C105.44846338 202.83324562 108.69545135 202.81100639 111.94335938 202.78244019 C112.89393471 202.78883636 113.84451004 202.79523254 114.82389069 202.80182254 C119.97898084 202.76955898 119.97898084 202.76955898 124.40539551 200.33610725 C126.5676706 197.13041941 126.09393073 195.25122896 125.546875 191.53125 C120.43740315 168.70169492 111.06214691 146.16334069 95.8125 128.25 C95.16023438 127.45335937 94.50796875 126.65671875 93.8359375 125.8359375 C74.7351848 103.40123524 43.84455186 89.68523022 14.8125 87.25 C-1.27170586 86.44408225 -17.49363684 86.30170215 -33.1875 90.25 Z " fill="#00B0F0" transform="translate(2749.1875,683.75)"/>
<path d="M0 0 C52.1117344 -1.31854961 104.83448549 11.71079407 144.99023438 46.08251953 C145.64507813 46.61490234 146.29992188 47.14728516 146.97460938 47.69580078 C151.50360738 51.41318631 155.23525683 55.59697105 158.99023438 60.08251953 C159.66828125 60.84951172 160.34632813 61.61650391 161.04492188 62.40673828 C183.59707913 88.61057936 195.37865496 122.24586351 195.23074341 156.61653137 C195.23161748 158.14567835 195.23337215 159.67482503 195.23592174 161.20397013 C195.24035974 165.37041688 195.23244089 169.53675935 195.22236562 173.70319283 C195.21368182 178.20948203 195.21665475 182.71576594 195.21817017 187.22206116 C195.21921591 195.01775809 195.21297183 202.8134214 195.20169449 210.60910988 C195.18540026 221.88018887 195.18022748 233.1512517 195.17771851 244.42234119 C195.17334755 262.71150164 195.16005473 281.00064419 195.14111328 299.28979492 C195.12273896 317.04988516 195.10859005 334.80997053 195.10009766 352.57006836 C195.09957221 353.66586733 195.09904676 354.76166629 195.09850539 355.89067129 C195.09589521 361.38829123 195.09336782 366.88591121 195.09088159 372.38353121 C195.07016775 417.94987655 195.03330806 463.51618876 194.99023438 509.08251953 C159.35023438 509.08251953 123.71023438 509.08251953 86.99023438 509.08251953 C86.99023438 494.56251953 86.99023438 480.04251953 86.99023438 465.08251953 C83.36023437 468.38251953 79.73023437 471.68251953 75.99023438 475.08251953 C46.26925124 498.59172162 11.19690268 509.12668785 -26.48242188 509.28564453 C-27.5631749 509.2913446 -28.64392792 509.29704468 -29.75743103 509.30291748 C-32.04083291 509.31231838 -34.32424806 509.31888179 -36.60766602 509.32275391 C-40.01083911 509.33234639 -43.41337732 509.36337035 -46.81640625 509.39501953 C-69.38635185 509.5044229 -91.25093149 507.18933082 -113.00976562 501.08251953 C-113.75178223 500.87820313 -114.49379883 500.67388672 -115.25830078 500.46337891 C-133.74855158 495.23850427 -152.70240811 486.76445027 -168.00976562 475.08251953 C-168.81317383 474.49035645 -168.81317383 474.49035645 -169.6328125 473.88623047 C-195.43703146 454.85961007 -214.34067535 429.82259855 -222.75976562 398.58251953 C-222.95860352 397.84799561 -223.15744141 397.11347168 -223.36230469 396.35668945 C-226.80901996 382.77822753 -227.38167531 369.44288274 -227.32226562 355.52001953 C-227.32044281 354.63545074 -227.31862 353.75088196 -227.31674194 352.83950806 C-227.27123246 339.72847923 -226.89636266 326.92424715 -224.00976562 314.08251953 C-223.8328418 313.28201172 -223.65591797 312.48150391 -223.47363281 311.65673828 C-217.17546411 284.02746623 -205.55974634 260.7648671 -186.00976562 240.08251953 C-185.26339844 239.27169922 -184.51703125 238.46087891 -183.74804688 237.62548828 C-149.57107494 201.75379047 -95.42499692 189.50626361 -48.00976562 185.08251953 C-46.50990112 184.94112549 -46.50990112 184.94112549 -44.97973633 184.796875 C-34.02162929 183.88783266 -23.06215232 183.84013941 -12.07226562 183.83251953 C-11.06008972 183.83151245 -10.04791382 183.83050537 -9.00506592 183.82946777 C8.50702764 183.84119331 25.62771553 184.68856197 42.99023438 187.08251953 C44.07900879 187.23237305 45.1677832 187.38222656 46.28955078 187.53662109 C60.08770506 189.5074871 73.5389243 192.45185619 86.99023438 196.08251953 C93.03215523 171.91483613 85.38688345 141.08723678 72.99023438 120.08251953 C70.54230152 116.52325519 67.88682319 113.28401243 64.99023438 110.08251953 C63.9925 108.94556641 63.9925 108.94556641 62.97460938 107.78564453 C41.35582133 84.56546478 7.6556098 78.87787709 -22.57617188 77.79736328 C-67.70358223 76.8492373 -108.73808418 88.7954647 -142.00976562 120.08251953 C-142.89535156 120.87142578 -142.89535156 120.87142578 -143.79882812 121.67626953 C-154.67521479 131.77945336 -161.86623416 144.76058366 -168.00976562 158.08251953 C-168.33976562 158.74251953 -168.66976562 159.40251953 -169.00976562 160.08251953 C-179.45262539 157.51679768 -189.54561336 153.90618126 -199.69726562 150.39501953 C-201.47775456 149.78206964 -203.2583527 149.16943685 -205.0390625 148.55712891 C-209.36389784 147.06924535 -213.68723279 145.57707833 -218.00976562 144.08251953 C-217.53807009 142.65723335 -217.06548379 141.23224196 -216.5925293 139.80737305 C-216.19791756 138.61701195 -216.19791756 138.61701195 -215.79533386 137.40260315 C-207.08449516 111.67616309 -193.43245547 88.23973496 -175.02929688 68.28955078 C-173.27071655 66.36769801 -171.60156788 64.40604464 -169.94726562 62.39501953 C-166.63832609 58.53160904 -162.9225346 55.3217289 -159.00976562 52.08251953 C-158.25010498 51.43839111 -158.25010498 51.43839111 -157.47509766 50.78125 C-112.89212108 13.06516606 -56.97941294 1.56221947 0 0 Z M-98.66601562 289.30517578 C-116.25317511 310.14595977 -120.90550052 335.88609675 -118.72851562 362.52392578 C-116.40072147 379.6914077 -106.8509578 393.07095049 -95.00976562 405.08251953 C-94.02169922 406.08992188 -94.02169922 406.08992188 -93.01367188 407.11767578 C-73.86535953 425.1953298 -46.78141828 429.71319653 -21.50976562 429.45751953 C-20.27135925 429.45054047 -20.27135925 429.45054047 -19.00793457 429.44342041 C11.29987543 429.24430523 58.76587093 426.8911913 82.78710938 405.48095703 C86.18441118 401.60650609 87.11329697 398.30464204 87.13067627 393.28239441 C87.13638641 392.2940712 87.14209656 391.30574799 87.14797974 390.28747559 C87.1490976 389.20430054 87.15021545 388.12112549 87.15136719 387.00512695 C87.15633209 385.8634053 87.161297 384.72168365 87.16641235 383.54536438 C87.18104527 379.75956627 87.18783785 375.97381006 87.19335938 372.18798828 C87.19910984 369.56106057 87.20486759 366.93413288 87.21063232 364.3072052 C87.22020296 359.49989683 87.22610021 354.69259752 87.22912908 349.88528079 C87.23360815 342.81555334 87.25115009 335.74601939 87.28012967 328.67635077 C87.30437493 322.54837056 87.31207457 316.42047006 87.31380463 310.29244423 C87.31683347 307.68772643 87.32486973 305.0830095 87.33798981 302.47832298 C87.35503277 298.83476455 87.353174 295.19167776 87.34667969 291.5480957 C87.36050186 289.93244217 87.36050186 289.93244217 87.37460327 288.28414917 C87.33693218 281.54167108 86.7363039 276.83342369 81.77148438 271.85986328 C78.47519347 269.75338525 75.23660486 268.63032053 71.49023438 267.64501953 C70.72541748 267.43965576 69.96060059 267.23429199 69.17260742 267.02270508 C17.54247911 253.81313249 -58.15127118 246.6199986 -98.66601562 289.30517578 Z " fill="#00B0F0" transform="translate(3305.009765625,680.91748046875)"/>
<path d="M0 0 C39.6 0 79.2 0 120 0 C120 166.65 120 333.3 120 505 C80.4 505 40.8 505 0 505 C0 338.35 0 171.7 0 0 Z " fill="#00B0EF" transform="translate(1673,687)"/>
<path d="M0 0 C0.86236771 -0.00137466 1.72473541 -0.00274933 2.61323547 -0.00416565 C3.55622498 -0.00057037 4.49921448 0.0030249 5.47077942 0.00672913 C6.4660817 0.0065831 7.46138397 0.00643707 8.48684692 0.00628662 C11.78205024 0.0069842 15.07719728 0.01476941 18.37239075 0.02259827 C20.65496795 0.02446299 22.93754555 0.02588664 25.22012329 0.02688599 C31.23217369 0.03070684 37.24419998 0.04053348 43.25624084 0.05158997 C49.3893552 0.06181334 55.52247345 0.0663856 61.65559387 0.07142639 C73.69271384 0.0821561 85.72981592 0.09922738 97.766922 0.12025452 C97.766922 0.78025452 97.766922 1.44025452 97.766922 2.12025452 C99.128172 2.18212952 99.128172 2.18212952 100.516922 2.24525452 C104.02623432 3.19006937 105.07998193 4.08586388 106.96015167 7.13667679 C108.65261004 11.29786444 108.28242527 15.75019834 108.22102356 20.17445374 C108.2215057 21.29525393 108.22198784 22.41605412 108.22248459 23.57081795 C108.21950538 27.18918534 108.18907395 30.80672259 108.157547 34.42494202 C108.1516639 36.66264957 108.14758439 38.90036262 108.14533997 41.13807678 C108.12439118 49.42388678 108.06854614 57.70957885 108.016922 65.99525452 C107.934422 84.51650452 107.851922 103.03775452 107.766922 122.12025452 C67.506922 122.12025452 27.246922 122.12025452 -14.233078 122.12025452 C-14.274328 103.74337952 -14.315578 85.36650452 -14.358078 66.43275452 C-14.37628601 60.63108704 -14.39449402 54.82941956 -14.41325378 48.85194397 C-14.42228699 41.76515198 -14.42228699 41.76515198 -14.42396545 38.44708252 C-14.42703578 36.13062777 -14.43406817 33.8141762 -14.44422913 31.4977417 C-14.45885372 27.98814849 -14.46089048 24.47875055 -14.46012878 20.96913147 C-14.47092311 19.42223239 -14.47092311 19.42223239 -14.4819355 17.84408283 C-14.47918051 16.89678397 -14.47642551 15.94948511 -14.47358704 14.97348022 C-14.47543062 14.15216268 -14.47727421 13.33084513 -14.47917366 12.48463917 C-14.04169017 8.28147984 -12.89883904 5.73480316 -9.795578 2.87025452 C-6.43957279 0.57834852 -3.96870628 -0.00488156 0 0 Z " fill="#00AFF0" transform="translate(1687.2330780029297,494.87974548339844)"/>
</svg>
