<?xml version="1.0" encoding="UTF-8"?>
<svg version="1.1" xmlns="http://www.w3.org/2000/svg" width="1000" height="332">
<path d="M0 0 C4.05414962 0.00462192 8.10799845 -0.00228287 12.16210938 -0.02050781 C34.06989591 -0.11787397 55.87109492 0.16804954 77.73266602 1.69067383 C79.05690677 1.78262055 79.05690677 1.78262055 80.40789986 1.87642479 C130.73280931 5.45790987 186.30698021 11.44813063 231.03735352 36.31567383 C231.62629395 36.64180664 232.21523438 36.96793945 232.82202148 37.30395508 C240.76554547 41.77316106 247.59011272 46.87982392 254.03735352 53.31567383 C255.00801758 54.26893555 255.00801758 54.26893555 255.99829102 55.24145508 C266.15564765 65.95325257 268.54224472 77.34466095 268.30688477 91.48364258 C267.63536002 108.58932956 256.24450112 123.24123943 245.03735352 135.31567383 C244.56281738 135.8287207 244.08828125 136.34176758 243.59936523 136.87036133 C236.59910672 144.34742498 229.0254051 150.82807563 220.83618164 156.96557617 C219.06507508 158.2948676 217.30880251 159.64207182 215.55297852 160.99145508 C199.7515846 172.99493954 182.51371445 182.97187689 165.03735352 192.31567383 C164.16385254 192.78328125 163.29035156 193.25088867 162.39038086 193.73266602 C151.64979895 199.45871161 140.82285786 204.9854461 129.84985352 210.25317383 C128.94275635 210.68944092 128.03565918 211.12570801 127.10107422 211.57519531 C120.49969545 214.71074456 113.8038653 217.5569932 107.03735352 220.31567383 C106.04519333 220.72198532 106.04519333 220.72198532 105.0329895 221.13650513 C81.93786467 230.59324484 58.74433395 239.56221826 35.11853027 247.60394287 C33.04588154 248.31275737 30.97625949 249.02975962 28.9074707 249.74975586 C-72.23966644 284.93007362 -178.45558693 306.52498931 -381.71264648 330.00317383 C-382.57709381 330.06411224 -383.44154114 330.12505066 -384.33218384 330.18783569 C-404.50573786 331.59361698 -424.64903051 332.47667698 -444.87280273 332.51879883 C-445.82248869 332.52162621 -446.77217464 332.52445358 -447.75063896 332.52736664 C-452.79518769 332.54220392 -457.83970905 332.55152557 -462.88427734 332.5559082 C-466.93710549 332.56024897 -470.98971548 332.57399143 -475.04248047 332.59692383 C-497.13115039 332.71916446 -519.10956983 332.44586124 -541.15405273 330.94458008 C-542.0603499 330.88316582 -542.96664707 330.82175156 -543.90040779 330.75847626 C-594.3515625 327.25628503 -650.12572573 321.24245135 -694.96264648 296.31567383 C-695.55158691 295.98954102 -696.14052734 295.6634082 -696.74731445 295.32739258 C-704.69083843 290.8581866 -711.51540569 285.75152374 -717.96264648 279.31567383 C-718.60975586 278.68016602 -719.25686523 278.0446582 -719.92358398 277.38989258 C-730.08002605 266.67905957 -732.45700188 255.29465182 -732.23999023 241.15942383 C-732.00160128 235.03009975 -730.54533652 229.86967183 -727.96264648 224.31567383 C-727.56174805 223.43137695 -727.16084961 222.54708008 -726.74780273 221.63598633 C-717.44449146 203.02936379 -701.20446757 187.89237906 -684.72924805 175.63354492 C-682.96911395 174.32049851 -681.22711193 172.98594333 -679.48608398 171.64770508 C-663.69000466 159.64094657 -646.45062238 149.63539761 -628.96264648 140.31567383 C-627.95427734 139.77797363 -626.9459082 139.24027344 -625.90698242 138.6862793 C-611.55458859 131.06781602 -597.08309421 123.91835555 -582.22314453 117.34741211 C-580.0452455 116.35337374 -577.91417588 115.29628519 -575.78295898 114.20629883 C-572.27930568 112.43067197 -568.72418797 111.02314623 -565.02514648 109.69067383 C-559.17960226 107.55627645 -553.40256587 105.28976133 -547.64208984 102.93554688 C-531.65223587 96.41870047 -515.42455202 90.66425907 -499.10064697 85.05133057 C-497.02769036 84.33805454 -494.95578502 83.62179592 -492.8840332 82.9050293 C-400.13165202 50.88342445 -303.26892096 30.12948612 -101.96264648 4.12817383 C-101.02387665 4.0492691 -100.08510681 3.97036438 -99.1178894 3.8890686 C-92.07010676 3.30306656 -85.01866964 2.7916727 -77.96264648 2.31567383 C-76.67568878 2.22740326 -75.38873108 2.13913269 -74.06277466 2.04818726 C-49.37443444 0.3844397 -24.73994954 -0.03050336 0 0 Z " fill="#034EA2" transform="translate(731.962646484375,-0.315673828125)"/>
<path d="M0 0 C14.19 0 28.38 0 43 0 C47.34220976 22.79660122 47.34220976 22.79660122 48.50341797 31.42089844 C49.44114052 38.17950837 50.5639889 44.90998202 51.65942383 51.64453125 C52.06751975 54.15589076 52.47233041 56.66776632 52.87695312 59.1796875 C53.13782536 60.7890942 53.39888596 62.39847038 53.66015625 64.0078125 C53.77996353 64.75257843 53.89977081 65.49734436 54.02320862 66.26467896 C54.55952487 69.5473367 55.11018872 72.79250433 56 76 C60.13142415 50.68669174 64.07104717 25.34559769 68 0 C82.19 0 96.38 0 111 0 C112.15390437 23.07808734 112.15390437 23.07808734 112.31640625 30.71484375 C112.34764587 32.05530006 112.34764587 32.05530006 112.3795166 33.4228363 C112.44404216 36.26099312 112.5037518 39.09921815 112.5625 41.9375 C112.58367889 42.91704651 112.60485779 43.89659302 112.62667847 44.90582275 C113.04066804 64.27222775 113.10514389 83.63015853 113 103 C104.42 103 95.84 103 87 103 C86.67 73.63 86.34 44.26 86 14 C81.23057007 38.72765978 76.47884426 63.44704817 72.12084961 88.25024414 C71.98376083 89.02628494 71.84667206 89.80232574 71.70542908 90.60188293 C71.45177817 92.03900822 71.20006049 93.47647668 70.95069885 94.91435242 C70.45783272 97.70552198 69.89831278 100.30506167 69 103 C60.09 103 51.18 103 42 103 C41.360625 99.184375 40.72125 95.36875 40.0625 91.4375 C37.31785443 75.31801514 34.22294143 59.26694577 31.12329102 43.21264648 C30.93240906 42.22381973 30.7415271 41.23499298 30.54486084 40.21620178 C30.18765787 38.36769895 29.8297673 36.51932879 29.4710083 34.67112732 C28.26759097 28.45446842 27.13291487 22.23103179 26 16 C25.67 44.71 25.34 73.42 25 103 C16.42 103 7.84 103 -1 103 C-1.11676767 68.64435519 -0.835196 34.34743547 0 0 Z " fill="#FBFCFD" transform="translate(339,114)"/>
<path d="M0 0 C12.87 0 25.74 0 39 0 C42.46486496 11.52269044 45.91818291 23.04780552 49.29638672 34.59619141 C49.80249429 36.32524592 50.30942962 38.05405822 50.81689453 39.78271484 C51.71260129 42.83391917 52.60645473 45.88566204 53.5 48.9375 C53.77255615 49.86530273 54.0451123 50.79310547 54.32592773 51.74902344 C56.97430431 60.81003779 59.472531 69.90111159 62 79 C62 52.93 62 26.86 62 0 C70.25 0 78.5 0 87 0 C87 33.66 87 67.32 87 102 C74.79 102 62.58 102 50 102 C47.4768499 95.06133724 45.13464559 88.33090858 43.1875 81.25 C41.06439694 73.68103189 38.86203422 66.1422884 36.5625 58.625 C36.2744751 57.68325928 35.9864502 56.74151855 35.68969727 55.77124023 C35.09947926 53.84424141 34.50873534 51.91740359 33.91748047 49.99072266 C32.31473967 44.76624825 30.71941107 39.53952129 29.125 34.3125 C28.8266626 33.33812988 28.5283252 32.36375977 28.22094727 31.35986328 C27.80607056 30.00030518 27.80607056 30.00030518 27.3828125 28.61328125 C27.13934082 27.81704346 26.89586914 27.02080566 26.64501953 26.20043945 C26.04352038 24.14846675 25.51861769 22.07447075 25 20 C25 47.06 25 74.12 25 102 C16.75 102 8.5 102 0 102 C0 68.34 0 34.68 0 0 Z " fill="#FDFDFE" transform="translate(677,114)"/>
<path d="M0 0 C0.85078125 -0.00773437 1.7015625 -0.01546875 2.578125 -0.0234375 C12.38334141 0.00663985 22.30541868 2.24784157 29.86328125 8.88671875 C37.64307381 17.47730855 37.29522013 25.13004176 37 36.25 C28.42 36.25 19.84 36.25 11 36.25 C10.505 30.31 10.505 30.31 10 24.25 C9.505 22.765 9.505 22.765 9 21.25 C6.0012496 20.25041653 3.70649444 19.98591432 0.5625 19.875 C-0.38496094 19.82601562 -1.33242188 19.77703125 -2.30859375 19.7265625 C-5.17739368 20.02156923 -5.17739368 20.02156923 -7.13883972 22.41844177 C-9.26927132 25.65966779 -9.49230465 27.24377452 -9.4699707 31.07836914 C-9.47289627 32.22628433 -9.47582184 33.37419952 -9.47883606 34.55690002 C-9.46132797 35.78722458 -9.44381989 37.01754913 -9.42578125 38.28515625 C-9.42249313 39.55596542 -9.41920502 40.8267746 -9.41581726 42.13609314 C-9.40539984 44.8205201 -9.38768998 47.50360497 -9.35668945 50.18774414 C-9.31707586 53.62312879 -9.29907139 57.05816543 -9.28938007 60.49375248 C-9.2793934 63.77843412 -9.25915981 67.06302811 -9.23828125 70.34765625 C-9.23089432 71.58000504 -9.22350739 72.81235382 -9.21589661 74.08204651 C-9.20306137 75.22680954 -9.19022614 76.37157257 -9.17700195 77.55102539 C-9.16715775 78.55742569 -9.15731354 79.56382599 -9.14717102 80.60072327 C-9.01316974 83.01292693 -8.89051902 85.00366473 -8 87.25 C-4.98439146 88.25520285 -2.7234098 88.48101114 0.4375 88.5625 C1.38496094 88.59988281 2.33242188 88.63726562 3.30859375 88.67578125 C6.04707264 88.41009298 6.04707264 88.41009298 8.30078125 86.90234375 C10.99498721 82.69690502 10.67829689 78.39536692 10.75 73.5 C10.77964844 72.51644531 10.80929687 71.53289062 10.83984375 70.51953125 C10.91040892 68.0967936 10.95748435 65.67339217 11 63.25 C7.7 63.25 4.4 63.25 1 63.25 C1 58.3 1 53.35 1 48.25 C12.88 48.25 24.76 48.25 37 48.25 C37.09237735 53.47958435 37.17184382 58.70628164 37.21972656 63.93603516 C37.23970839 65.71087289 37.26690355 67.48564594 37.30175781 69.26025391 C37.51695345 80.50739069 37.6342132 90.14765616 30.75 99.625 C21.5384897 108.41780529 8.77951619 108.64334424 -3.34277344 108.62060547 C-12.57150814 108.38803041 -21.05702614 106.00784433 -28.3125 100.09765625 C-33.53620765 94.37818005 -36.1065665 86.99393397 -36.17700195 79.37670898 C-36.18983719 78.16792587 -36.20267242 76.95914276 -36.21589661 75.71372986 C-36.22328354 74.40440994 -36.23067047 73.09509003 -36.23828125 71.74609375 C-36.24235678 71.07730761 -36.2464323 70.40852146 -36.25063133 69.71946907 C-36.27148416 66.17422929 -36.28578486 62.62902804 -36.29516602 59.08374023 C-36.30618227 55.44463635 -36.34052754 51.80615209 -36.38033772 48.16726589 C-36.4066604 45.35058056 -36.41487194 42.53403876 -36.41844749 39.71724129 C-36.42561016 37.73103706 -36.45198845 35.74493156 -36.47883606 33.75889587 C-36.45759268 24.82135634 -34.91681884 18.18615497 -30.375 10.5 C-21.54869399 2.13823642 -11.77953812 -0.10708671 0 0 Z " fill="#FBFCFD" transform="translate(827,110.75)"/>
<path d="M0 0 C8.58 0 17.16 0 26 0 C26.0093457 2.46307617 26.01869141 4.92615234 26.02832031 7.46386719 C26.06207527 15.59845339 26.11761579 23.73278549 26.18390274 31.86716843 C26.22342569 36.79948007 26.25559048 41.73161189 26.27099609 46.6640625 C26.28613102 51.42346848 26.32051999 56.18238025 26.36830902 60.94156647 C26.38315555 62.75800534 26.39104289 64.57451475 26.39188385 66.3910141 C26.39424548 68.93406471 26.42125855 71.47574057 26.45410156 74.01855469 C26.4490712 74.77093414 26.44404083 75.5233136 26.43885803 76.29849243 C26.50860775 79.7850693 26.72836934 81.65335589 28.90911865 84.43634033 C32.43640358 87.07421033 34.60328921 87.26380265 39 87 C41.47415218 86.17528261 42.61262473 85.56358713 44.08944702 83.41497803 C45.37381555 80.00856252 45.30840466 76.70237548 45.31884766 73.11035156 C45.33391609 71.92441658 45.33391609 71.92441658 45.34928894 70.71452332 C45.38012926 68.10656446 45.39715836 65.49870832 45.4140625 62.890625 C45.43277347 61.08029293 45.45234683 59.26996958 45.4727478 57.45965576 C45.52408249 52.69876245 45.56370108 47.93784086 45.60089111 43.17681885 C45.64092235 38.31702674 45.69201872 33.45735241 45.7421875 28.59765625 C45.83896271 19.06517866 45.92233963 9.53265251 46 0 C54.58 0 63.16 0 72 0 C72.09060177 10.77951941 72.16388906 21.55878324 72.20724869 32.33859825 C72.22806591 37.34485469 72.25627577 42.35083566 72.30175781 47.35693359 C72.34542556 52.19396269 72.36918116 57.03072789 72.37950897 61.867939 C72.38686293 63.70741552 72.40122304 65.54687866 72.42292023 67.38624191 C72.66685892 88.93564586 72.66685892 88.93564586 64.8125 97.875 C54.28075632 107.43701139 39.8017204 106.66604381 26.43408203 106.17919922 C18.34252769 105.58349201 10.64054752 101.84009519 5 96 C0.96652271 89.82080659 -0.14703572 84.16433423 -0.11352539 76.85668945 C-0.11367142 76.02719788 -0.11381744 75.1977063 -0.1139679 74.34307861 C-0.11327092 71.59978628 -0.10548853 68.85656173 -0.09765625 66.11328125 C-0.09579131 64.21184832 -0.09436776 62.31041491 -0.09336853 60.40898132 C-0.08954936 55.40305252 -0.07972416 50.3971527 -0.06866455 45.39123535 C-0.05843756 40.28361402 -0.05386815 35.175988 -0.04882812 30.06835938 C-0.03810138 20.04555813 -0.0205094 10.02278601 0 0 Z " fill="#FDFDFE" transform="translate(576,114)"/>
<path d="M0 0 C5.20585251 5.15493953 7.13124346 9.56832818 7.2746582 16.97680664 C7.24111551 20.0690447 7.1103732 23.15955034 7 26.25 C-1.58 26.25 -10.16 26.25 -19 26.25 C-19.495 20.805 -19.495 20.805 -20 15.25 C-21.27517874 12.39001655 -21.27517874 12.39001655 -24 11.25 C-27.13468129 10.66224726 -29.87220354 10.59574533 -33 11.25 C-36.3265563 13.92747214 -36.89853117 15.53971818 -37.5 19.75 C-36.90338967 23.92627228 -35.86260977 25.20285836 -33 28.25 C-30.05150269 30.24690754 -30.05150269 30.24690754 -26.6875 32 C-25.43680695 32.69145624 -24.18683148 33.38421169 -22.9375 34.078125 C-22.29167969 34.43326172 -21.64585937 34.78839844 -20.98046875 35.15429688 C5.67731005 49.9028313 5.67731005 49.9028313 9.58203125 62.0625 C11.43765541 71.77417783 10.42029599 82.85728362 5 91.25 C-3.46188933 100.28177167 -11.41134294 103.00051371 -23.63671875 103.48828125 C-35.95559446 103.7573476 -47.32772735 103.247981 -57.3125 95.09375 C-65.3121059 86.35343985 -65 76.76103264 -65 65.25 C-55.76 65.25 -46.52 65.25 -37 65.25 C-36.86979167 68.765625 -36.73958333 72.28125 -36.609375 75.796875 C-36.25398314 79.26377784 -36.25398314 79.26377784 -34.265625 81.671875 C-30.37859681 84.37939118 -26.54506729 83.95969489 -22 83.25 C-19.16666667 82.08333333 -19.16666667 82.08333333 -18 79.25 C-17.26117491 74.58911406 -17.02697687 70.8428932 -19.5390625 66.73046875 C-22.66578119 63.57893484 -26.0126019 61.63902855 -29.875 59.5 C-31.40348093 58.62437791 -32.93080798 57.74673882 -34.45703125 56.8671875 C-35.21967285 56.42987305 -35.98231445 55.99255859 -36.76806641 55.54199219 C-59.78095867 42.2205936 -59.78095867 42.2205936 -64 30.25 C-65.22502607 19.42341821 -63.81225508 10.84813379 -58.375 1.4375 C-44.82859878 -11.03944849 -14.36874324 -10.95616672 0 0 Z " fill="#FBFCFD" transform="translate(206,117.75)"/>
<path d="M0 0 C15.51 0 31.02 0 47 0 C51.10213771 20.13776692 54.88854615 40.3222064 58.55419922 60.54315186 C59.00103801 63.00572056 59.4495984 65.46797095 59.8984375 67.93017578 C60.61673462 71.87456187 61.32884747 75.8200183 62.03616333 79.76638794 C62.3011294 81.24103867 62.56775885 82.71539161 62.83615112 84.18942261 C63.20702735 86.22957882 63.57117837 88.2708262 63.93359375 90.3125 C64.2438147 92.03919922 64.2438147 92.03919922 64.56030273 93.80078125 C65 97 65 97 65 103 C56.09 103 47.18 103 38 103 C35.74853621 91.74268105 35.74853621 91.74268105 35 86.64453125 C34.83612793 85.53456787 34.67225586 84.42460449 34.50341797 83.28100586 C34.33729004 82.13639893 34.17116211 80.99179199 34 79.8125 C33.82484863 78.62084229 33.64969727 77.42918457 33.46923828 76.20141602 C32.40374731 68.91228604 31.38681959 61.62084172 30.4921875 54.30859375 C30.10298477 51.69228654 29.62429598 49.15874914 29.078125 46.57421875 C27.64532428 39.56273912 26.79093419 32.4680079 25.875 25.375 C25.69171478 23.97521998 25.50812317 22.57548005 25.32421875 21.17578125 C24.87980918 17.78423456 24.43848017 14.39231749 24 11 C21.26713745 27.48320984 18.67604207 43.96333184 16.45678711 60.52490234 C15.24632336 69.46153403 13.84264198 78.35377714 12.30639648 87.23999023 C12.07158569 88.60039429 12.07158569 88.60039429 11.83203125 89.98828125 C11.69514893 90.76727783 11.5582666 91.54627441 11.41723633 92.34887695 C10.86040409 95.88699355 10.44425099 99.44599208 10 103 C0.76 103 -8.48 103 -18 103 C-18 97.8398168 -17.78958685 94.10820614 -16.78515625 89.19921875 C-16.65416534 88.5455986 -16.52317444 87.89197845 -16.38821411 87.21855164 C-16.10215003 85.79195618 -15.81333045 84.36591109 -15.52206421 82.94036865 C-14.71428 78.98046125 -13.9306715 75.01580354 -13.1484375 71.05078125 C-12.97867905 70.19109741 -12.80892059 69.33141357 -12.63401794 68.44567871 C-9.92126006 54.60821368 -7.49575924 40.71637819 -5.02172852 26.8347168 C-4.74267166 25.27126274 -4.74267166 25.27126274 -4.45797729 23.67622375 C-4.11084513 21.72988049 -3.76475013 19.7833518 -3.41995239 17.83659363 C-3.26227386 16.95127457 -3.10459534 16.06595551 -2.94213867 15.15380859 C-2.8078093 14.39635345 -2.67347992 13.63889832 -2.53507996 12.85848999 C-1.73127154 8.5644059 -0.85676642 4.2838321 0 0 Z " fill="#FBFCFD" transform="translate(251,114)"/>
<path d="M0 0 C4.54739029 3.59354745 6.60419988 8.10429953 8 13.6875 C8 17.9775 8 22.2675 8 26.6875 C-0.58 26.6875 -9.16 26.6875 -18 26.6875 C-18.495 21.2425 -18.495 21.2425 -19 15.6875 C-21.58644643 12.52068368 -21.58644643 12.52068368 -24.375 12.2890625 C-25.24125 12.29679687 -26.1075 12.30453125 -27 12.3125 C-27.86625 12.30476563 -28.7325 12.29703125 -29.625 12.2890625 C-32.02914262 12.5169516 -32.02914262 12.5169516 -33.78125 13.9375 C-35.73457032 16.74226765 -35.53824379 19.1520035 -35.3984375 22.48046875 C-34.7252111 26.20961496 -33.00426759 27.46434198 -30 29.6875 C-25.63861534 32.54012589 -21.10871768 35.07154573 -16.5546875 37.6015625 C6.5427603 50.47457351 6.5427603 50.47457351 9.55126953 60.5300293 C11.50902065 69.94278589 11.76866489 82.51777317 6.53125 90.78125 C0.33840694 98.49070769 -7.36785101 101.86256831 -17.21899414 103.08789062 C-20.48870813 103.25654765 -23.72636723 103.28304736 -27 103.25 C-28.08539062 103.27384766 -29.17078125 103.29769531 -30.2890625 103.32226562 C-40.52163098 103.30394957 -49.24290148 100.50056492 -57 93.6875 C-61.99497976 86.97995575 -63.30135958 82.0304599 -63.125 73.875 C-63.08375 71.173125 -63.0425 68.47125 -63 65.6875 C-54.09 65.6875 -45.18 65.6875 -36 65.6875 C-35.67 69.9775 -35.34 74.2675 -35 78.6875 C-33.26557234 82.174928 -33.26557234 82.174928 -30 83.6875 C-26.83451583 84.35844501 -24.16245669 84.38518484 -21 83.6875 C-17.7698823 81.8741503 -17.7698823 81.8741503 -16 78.6875 C-15.07889376 73.49581027 -15.26311415 71.76912027 -18.24609375 67.390625 C-22.79726106 62.33557122 -28.83188853 59.49815009 -34.75 56.3125 C-46.03156104 50.23385067 -57.15111674 44.12593965 -62 31.6875 C-64.36539847 23.69020042 -63.35871481 15.24460832 -60 7.6875 C-55.72034341 0.6370401 -49.07856276 -3.06797068 -41.3515625 -5.42578125 C-27.75211557 -8.62033541 -11.90530976 -7.52176474 0 0 Z " fill="#FBFCFD" transform="translate(541,117.3125)"/>
<path d="M0 0 C0.33 0 0.66 0 1 0 C1 4.62 1 9.24 1 14 C0.01 13.34 -0.98 12.68 -2 12 C-1 3.42857143 -1 3.42857143 0 0 Z " fill="#3873B5" transform="translate(425,124)"/>
<path d="M0 0 C2.5654594 2.5654594 2.54046087 4.47686668 3 8 C2.34 8 1.68 8 1 8 C1 10.64 1 13.28 1 16 C0.67 16 0.34 16 0 16 C0 10.72 0 5.44 0 0 Z " fill="#3873B5" transform="translate(701,132)"/>
</svg>
